<svg width="24" height="24" viewBox="0 0 24 24" fill="none" xmlns="http://www.w3.org/2000/svg">
<path d="M16 10.1707V6.04543L9 7.95444V17C9 18.6569 7.65685 20 6 20C4.34315 20 3 18.6569 3 17C3 15.3431 4.34315 14 6 14C6.35064 14 6.68722 14.0602 7 14.1707L6.99953 6L18 3V12.0709C15.9183 12.3687 14.1321 13.5823 13.0626 15.2906C12.4126 14.7403 12 13.9183 12 13C12 11.3431 13.3431 10 15 10C15.3506 10 15.6872 10.0602 16 10.1707Z" fill="#282F35"/>
<path d="M18 15V18H15V20H18V23H20V20H23V18H20V15H18Z" fill="#282F35"/>
</svg>
