<svg width="24" height="24" viewBox="0 0 24 24" fill="none" xmlns="http://www.w3.org/2000/svg">
<path d="M16.75 4.25C17.0952 4.25 17.375 3.97018 17.375 3.625C17.375 3.27982 17.0952 3 16.75 3C16.4048 3 16.125 3.27982 16.125 3.625C16.125 3.97018 16.4048 4.25 16.75 4.25Z" fill="#282F35"/>
<path d="M13.25 7.25C13.25 7.94036 12.6904 8.5 12 8.5C11.3096 8.5 10.75 7.94036 10.75 7.25C10.75 6.55964 11.3096 6 12 6C12.6904 6 13.25 6.55964 13.25 7.25Z" fill="#282F35"/>
<path d="M13.9999 12C13.9999 13.1046 13.1045 14 11.9999 14C10.8954 14 9.99995 13.1046 9.99995 12C9.99995 10.8954 10.8954 9.99999 11.9999 9.99999C13.1045 9.99999 13.9999 10.8954 13.9999 12Z" fill="#282F35"/>
<path d="M7.25 8.125C7.73325 8.125 8.125 7.73325 8.125 7.25C8.125 6.76675 7.73325 6.375 7.25 6.375C6.76675 6.375 6.375 6.76675 6.375 7.25C6.375 7.73325 6.76675 8.125 7.25 8.125Z" fill="#282F35"/>
<path d="M17.625 7.25C17.625 7.73325 17.2332 8.125 16.75 8.125C16.2668 8.125 15.875 7.73325 15.875 7.25C15.875 6.76675 16.2668 6.375 16.75 6.375C17.2332 6.375 17.625 6.76675 17.625 7.25Z" fill="#282F35"/>
<path d="M7.875 3.625C7.875 3.97018 7.59518 4.25 7.25 4.25C6.90482 4.25 6.625 3.97018 6.625 3.625C6.625 3.27982 6.90482 3 7.25 3C7.59518 3 7.875 3.27982 7.875 3.625Z" fill="#282F35"/>
<path d="M3.625 7.875C3.97018 7.875 4.25 7.59518 4.25 7.25C4.25 6.90482 3.97018 6.625 3.625 6.625C3.27982 6.625 3 6.90482 3 7.25C3 7.59518 3.27982 7.875 3.625 7.875Z" fill="#282F35"/>
<path d="M17.375 20.5C17.375 20.8452 17.0952 21.125 16.75 21.125C16.4048 21.125 16.125 20.8452 16.125 20.5C16.125 20.1548 16.4048 19.875 16.75 19.875C17.0952 19.875 17.375 20.1548 17.375 20.5Z" fill="#282F35"/>
<path d="M20.5 17.375C20.8452 17.375 21.125 17.0952 21.125 16.75C21.125 16.4048 20.8452 16.125 20.5 16.125C20.1548 16.125 19.875 16.4048 19.875 16.75C19.875 17.0952 20.1548 17.375 20.5 17.375Z" fill="#282F35"/>
<path d="M21.125 7.25C21.125 7.59518 20.8452 7.875 20.5 7.875C20.1548 7.875 19.875 7.59518 19.875 7.25C19.875 6.90482 20.1548 6.625 20.5 6.625C20.8452 6.625 21.125 6.90482 21.125 7.25Z" fill="#282F35"/>
<path d="M12 4.5C12.4142 4.5 12.75 4.16421 12.75 3.75C12.75 3.33579 12.4142 3 12 3C11.5858 3 11.25 3.33579 11.25 3.75C11.25 4.16421 11.5858 4.5 12 4.5Z" fill="#282F35"/>
<path d="M3.75 11.25C4.16421 11.25 4.5 11.5858 4.5 12C4.5 12.4142 4.16421 12.75 3.75 12.75C3.33579 12.75 3 12.4142 3 12C3 11.5858 3.33579 11.25 3.75 11.25Z" fill="#282F35"/>
<path d="M12 21C12.4142 21 12.75 20.6642 12.75 20.25C12.75 19.8358 12.4142 19.5 12 19.5C11.5858 19.5 11.25 19.8358 11.25 20.25C11.25 20.6642 11.5858 21 12 21Z" fill="#282F35"/>
<path d="M20.25 11.25C20.6642 11.25 21 11.5858 21 12C21 12.4142 20.6642 12.75 20.25 12.75C19.8358 12.75 19.5 12.4142 19.5 12C19.5 11.5858 19.8358 11.25 20.25 11.25Z" fill="#282F35"/>
<path d="M7.25 17.625C7.73325 17.625 8.125 17.2332 8.125 16.75C8.125 16.2668 7.73325 15.875 7.25 15.875C6.76675 15.875 6.375 16.2668 6.375 16.75C6.375 17.2332 6.76675 17.625 7.25 17.625Z" fill="#282F35"/>
<path d="M4.25 16.75C4.25 17.0952 3.97018 17.375 3.625 17.375C3.27982 17.375 3 17.0952 3 16.75C3 16.4048 3.27982 16.125 3.625 16.125C3.97018 16.125 4.25 16.4048 4.25 16.75Z" fill="#282F35"/>
<path d="M7.25 21.125C7.59518 21.125 7.875 20.8452 7.875 20.5C7.875 20.1548 7.59518 19.875 7.25 19.875C6.90482 19.875 6.625 20.1548 6.625 20.5C6.625 20.8452 6.90482 21.125 7.25 21.125Z" fill="#282F35"/>
<path d="M17.625 16.75C17.625 17.2332 17.2332 17.625 16.75 17.625C16.2668 17.625 15.875 17.2332 15.875 16.75C15.875 16.2668 16.2668 15.875 16.75 15.875C17.2332 15.875 17.625 16.2668 17.625 16.75Z" fill="#282F35"/>
<path d="M15.5 12C15.5 12.6904 16.0596 13.25 16.75 13.25C17.4404 13.25 18 12.6904 18 12C18 11.3096 17.4404 10.75 16.75 10.75C16.0596 10.75 15.5 11.3096 15.5 12Z" fill="#282F35"/>
<path d="M13.25 16.75C13.25 17.4404 12.6904 18 12 18C11.3096 18 10.75 17.4404 10.75 16.75C10.75 16.0596 11.3096 15.5 12 15.5C12.6904 15.5 13.25 16.0596 13.25 16.75Z" fill="#282F35"/>
<path d="M6 12C6 12.6904 6.55964 13.25 7.25 13.25C7.94036 13.25 8.5 12.6904 8.5 12C8.5 11.3096 7.94036 10.75 7.25 10.75C6.55964 10.75 6 11.3096 6 12Z" fill="#282F35"/>
</svg>
