<svg width="24" height="24" viewBox="0 0 24 24" fill="none" xmlns="http://www.w3.org/2000/svg">
<path d="M5 2C4.44772 2 4 2.44772 4 3V5.12602C4.31962 5.04375 4.6547 5 5 5H19C19.3453 5 19.6804 5.04375 20 5.12602V3C20 2.44772 19.5523 2 19 2H5Z" fill="#282F35"/>
<path d="M20 18.874C19.6804 18.9562 19.3453 19 19 19H5C4.6547 19 4.31962 18.9562 4 18.874V21C4 21.5523 4.44772 22 5 22H19C19.5523 22 20 21.5523 20 21V18.874Z" fill="#282F35"/>
<path d="M5 9H19V15H5V9Z" fill="#282F35"/>
<path fill-rule="evenodd" clip-rule="evenodd" d="M2.25 9C2.25 7.48122 3.48122 6.25 5 6.25H19C20.5188 6.25 21.75 7.48122 21.75 9V15C21.75 16.5188 20.5188 17.75 19 17.75H5C3.48122 17.75 2.25 16.5188 2.25 15V9ZM5 7.75C4.30964 7.75 3.75 8.30964 3.75 9V15C3.75 15.6904 4.30964 16.25 5 16.25H19C19.6904 16.25 20.25 15.6904 20.25 15V9C20.25 8.30964 19.6904 7.75 19 7.75H5Z" fill="#282F35"/>
</svg>
