<svg width="24" height="24" viewBox="0 0 24 24" fill="none" xmlns="http://www.w3.org/2000/svg">
<path d="M5.801 4.93706C5.26753 5.08 4.95095 5.62833 5.09389 6.1618L5.58642 7.99994H13.0006C15.2098 7.99994 17.0006 9.7908 17.0006 11.9999V15.3947L21.7227 14.1294C22.2561 13.9865 22.5727 13.4382 22.4298 12.9047L19.5828 2.27952C19.4398 1.74605 18.8915 1.42947 18.358 1.57241L5.801 4.93706Z" fill="#282F35"/>
<path d="M13.0006 16.4665V11.9999H6.65822L7.9409 16.787C8.08384 17.3205 8.63218 17.637 9.16565 17.4941L13.0006 16.4665Z" fill="#282F35"/>
<path fill-rule="evenodd" clip-rule="evenodd" d="M2.25 12C2.25 10.4812 3.48122 9.25 5 9.25H13C14.5188 9.25 15.75 10.4812 15.75 12V19C15.75 20.5188 14.5188 21.75 13 21.75H5C3.48122 21.75 2.25 20.5188 2.25 19V12ZM5 10.75C4.30964 10.75 3.75 11.3096 3.75 12V19C3.75 19.6904 4.30964 20.25 5 20.25H13C13.6904 20.25 14.25 19.6904 14.25 19V12C14.25 11.3096 13.6904 10.75 13 10.75H5Z" fill="#282F35"/>
</svg>
