<svg width="24" height="24" viewBox="0 0 24 24" fill="none" xmlns="http://www.w3.org/2000/svg">
<path d="M12.7072 13.7071L17.2072 9.2071L15.793 7.7929L13.0001 10.5858V3H11.0001V10.5858L8.20719 7.79289L6.79297 9.2071L11.293 13.7071C11.4805 13.8947 11.7349 14 12.0001 14C12.2653 14 12.5197 13.8947 12.7072 13.7071Z" fill="#282F35"/>
<path fill-rule="evenodd" clip-rule="evenodd" d="M3 17V14H5V17C5 17.5523 5.44772 18 6 18H18C18.5523 18 19 17.5523 19 17V14H21V17C21 18.6569 19.6569 20 18 20H6C4.34315 20 3 18.6569 3 17Z" fill="#282F35"/>
</svg>
