<svg width="24" height="24" viewBox="0 0 24 24" fill="none" xmlns="http://www.w3.org/2000/svg">
<path d="M22.7072 18.2069L18.7072 22.2071C18.5197 22.3947 18.2653 22.5001 18.0001 22.5001C17.7349 22.5001 17.4805 22.3947 17.293 22.2072L13.293 18.2071L14.7072 16.7929L17 19.0858V4.9143L14.7072 7.20713L13.293 5.79292L17.293 1.7929C17.4805 1.60536 17.7349 1.5 18.0001 1.5C18.2653 1.5 18.5197 1.60536 18.7072 1.7929L22.7072 5.79292L21.293 7.20713L19 4.91415V19.0858L21.2929 16.7927L22.7072 18.2069Z" fill="#282F35"/>
<path d="M7.9082 8.55762L5.07129 17H3.08203L6.80078 7.04688H8.07227L7.9082 8.55762ZM10.2803 17L7.42969 8.55762L7.25879 7.04688H8.53711L12.2764 17H10.2803ZM10.1504 13.3018V14.7852H4.81152V13.3018H10.1504Z" fill="#282F35"/>
</svg>
