<svg width="24" height="24" viewBox="0 0 24 24" fill="none" xmlns="http://www.w3.org/2000/svg">
<path d="M15 4V6H18V9H20V4H15Z" fill="#282F35"/>
<path d="M20 15H18V18H15L15 20H20V15Z" fill="#282F35"/>
<path d="M9 20V18H6V16H4V20H9Z" fill="#282F35"/>
<path d="M6.70719 1.7929L11.2072 6.29292L9.79297 7.70713L7 4.91415V9.39448C7 10.9919 8.78029 11.9447 10.1094 11.0586L11.4453 10.168L12.5547 11.8321L11.2188 12.7227C8.56058 14.4948 5 12.5893 5 9.39448V4.9143L2.20719 7.70713L0.792969 6.29292L5.29297 1.7929C5.48051 1.60536 5.73486 1.5 6.00008 1.5C6.2653 1.5 6.51965 1.60536 6.70719 1.7929Z" fill="#282F35"/>
</svg>
