<svg width="24" height="24" viewBox="0 0 24 24" fill="none" xmlns="http://www.w3.org/2000/svg">
<path fill-rule="evenodd" clip-rule="evenodd" d="M12 20C16.4183 20 20 16.4183 20 12C20 7.58172 16.4183 4 12 4C7.58172 4 4 7.58172 4 12C4 16.4183 7.58172 20 12 20ZM12 22C17.5228 22 22 17.5228 22 12C22 6.47715 17.5228 2 12 2C6.47715 2 2 6.47715 2 12C2 17.5228 6.47715 22 12 22Z" fill="#282F35"/>
<path d="M12.0001 18C11.1716 18 10.5001 17.3284 10.5001 16.5V12C10.5001 11.1716 11.1716 10.5 12.0001 10.5C12.8285 10.5 13.5001 11.1716 13.5001 12V16.5C13.5001 17.3284 12.8285 18 12.0001 18Z" fill="#282F35"/>
<path d="M12 9C11.1716 9 10.5 8.32843 10.5 7.5C10.5 6.67157 11.1716 6 12 6C12.8284 6 13.5 6.67157 13.5 7.5C13.5 8.32843 12.8284 9 12 9Z" fill="#282F35"/>
</svg>
