<svg width="24" height="24" viewBox="0 0 24 24" fill="none" xmlns="http://www.w3.org/2000/svg">
<path fill-rule="evenodd" clip-rule="evenodd" d="M3 6C3 4.34315 4.34315 3 6 3H18C19.6569 3 21 4.34315 21 6V18C21 19.6569 19.6569 21 18 21H6C4.34315 21 3 19.6569 3 18V6ZM6 5C5.44772 5 5 5.44772 5 6V18C5 18.5523 5.44772 19 6 19H18C18.5523 19 19 18.5523 19 18V6C19 5.44772 18.5523 5 18 5H6Z" fill="#282F35"/>
<path d="M9 6H6V9H9V12H6V15H9V12H12V9H9V6Z" fill="#282F35"/>
<path d="M15.6004 9.6H17.4004V11.4H15.6004V9.6Z" fill="#282F35"/>
<path d="M12.375 6.375H14.625V8.625H12.375V6.375Z" fill="#282F35"/>
<path d="M11.7002 15.3H9.3002V17.7H11.7002V15.3Z" fill="#282F35"/>
<path d="M15.6004 15.6H17.4004V17.4H15.6004V15.6Z" fill="#282F35"/>
<path d="M12.375 12.375H14.625V14.625H12.375V12.375Z" fill="#282F35"/>
</svg>
