<svg width="24" height="24" viewBox="0 0 24 24" fill="none" xmlns="http://www.w3.org/2000/svg">
<path d="M12.0339 9.69314L12 9.71196L7.11825 6.99988L12 4.2878L13.2623 4.98909C13.6594 4.42209 14.1384 3.91666 14.6822 3.48997L12.7285 2.40458C12.2754 2.1529 11.7246 2.1529 11.2715 2.40458L3.59006 6.67207C3.33288 6.81495 3.33288 7.18481 3.59006 7.32769L11.2715 11.5952C11.6614 11.8118 12.1237 11.842 12.5338 11.6858C12.2744 11.062 12.1026 10.3927 12.0339 9.69314Z" fill="#282F35"/>
<path d="M13.8151 13.7029L11.9993 14.7117L7.11756 11.9996L7.75743 11.6441L5.69831 10.5002L3.58937 11.6718C3.33219 11.8147 3.33219 12.1845 3.58937 12.3274L11.2708 16.5949C11.7239 16.8466 12.2747 16.8466 12.7278 16.5949L15.4923 15.0591C14.865 14.6951 14.2994 14.2366 13.8151 13.7029Z" fill="#282F35"/>
<path d="M18.7072 13.2071L22.7072 9.20708L21.293 7.79287L19 10.0859V4H17V10.0857L14.7072 7.79287L13.293 9.20708L17.293 13.2071C17.4805 13.3946 17.7349 13.5 18.0001 13.5C18.2653 13.5 18.5197 13.3946 18.7072 13.2071Z" fill="#282F35"/>
<path d="M17 1V3H19V1H17Z" fill="#282F35"/>
<path d="M12.7275 18.5951L17.6373 15.8674C18.0781 15.9544 18.5337 16 19 16C19.065 16 19.1299 15.9991 19.1945 15.9973L20.4093 16.6722C20.6664 16.8151 20.6664 17.185 20.4093 17.3278L12.7278 21.5953C12.2747 21.847 11.7239 21.847 11.2708 21.5953L3.58937 17.3278C3.33219 17.185 3.33219 16.8151 3.58937 16.6722L5.69936 15.5L11.2706 18.5951C11.7236 18.8468 12.2745 18.8468 12.7275 18.5951Z" fill="#282F35"/>
</svg>
