<svg width="24" height="24" viewBox="0 0 24 24" fill="none" xmlns="http://www.w3.org/2000/svg">
<path d="M12.0339 9.69329L12.0003 9.71196L7.11854 6.99988L12.0003 4.2878L13.2624 4.98897C13.6595 4.42198 14.1385 3.91655 14.6823 3.48987L12.7288 2.40458C12.2757 2.1529 11.7249 2.1529 11.2718 2.40458L3.59035 6.67207C3.33317 6.81495 3.33317 7.18481 3.59034 7.32769L11.2718 11.5952C11.6616 11.8117 12.1238 11.842 12.5338 11.6859C12.2744 11.0622 12.1027 10.3928 12.0339 9.69329Z" fill="#282F35"/>
<path d="M22.7072 9.20708L18.7072 13.2071C18.5197 13.3946 18.2653 13.5 18.0001 13.5C17.7349 13.5 17.4805 13.3946 17.293 13.2071L13.293 9.20708L14.7072 7.79287L17 10.0857V4H19V10.0859L21.293 7.79287L22.7072 9.20708Z" fill="#282F35"/>
<path d="M12.7286 16.5954L15.4931 15.0595C16.5242 15.6576 17.7221 16 19 16C19.0655 16 19.1307 15.9991 19.1958 15.9973L20.4102 16.672C20.6674 16.8149 20.6674 17.1848 20.4102 17.3276L12.7288 21.5951C12.2757 21.8468 11.7249 21.8468 11.2718 21.5951L3.59034 17.3276C3.33317 17.1848 3.33317 16.8149 3.59035 16.672L7.49999 14.5L11.2716 16.5954C11.7247 16.847 12.2755 16.847 12.7286 16.5954Z" fill="#282F35"/>
</svg>
