<svg width="24" height="24" viewBox="0 0 24 24" fill="none" xmlns="http://www.w3.org/2000/svg">
<path d="M8 3V2H6V3C6 4.65685 7.34315 6 9 6H15C16.6569 6 18 4.65685 18 3V2H16V3C16 3.55228 15.5523 4 15 4H9C8.44772 4 8 3.55228 8 3Z" fill="#282F35"/>
<path d="M8 21V22H6V21C6 19.3431 7.34315 18 9 18H15C16.6569 18 18 19.3431 18 21V22H16V21C16 20.4477 15.5523 20 15 20H9C8.44772 20 8 20.4477 8 21Z" fill="#282F35"/>
<path fill-rule="evenodd" clip-rule="evenodd" d="M4 10C4 8.34315 5.34315 7 7 7H17C18.6569 7 20 8.34315 20 10V14C20 15.6569 18.6569 17 17 17H7C5.34315 17 4 15.6569 4 14V10ZM7 9C6.44772 9 6 9.44772 6 10V14C6 14.5523 6.44772 15 7 15H17C17.5523 15 18 14.5523 18 14V10C18 9.44772 17.5523 9 17 9H7Z" fill="#282F35"/>
</svg>
