<svg width="24" height="24" viewBox="0 0 24 24" fill="none" xmlns="http://www.w3.org/2000/svg">
<path fill-rule="evenodd" clip-rule="evenodd" d="M3 6C3 4.34315 4.34315 3 6 3H18C19.6569 3 21 4.34315 21 6V18C21 19.6569 19.6569 21 18 21H6C4.34315 21 3 19.6569 3 18V6ZM6 5C5.44772 5 5 5.44772 5 6V18C5 18.5523 5.44772 19 6 19H18C18.5523 19 19 18.5523 19 18V6C19 5.44772 18.5523 5 18 5H6Z" fill="#282F35"/>
<path fill-rule="evenodd" clip-rule="evenodd" d="M14.4092 8L8.00001 14.4092L8 11L6 11L6.00002 17C6.00002 17.5523 6.44774 18 7.00002 18H13V16H9.59117L16 9.59118L16 13L18 13L18 7C18 6.44771 17.5523 6 17 6H11V8H14.4092Z" fill="#282F35"/>
</svg>
