<svg width="24" height="24" viewBox="0 0 24 24" fill="none" xmlns="http://www.w3.org/2000/svg">
<path d="M21.2123 16.3839C21.7072 15.7182 22 14.8933 22 14V10C22 7.79086 20.2091 6 18 6H10.8283L12.8283 8H18C19.1046 8 20 8.89543 20 10V14C20 14.3391 19.9156 14.6585 19.7667 14.9383L21.2123 16.3839Z" fill="#282F35"/>
<path d="M12.9142 16L13.7498 15.1645L12.3355 13.7502L9.79287 16.2929C9.60533 16.4804 9.49997 16.7348 9.49997 17C9.49997 17.2652 9.60533 17.5196 9.79287 17.7071L13.7929 21.7071L15.2071 20.2929L12.9142 18H16.5853L14.5853 16H12.9142Z" fill="#282F35"/>
<path d="M4.77603 6.19073L6.5853 8H6C4.89543 8 4 8.89543 4 10V14C4 15.1046 4.89542 16 5.99998 16L6.37501 16L6.37499 18L5.99997 18C3.79084 18 2 16.2091 2 14V10C2 8.21777 3.16558 6.70778 4.77603 6.19073Z" fill="#282F35"/>
<path fill-rule="evenodd" clip-rule="evenodd" d="M20.291 21.7086L2.29102 3.70865L3.70523 2.29443L21.7052 20.2944L20.291 21.7086Z" fill="#282F35"/>
</svg>
