<svg width="24" height="24" viewBox="0 0 24 24" fill="none" xmlns="http://www.w3.org/2000/svg">
<path d="M6.79192 17.2928L10.7919 13.2928L12.2062 14.707L9.91333 16.9999H15.8774C17.8292 16.9999 19.2612 15.1657 18.7879 13.2723L18.0304 10.2424L19.9707 9.75732L20.7282 12.7872C21.5171 15.9429 19.1303 18.9999 15.8774 18.9999H9.91317L12.2062 21.2928L10.7919 22.707L6.79192 18.707C6.60438 18.5195 6.49902 18.2652 6.49902 17.9999C6.49902 17.7347 6.60438 17.4804 6.79192 17.2928Z" fill="#282F35"/>
<path d="M17.2062 6.7067L13.2062 10.7072L11.7919 9.29306L14.0845 7.00016H8.12258C6.17115 7.00016 4.73913 8.83383 5.21198 10.7271L5.96893 13.7579L4.02853 14.2425L3.27159 11.2117C2.48349 8.05627 4.87019 5.00016 8.12258 5.00016H14.0851L11.792 2.70727L13.2061 1.29297L17.2061 5.29248C17.3937 5.48001 17.499 5.73435 17.4991 5.99957C17.4991 6.26479 17.3937 6.51915 17.2062 6.7067Z" fill="#282F35"/>
</svg>
