<svg width="24" height="24" viewBox="0 0 24 24" fill="none" xmlns="http://www.w3.org/2000/svg">
<path d="M9.92765 4.39795L8.85501 8.05406L4.5575 8.04373C5.01969 8.41215 5.34837 8.94096 5.4593 9.5459L9.41438 9.5554C9.74794 9.5562 10.0419 9.33662 10.1359 9.01655L11.2055 5.3707C10.6799 5.19457 10.2322 4.84859 9.92765 4.39795Z" fill="#282F35"/>
<path d="M12.7938 5.3712C13.3193 5.19544 13.7671 4.84987 14.072 4.39964L15.1441 8.05406L19.4433 8.04373C18.9811 8.41215 18.6524 8.94095 18.5415 9.5459L14.5848 9.5554C14.2512 9.5562 13.9572 9.33662 13.8633 9.01655L12.7938 5.3712Z" fill="#282F35"/>
<path d="M18.7918 11.1722L15.7128 13.6199C15.4732 13.8105 15.3734 14.1276 15.4608 14.4211L16.7713 18.8222C17.1343 18.6169 17.5536 18.4997 18.0004 18.4997C18.0825 18.4997 18.1638 18.5037 18.2439 18.5114L17.043 14.4787L19.8709 12.2306C19.4113 11.9975 19.0335 11.6265 18.7918 11.1722Z" fill="#282F35"/>
<path d="M15.5225 21.3335C15.5079 21.2243 15.5004 21.1129 15.5004 20.9997C15.5004 20.5194 15.6358 20.0707 15.8707 19.6897L12.4689 16.9604C12.1947 16.7404 11.8044 16.7404 11.5302 16.9604L8.12957 19.6889C8.36471 20.07 8.50038 20.519 8.50038 20.9997C8.50038 21.1124 8.49293 21.2233 8.47849 21.332L11.9996 18.507L15.5225 21.3335Z" fill="#282F35"/>
<path d="M5.7552 18.5116C5.83587 18.5037 5.91766 18.4997 6.00038 18.4997C6.44655 18.4997 6.86542 18.6166 7.22804 18.8214L8.53837 14.4211C8.62576 14.1276 8.52598 13.8105 8.28629 13.6199L5.20847 11.1731C4.96657 11.6274 4.58858 11.9982 4.12891 12.2311L6.95612 14.4787L5.7552 18.5116Z" fill="#282F35"/>
<path d="M10.5 3C10.5 3.82843 11.1716 4.5 12 4.5C12.8284 4.5 13.5 3.82843 13.5 3C13.5 2.17157 12.8284 1.5 12 1.5C11.1716 1.5 10.5 2.17157 10.5 3Z" fill="#282F35"/>
<path d="M3 11.5C2.17157 11.5 1.5 10.8285 1.5 10C1.5 9.1716 2.17157 8.50003 3 8.50003C3.82843 8.50003 4.5 9.1716 4.5 10C4.5 10.8285 3.82843 11.5 3 11.5Z" fill="#282F35"/>
<path d="M21 11.5C20.1716 11.5 19.5 10.8285 19.5 10C19.5 9.1716 20.1716 8.50003 21 8.50003C21.8284 8.50003 22.5 9.1716 22.5 10C22.5 10.8285 21.8284 11.5 21 11.5Z" fill="#282F35"/>
<path d="M6 22.5C5.17157 22.5 4.5 21.8285 4.5 21C4.5 20.1716 5.17157 19.5 6 19.5C6.82843 19.5 7.5 20.1716 7.5 21C7.5 21.8285 6.82843 22.5 6 22.5Z" fill="#282F35"/>
<path d="M16.5 21C16.5 21.8285 17.1716 22.5 18 22.5C18.8284 22.5 19.5 21.8285 19.5 21C19.5 20.1716 18.8284 19.5 18 19.5C17.1716 19.5 16.5 20.1716 16.5 21Z" fill="#282F35"/>
</svg>
