<svg width="24" height="24" viewBox="0 0 24 24" fill="none" xmlns="http://www.w3.org/2000/svg">
<path d="M4.75 8C4.33579 8 4 8.33579 4 8.75C4 9.16421 4.33579 9.5 4.75 9.5H7.25C7.66421 9.5 8 9.16421 8 8.75C8 8.33579 7.66421 8 7.25 8H4.75Z" fill="#282F35"/>
<path d="M4 11.75C4 11.3358 4.33579 11 4.75 11H7.25C7.66421 11 8 11.3358 8 11.75C8 12.1642 7.66421 12.5 7.25 12.5H4.75C4.33579 12.5 4 12.1642 4 11.75Z" fill="#282F35"/>
<path d="M4.75 14C4.33579 14 4 14.3358 4 14.75C4 15.1642 4.33579 15.5 4.75 15.5H7.25C7.66421 15.5 8 15.1642 8 14.75C8 14.3358 7.66421 14 7.25 14H4.75Z" fill="#282F35"/>
<path fill-rule="evenodd" clip-rule="evenodd" d="M1 7C1 5.34315 2.34315 4 4 4H20C21.6569 4 23 5.34315 23 7V17C23 18.6569 21.6569 20 20 20H4C2.34315 20 1 18.6569 1 17V7ZM4 6C3.44772 6 3 6.44772 3 7V17C3 17.5523 3.44772 18 4 18H9V6H4ZM20 18H11V6H20C20.5523 6 21 6.44772 21 7V17C21 17.5523 20.5523 18 20 18Z" fill="#282F35"/>
</svg>
