<svg width="24" height="24" viewBox="0 0 24 24" fill="none" xmlns="http://www.w3.org/2000/svg">
<path d="M11 1H13V5H11V1Z" fill="#282F35"/>
<path d="M11 7H13V11H11V7Z" fill="#282F35"/>
<path d="M11 13H13V17H11V13Z" fill="#282F35"/>
<path d="M13 19H11V23H13V19Z" fill="#282F35"/>
<path d="M5 4H9V6H5C4.44772 6 4 6.44772 4 7V17C4 17.5523 4.44772 18 5 18H9V20H5C3.34315 20 2 18.6569 2 17V7C2 5.34315 3.34315 4 5 4Z" fill="#282F35"/>
<path d="M19 18H15V20H19C20.6569 20 22 18.6569 22 17V7C22 5.34315 20.6569 4 19 4H15V6H19C19.5523 6 20 6.44772 20 7V17C20 17.5523 19.5523 18 19 18Z" fill="#282F35"/>
</svg>
