<svg width="24" height="24" viewBox="0 0 24 24" fill="none" xmlns="http://www.w3.org/2000/svg">
<path d="M6 20H13.1797C16.7188 20 18.75 18.1094 18.75 15.5234C18.75 13.2109 17.0703 11.7578 15.1328 11.6719V11.5156C16.8906 11.1484 18.125 9.875 18.125 8.04688C18.125 5.63281 16.2656 4 12.6719 4H6V20ZM9.86719 16.8828V13.0703H12.3281C13.8047 13.0703 14.7109 13.8516 14.7109 15.0781C14.7109 16.2109 13.9297 16.8828 12.2578 16.8828H9.86719ZM9.86719 10.5781V7.07031H12.0703C13.3594 7.07031 14.1797 7.73438 14.1797 8.79688C14.1797 9.92188 13.2734 10.5781 12.0078 10.5781H9.86719Z" fill="#282F35"/>
</svg>
