<svg width="24" height="24" viewBox="0 0 24 24" fill="none" xmlns="http://www.w3.org/2000/svg">
<path d="M6 12C6 10.3431 7.34315 9 9 9C10.6569 9 12 10.3431 12 12C12 13.6569 10.6569 15 9 15C7.34315 15 6 13.6569 6 12Z" fill="#282F35"/>
<path fill-rule="evenodd" clip-rule="evenodd" d="M9 4H15C19.4183 4 23 7.58172 23 12C23 16.4183 19.4183 20 15 20H9C4.58172 20 1 16.4183 1 12C1 7.58172 4.58172 4 9 4ZM9 6C5.68629 6 3 8.68629 3 12C3 15.3137 5.68629 18 9 18H15C18.3137 18 21 15.3137 21 12C21 8.68629 18.3137 6 15 6L9 6Z" fill="#282F35"/>
</svg>
