<svg width="24" height="24" viewBox="0 0 24 24" fill="none" xmlns="http://www.w3.org/2000/svg">
  <path d="M16.766 7.44891C16.4864 6.97265 15.8736 6.81326 15.3973 7.09289C14.9211 7.37253 14.7617 7.9853 15.0413 8.46156C15.0564 8.48725 15.0713 8.51304 15.0861 8.53893C15.3596 9.01872 15.9703 9.18593 16.4501 8.91241C16.9299 8.63888 17.0971 8.0282 16.8236 7.5484C16.8046 7.5151 16.7854 7.48194 16.766 7.44891Z" fill="#282F35"/>
  <path d="M17.9998 11.9424C17.9963 11.3901 17.5458 10.9452 16.9936 10.9487C16.4413 10.9521 15.9964 11.4027 15.9999 11.9549L16 12L15.9999 12.0451C15.9964 12.5973 16.4413 13.0479 16.9936 13.0513C17.5458 13.0548 17.9963 12.6099 17.9998 12.0576L18 12L17.9998 11.9424Z" fill="#282F35"/>
  <path d="M16.8236 16.4516C17.0971 15.9718 16.9299 15.3611 16.4501 15.0876C15.9703 14.8141 15.3596 14.9813 15.0861 15.4611C15.0713 15.487 15.0564 15.5128 15.0413 15.5384C14.7617 16.0147 14.9211 16.6275 15.3973 16.9071C15.8736 17.1867 16.4864 17.0273 16.766 16.5511C16.7854 16.5181 16.8046 16.4849 16.8236 16.4516Z" fill="#282F35"/>
  <path fill-rule="evenodd" clip-rule="evenodd" d="M9 3L8.94237 3.00018C8.3901 3.00365 7.9452 3.45417 7.94867 4.00645C7.95215 4.55872 8.40267 5.00361 8.95494 5.00014L9 5L9.04506 5.00014C9.18568 5.00103 9.3197 4.97284 9.44143 4.92122C7.34586 6.56904 6 9.12735 6 12C6 14.8727 7.34586 17.431 9.44143 19.0788C9.3197 19.0272 9.18568 18.999 9.04506 18.9999L9 19L8.95494 18.9999C8.40267 18.9964 7.95215 19.4413 7.94868 19.9936C7.9452 20.5458 8.3901 20.9963 8.94237 20.9998L9 21L9.05763 20.9998C9.6099 20.9963 10.0548 20.5458 10.0513 19.9936C10.0498 19.7532 9.96366 19.5333 9.82131 19.3617C11.2858 20.3938 13.0721 21 15 21C19.9706 21 24 16.9706 24 12C24 7.02944 19.9706 3 15 3C13.0721 3 11.2858 3.60616 9.82131 4.6383C9.96366 4.46674 10.0498 4.24676 10.0513 4.00645C10.0548 3.45417 9.6099 3.00365 9.05763 3.00018L9 3ZM12.1325 5.61239C9.69633 6.70771 8 9.15576 8 12C8 14.8442 9.69633 17.2923 12.1325 18.3876C12.2152 18.2673 12.3257 18.1632 12.4611 18.0861C12.487 18.0713 12.5128 18.0564 12.5384 18.0413C13.0147 17.7617 13.6275 17.9211 13.9071 18.3973C14.0064 18.5665 14.0503 18.7528 14.0444 18.9353C14.3568 18.978 14.6758 19 15 19C18.866 19 22 15.866 22 12C22 8.13401 18.866 5 15 5C14.6758 5 14.3568 5.02203 14.0444 5.06469C14.0503 5.24721 14.0064 5.43355 13.9071 5.60267C13.6275 6.07893 13.0147 6.23832 12.5384 5.95869C12.5128 5.94361 12.487 5.92869 12.4611 5.91393C12.3257 5.83675 12.2152 5.73273 12.1325 5.61239Z" fill="#282F35"/>
  <path d="M5.53893 5.91393C6.01872 5.6404 6.18593 5.02972 5.91241 4.54992C5.63888 4.07013 5.0282 3.90291 4.5484 4.17644C4.5151 4.19542 4.48194 4.21461 4.44891 4.234C3.97265 4.51364 3.81326 5.12641 4.09289 5.60267C4.37253 6.07893 4.9853 6.23832 5.46156 5.95869C5.48725 5.94361 5.51304 5.92869 5.53893 5.91393Z" fill="#282F35"/>
  <path d="M2.95869 8.46156C3.23832 7.98531 3.07893 7.37253 2.60267 7.0929C2.12641 6.81326 1.51364 6.97265 1.234 7.44891C1.21461 7.48194 1.19542 7.51511 1.17644 7.5484C0.902912 8.0282 1.07013 8.63888 1.54992 8.91241C2.02971 9.18593 2.6404 9.01872 2.91393 8.53893C2.92869 8.51304 2.94361 8.48725 2.95869 8.46156Z" fill="#282F35"/>
  <path d="M2.00014 11.9549C2.00361 11.4027 1.55872 10.9521 1.00645 10.9487C0.454172 10.9452 0.0036521 11.3901 0.000181079 11.9424L0 12L0.000181079 12.0576C0.00365216 12.6099 0.454172 13.0548 1.00645 13.0513C1.55872 13.0479 2.00361 12.5973 2.00014 12.0451L2 12L2.00014 11.9549Z" fill="#282F35"/>
  <path d="M2.91393 15.4611C2.6404 14.9813 2.02972 14.8141 1.54992 15.0876C1.07013 15.3611 0.902913 15.9718 1.17644 16.4516C1.19542 16.4849 1.21461 16.5181 1.234 16.5511C1.51364 17.0273 2.12641 17.1867 2.60267 16.9071C3.07893 16.6275 3.23832 16.0147 2.95869 15.5384C2.94361 15.5128 2.92869 15.487 2.91393 15.4611Z" fill="#282F35"/>
  <path d="M5.46156 18.0413C4.98531 17.7617 4.37253 17.9211 4.0929 18.3973C3.81326 18.8736 3.97265 19.4864 4.44891 19.766C4.48194 19.7854 4.51511 19.8046 4.5484 19.8236C5.0282 20.0971 5.63888 19.9299 5.91241 19.4501C6.18593 18.9703 6.01872 18.3596 5.53893 18.0861C5.51304 18.0713 5.48725 18.0564 5.46156 18.0413Z" fill="#282F35"/>
</svg>