<svg width="24" height="24" viewBox="0 0 24 24" fill="none" xmlns="http://www.w3.org/2000/svg">
  <path d="M21 5C21 3.34315 19.6569 2 18 2H6C4.34315 2 3 3.34315 3 5V13C3 14.6569 4.34315 16 6 16H9V14H6C5.44772 14 5 13.5523 5 13L5 5C5 4.44771 5.44772 4 6 4L18 4C18.5523 4 19 4.44772 19 5V13C19 13.5523 18.5523 14 18 14H15V16H18C19.6569 16 21 14.6569 21 13V5Z" fill="#282F35"/>
  <path d="M16.2071 18.7071L12.7071 22.2071C12.5196 22.3947 12.2652 22.5 12 22.5C11.7348 22.5 11.4804 22.3947 11.2929 22.2071L7.79289 18.7071L9.20711 17.2929L11 19.0858V11H13V19.0858L14.7929 17.2929L16.2071 18.7071Z" fill="#282F35"/>
  <path d="M19 19H22V21H19C18.4477 21 18 21.4477 18 22H16C16 20.3431 17.3431 19 19 19Z" fill="#282F35"/>
  <path d="M2 21H5C5.55228 21 6 21.4477 6 22H8C8 20.3431 6.65685 19 5 19H2V21Z" fill="#282F35"/>
</svg>