<svg width="40" height="40" viewBox="0 0 40 40" fill="none" xmlns="http://www.w3.org/2000/svg">
  <path opacity="0.5" d="M20 37C29.3888 37 37 29.3888 37 20C37 10.6112 29.3888 3 20 3C10.6112 3 3 10.6112 3 20C3 29.3888 10.6112 37 20 37Z" fill="#D73D71"/>
  <path d="M27.4142 12.5858C28.1953 13.3669 28.1953 14.6332 27.4142 15.4143L22.8284 20.0001L27.4142 24.5858C28.1953 25.3669 28.1953 26.6332 27.4142 27.4143C26.6332 28.1953 25.3668 28.1953 24.5858 27.4143L20 22.8285L15.4142 27.4143C14.6332 28.1953 13.3668 28.1953 12.5858 27.4143C11.8047 26.6332 11.8047 25.3669 12.5858 24.5858L17.1716 20.0001L12.5858 15.4143C11.8047 14.6332 11.8047 13.3669 12.5858 12.5858C13.3668 11.8048 14.6332 11.8048 15.4142 12.5858L20 17.1716L24.5858 12.5858C25.3668 11.8048 26.6332 11.8048 27.4142 12.5858Z" fill="#D73D71"/>
  <path fill-rule="evenodd" clip-rule="evenodd" d="M20 2C10.0589 2 2 10.0589 2 20C2 29.9411 10.0589 38 20 38C29.9411 38 38 29.9411 38 20C38 10.0589 29.9411 2 20 2ZM4 20C4 11.1634 11.1634 4 20 4C28.8366 4 36 11.1634 36 20C36 28.8366 28.8366 36 20 36C11.1634 36 4 28.8366 4 20Z" fill="#D73D71"/>
</svg>