<svg width="24" height="24" viewBox="0 0 24 24" fill="none" xmlns="http://www.w3.org/2000/svg">
  <path d="M8.49316 16.0928V11.5576C8.49316 11.2178 8.43164 10.9248 8.30859 10.6787C8.18555 10.4326 7.99805 10.2422 7.74609 10.1074C7.5 9.97266 7.18945 9.90527 6.81445 9.90527C6.46875 9.90527 6.16992 9.96387 5.91797 10.0811C5.66602 10.1982 5.46973 10.3564 5.3291 10.5557C5.18848 10.7549 5.11816 10.9805 5.11816 11.2324H3.00879C3.00879 10.8574 3.09961 10.4941 3.28125 10.1426C3.46289 9.79102 3.72656 9.47754 4.07227 9.20215C4.41797 8.92676 4.83105 8.70996 5.31152 8.55176C5.79199 8.39355 6.33105 8.31445 6.92871 8.31445C7.64355 8.31445 8.27637 8.43457 8.82715 8.6748C9.38379 8.91504 9.82031 9.27832 10.1367 9.76465C10.459 10.2451 10.6201 10.8486 10.6201 11.5752V15.8027C10.6201 16.2363 10.6494 16.626 10.708 16.9717C10.7725 17.3115 10.8633 17.6074 10.9805 17.8594V18H8.80957C8.70996 17.7715 8.63086 17.4814 8.57227 17.1299C8.51953 16.7725 8.49316 16.4268 8.49316 16.0928ZM8.80078 12.2168L8.81836 13.5264H7.29785C6.90527 13.5264 6.55957 13.5645 6.26074 13.6406C5.96191 13.7109 5.71289 13.8164 5.51367 13.957C5.31445 14.0977 5.16504 14.2676 5.06543 14.4668C4.96582 14.666 4.91602 14.8916 4.91602 15.1436C4.91602 15.3955 4.97461 15.627 5.0918 15.8379C5.20898 16.043 5.37891 16.2041 5.60156 16.3213C5.83008 16.4385 6.10547 16.4971 6.42773 16.4971C6.86133 16.4971 7.23926 16.4092 7.56152 16.2334C7.88965 16.0518 8.14746 15.832 8.33496 15.5742C8.52246 15.3105 8.62207 15.0615 8.63379 14.8271L9.31934 15.7676C9.24902 16.0078 9.12891 16.2656 8.95898 16.541C8.78906 16.8164 8.56641 17.0801 8.29102 17.332C8.02148 17.5781 7.69629 17.7803 7.31543 17.9385C6.94043 18.0967 6.50684 18.1758 6.01465 18.1758C5.39355 18.1758 4.83984 18.0527 4.35352 17.8066C3.86719 17.5547 3.48633 17.2178 3.21094 16.7959C2.93555 16.3682 2.79785 15.8848 2.79785 15.3457C2.79785 14.8418 2.8916 14.3965 3.0791 14.0098C3.27246 13.6172 3.55371 13.2891 3.92285 13.0254C4.29785 12.7617 4.75488 12.5625 5.29395 12.4277C5.83301 12.2871 6.44824 12.2168 7.13965 12.2168H8.80078Z" fill="#282F35"/>
  <path d="M18.9258 8.49023H20.8506V17.7363C20.8506 18.5918 20.6689 19.3184 20.3057 19.916C19.9424 20.5137 19.4355 20.9678 18.7852 21.2783C18.1348 21.5947 17.3818 21.7529 16.5264 21.7529C16.1631 21.7529 15.7588 21.7002 15.3135 21.5947C14.874 21.4893 14.4463 21.3193 14.0303 21.085C13.6201 20.8564 13.2773 20.5547 13.002 20.1797L13.9951 18.9316C14.335 19.3359 14.71 19.6318 15.1201 19.8193C15.5303 20.0068 15.9609 20.1006 16.4121 20.1006C16.8984 20.1006 17.3115 20.0098 17.6514 19.8281C17.9971 19.6523 18.2637 19.3916 18.4512 19.0459C18.6387 18.7002 18.7324 18.2783 18.7324 17.7803V10.6436L18.9258 8.49023ZM12.4658 13.3506V13.166C12.4658 12.4453 12.5537 11.7891 12.7295 11.1973C12.9053 10.5996 13.1572 10.0869 13.4854 9.65918C13.8135 9.22559 14.2119 8.89453 14.6807 8.66602C15.1494 8.43164 15.6797 8.31445 16.2715 8.31445C16.8867 8.31445 17.4111 8.42578 17.8447 8.64844C18.2842 8.87109 18.6504 9.19043 18.9434 9.60645C19.2363 10.0166 19.4648 10.5088 19.6289 11.083C19.7988 11.6514 19.9248 12.2842 20.0068 12.9814V13.5703C19.9307 14.25 19.8018 14.8711 19.6201 15.4336C19.4385 15.9961 19.1982 16.4824 18.8994 16.8926C18.6006 17.3027 18.2314 17.6191 17.792 17.8418C17.3584 18.0645 16.8457 18.1758 16.2539 18.1758C15.6738 18.1758 15.1494 18.0557 14.6807 17.8154C14.2178 17.5752 13.8193 17.2383 13.4854 16.8047C13.1572 16.3711 12.9053 15.8613 12.7295 15.2754C12.5537 14.6836 12.4658 14.042 12.4658 13.3506ZM14.584 13.166V13.3506C14.584 13.7842 14.625 14.1885 14.707 14.5635C14.7949 14.9385 14.9268 15.2695 15.1025 15.5566C15.2842 15.8379 15.5127 16.0605 15.7881 16.2246C16.0693 16.3828 16.4004 16.4619 16.7812 16.4619C17.2793 16.4619 17.6865 16.3564 18.0029 16.1455C18.3252 15.9346 18.5713 15.6504 18.7412 15.293C18.917 14.9297 19.04 14.5254 19.1104 14.0801V12.4893C19.0752 12.1436 19.002 11.8213 18.8906 11.5225C18.7852 11.2236 18.6416 10.9629 18.46 10.7402C18.2783 10.5117 18.0498 10.3359 17.7744 10.2129C17.499 10.084 17.1738 10.0195 16.7988 10.0195C16.418 10.0195 16.0869 10.1016 15.8057 10.2656C15.5244 10.4297 15.293 10.6553 15.1113 10.9424C14.9355 11.2295 14.8037 11.5635 14.7158 11.9443C14.6279 12.3252 14.584 12.7324 14.584 13.166Z" fill="#282F35"/>
</svg>