<svg width="24" height="24" viewBox="0 0 24 24" fill="none" xmlns="http://www.w3.org/2000/svg">
  <path d="M13 6.5C13 5.94772 12.5523 5.5 12 5.5C11.4477 5.5 11 5.94772 11 6.5V11.9999C11 12.2651 11.1053 12.5194 11.2929 12.707L13.7929 15.2071C14.1834 15.5977 14.8165 15.5977 15.2071 15.2072C15.5976 14.8167 15.5976 14.1835 15.2071 13.793L13 11.5857V6.5Z" fill="#282F35"/>
  <path fill-rule="evenodd" clip-rule="evenodd" d="M22 12C22 17.5228 17.5228 22 12 22C6.47715 22 2 17.5228 2 12C2 6.47715 6.47715 2 12 2C17.5228 2 22 6.47715 22 12ZM20 12C20 16.4183 16.4183 20 12 20C7.58172 20 4 16.4183 4 12C4 7.58172 7.58172 4 12 4C16.4183 4 20 7.58172 20 12Z" fill="#282F35"/>
</svg>