<svg width="24" height="24" viewBox="0 0 24 24" fill="none" xmlns="http://www.w3.org/2000/svg">
  <path d="M9 6.80269C9.88252 6.29218 10.9071 6 12 6V9H9V6.80269Z" fill="#282F35"/>
  <path d="M6.80269 9H9V12H6C6 10.9071 6.29218 9.88252 6.80269 9Z" fill="#282F35"/>
  <path d="M9 17.1973C8.08912 16.6704 7.32961 15.9109 6.80269 15H9V17.1973Z" fill="#282F35"/>
  <path d="M15 17.1973C14.1175 17.7078 13.0929 18 12 18V15H15V17.1973Z" fill="#282F35"/>
  <path d="M17.1973 15H15V12H18C18 13.0929 17.7078 14.1175 17.1973 15Z" fill="#282F35"/>
  <path d="M17.1973 9C16.6704 8.08912 15.9109 7.32961 15 6.80269V9H12V12H9V15H12V12H15V9H17.1973Z" fill="#282F35"/>
  <path fill-rule="evenodd" clip-rule="evenodd" d="M12 20C16.4183 20 20 16.4183 20 12C20 7.58172 16.4183 4 12 4C7.58172 4 4 7.58172 4 12C4 16.4183 7.58172 20 12 20ZM12 22C17.5228 22 22 17.5228 22 12C22 6.47715 17.5228 2 12 2C6.47715 2 2 6.47715 2 12C2 17.5228 6.47715 22 12 22Z" fill="#282F35"/>
</svg>