<svg width="24" height="24" viewBox="0 0 24 24" fill="none" xmlns="http://www.w3.org/2000/svg">
  <path fill-rule="evenodd" clip-rule="evenodd" d="M18.8839 5.1166C19.372 5.60476 19.372 6.39622 18.8839 6.88437L13.7678 12.0005L18.8839 17.1166C19.372 17.6048 19.372 18.3962 18.8839 18.8844C18.3957 19.3725 17.6043 19.3725 17.1161 18.8844L12 13.7683L6.88388 18.8844C6.39573 19.3725 5.60427 19.3725 5.11612 18.8844C4.62796 18.3962 4.62796 17.6048 5.11612 17.1166L10.2322 12.0005L5.11612 6.88437C4.62796 6.39622 4.62796 5.60476 5.11612 5.1166C5.60427 4.62845 6.39573 4.62845 6.88388 5.1166L12 10.2327L17.1161 5.1166C17.6043 4.62845 18.3957 4.62845 18.8839 5.1166Z" fill="#282F35"/>
</svg>