<svg width="24" height="24" viewBox="0 0 24 24" fill="none" xmlns="http://www.w3.org/2000/svg">
  <path d="M12.9048 4.69649C13.2664 4.42262 13.5 3.98859 13.5 3.5C13.5 2.67157 12.8284 2 12 2C11.1716 2 10.5 2.67157 10.5 3.5C10.5 3.98859 10.7336 4.42262 11.0952 4.69649L8.24444 10.0417C8.11097 10.2919 7.79631 10.3812 7.55133 10.2383L3.87732 8.0951C3.95625 7.91266 4 7.71144 4 7.5C4 6.67157 3.32843 6 2.5 6C1.67157 6 1 6.67157 1 7.5C1 8.32843 1.67157 9 2.5 9C2.54374 9 2.58704 8.99813 2.62983 8.99446L4.7793 15.8011C4.91068 16.2172 5.29661 16.5 5.73289 16.5H18.2671C18.7034 16.5 19.0893 16.2172 19.2207 15.8011L21.3702 8.99446C21.413 8.99813 21.4563 9 21.5 9C22.3284 9 23 8.32843 23 7.5C23 6.67157 22.3284 6 21.5 6C20.6716 6 20 6.67157 20 7.5C20 7.71144 20.0437 7.91266 20.1227 8.0951L16.4487 10.2383C16.2037 10.3812 15.889 10.2919 15.7556 10.0417L12.9048 4.69649Z" fill="#282F35"/>
  <path d="M5.19407 19.1644C5.09248 18.5549 5.56252 18 6.18046 18H17.8195C18.4375 18 18.9075 18.5549 18.8059 19.1644L18.7089 19.7466C18.5884 20.4699 17.9626 21 17.2293 21H6.77069C6.03743 21 5.41165 20.4699 5.2911 19.7466L5.19407 19.1644Z" fill="#282F35"/>
</svg>