<svg width="24" height="24" viewBox="0 0 24 24" fill="none" xmlns="http://www.w3.org/2000/svg">
  <path d="M11.5803 8.63645L11.2631 10.5257H5.13672L5.45384 8.63645H11.5803ZM5.25142 19.0001L7.14737 7.65811C7.25533 6.96091 7.49148 6.38065 7.85582 5.91735C8.22467 5.45404 8.67223 5.10769 9.19851 4.87829C9.72929 4.64888 10.2938 4.53418 10.892 4.53418C11.3194 4.53418 11.6905 4.56792 12.0053 4.63539C12.3202 4.70286 12.5496 4.76358 12.6935 4.81756L11.9041 6.70677C11.8007 6.67528 11.6747 6.64379 11.5263 6.6123C11.3823 6.57632 11.2137 6.55833 11.0202 6.55833C10.5659 6.55833 10.2263 6.66853 10.0014 6.88894C9.77652 7.10485 9.62808 7.41522 9.55611 7.82005L7.70064 19.0001H5.25142Z" fill="#282F35"/>
  <path d="M13.222 8.63645L14.6794 12.4621L17.439 8.63645H20.0232L16.0356 13.8183L18.3499 19.0001H15.7792L14.2071 15.2689L11.4138 19.0001H8.82289L12.8442 13.8183L10.6311 8.63645H13.222Z" fill="#282F35"/>
</svg>