<svg width="80" height="80" viewBox="0 0 80 80" fill="none" xmlns="http://www.w3.org/2000/svg">
  <g opacity="0.55">
  <path opacity="0.75" d="M58.3002 16.5V13.3C58.3002 11.7 56.8002 10.5 55.3002 10.9L14.2002 19.4C11.9002 19.9 10.2002 21.9 10.2002 24.3V64C10.2002 66.5 12.2002 68.6 14.8002 68.6C17.3002 68.6 19.4002 66.6 19.4002 64V35.4C19.4002 33.1 21.0002 31.1 23.2002 30.5L39.5002 26.4V22.3C39.5002 21.1 40.3002 20.1 41.5002 19.9L61.4002 15.8C62.9002 15.5 64.4002 16.7 64.4002 18.2V52C64.4002 54.3 62.8002 56.3 60.6002 56.9L16.4002 68.3" stroke="#282F35" stroke-miterlimit="10" stroke-linejoin="round"/>
  <path opacity="0.25" d="M55.4285 11.383C56.5905 11.0731 57.7997 12.0067 57.7997 13.2999V16.0321L41.4086 19.4082C39.9606 19.6538 38.9997 20.8706 38.9997 22.2999V26.0101L23.0777 30.015L23.0681 30.0175C20.6602 30.6742 18.8997 32.8646 18.8997 35.3999V63.9999C18.8997 66.3167 17.0307 68.0999 14.7997 68.0999C12.4829 68.0999 10.6997 66.2308 10.6997 63.9999V24.2999C10.6997 22.1462 12.2244 20.3421 14.3035 19.889L14.3059 19.8885L55.401 11.3895C55.4102 11.3876 55.4194 11.3854 55.4285 11.383Z" fill="#282F35"/>
  <path fill-rule="evenodd" clip-rule="evenodd" d="M59.7002 43.9L47.4002 47C46.8002 47.2 46.2002 46.7 46.2002 46V41.8C46.2002 41.3 46.5002 40.9 47.0002 40.8L59.3002 37.7C59.9002 37.5 60.5002 38 60.5002 38.7V42.9C60.5002 43.4 60.2002 43.8 59.7002 43.9Z" fill="#282F35"/>
  <path fill-rule="evenodd" clip-rule="evenodd" d="M46.4004 52.5V51.4001L58.9004 48.3V49.3L46.4004 52.5Z" fill="#282F35"/>
  <path fill-rule="evenodd" clip-rule="evenodd" d="M58.9004 47.1L46.4004 50.3V49.2L58.9004 46V47.1Z" fill="#282F35"/>
  </g>
</svg>