<svg width="40" height="40" viewBox="0 0 40 40" fill="none" xmlns="http://www.w3.org/2000/svg">
  <path opacity="0.5" d="M13.376 4H26.624L36 13.376V26.624L26.624 36H13.376L4 26.624V13.376L13.376 4Z" fill="#D73D71"/>
  <path d="M20 11C21.1046 11 22 11.8954 22 13V19.6667C22 20.7712 21.1046 21.6667 20 21.6667C18.8954 21.6667 18 20.7712 18 19.6667V13C18 11.8954 18.8954 11 20 11Z" fill="#D73D71"/>
  <path d="M20 24.333C18.8954 24.333 18 25.2284 18 26.333C18 27.4376 18.8954 28.333 20 28.333H20.015C21.1196 28.333 22.015 27.4376 22.015 26.333C22.015 25.2284 21.1196 24.333 20.015 24.333H20Z" fill="#D73D71"/>
  <path fill-rule="evenodd" clip-rule="evenodd" d="M12.6689 3.29289C12.8564 3.10536 13.1108 3 13.376 3H26.624C26.8892 3 27.1436 3.10536 27.3311 3.29289L36.7071 12.6689C36.8946 12.8564 37 13.1108 37 13.376V26.624C37 26.8892 36.8946 27.1436 36.7071 27.3311L27.3311 36.7071C27.1436 36.8946 26.8892 37 26.624 37H13.376C13.1108 37 12.8564 36.8946 12.6689 36.7071L3.29289 27.3311C3.10536 27.1436 3 26.8892 3 26.624V13.376C3 13.1108 3.10536 12.8564 3.29289 12.6689L12.6689 3.29289ZM13.7902 5L5 13.7902V26.2098L13.7902 35H26.2098L35 26.2098V13.7902L26.2098 5H13.7902Z" fill="#D73D71"/>
</svg>