<svg width="24" height="24" viewBox="0 0 24 24" fill="none" xmlns="http://www.w3.org/2000/svg">
  <path d="M8.64494 14H15.3551C15.4494 14.3169 15.5 14.6525 15.5 15C15.5 16.933 13.933 18.5 12 18.5C10.067 18.5 8.5 16.933 8.5 15C8.5 14.6525 8.55064 14.3169 8.64494 14Z" fill="#282F35"/>
  <path fill-rule="evenodd" clip-rule="evenodd" d="M16 5H18V3H6V5H8V9.25469C6.18652 10.5196 5 12.6213 5 15C5 18.866 8.13401 22 12 22C15.866 22 19 18.866 19 15C19 12.6213 17.8135 10.5196 16 9.25469V5ZM14 5H10V10.416C8.2341 11.1876 7 12.9497 7 15C7 17.7614 9.23858 20 12 20C14.7614 20 17 17.7614 17 15C17 12.9497 15.7659 11.1876 14 10.416V5Z" fill="#282F35"/>
</svg>