<svg width="24" height="24" viewBox="0 0 24 24" fill="none" xmlns="http://www.w3.org/2000/svg">
  <path d="M4 11L6 11L6 7C6 6.44772 6.44772 6 7 6L11 6V4H7C5.34315 4 4 5.34315 4 7V11Z" fill="#282F35"/>
  <path d="M13 20V18H17C17.5523 18 18 17.5523 18 17L18 13L20 13L20 17C20 18.6568 18.6568 20 17 20H13Z" fill="#282F35"/>
  <path d="M20.9996 10V4C20.9996 3.73478 20.8942 3.48043 20.7067 3.29289C20.5192 3.10536 20.2648 3 19.9996 3H13.9996L13.9996 5L17.5855 5L13.7923 8.79286L15.2064 10.2071L18.9996 6.41431V10H20.9996Z" fill="#282F35"/>
  <path d="M3 14V20C3 20.2652 3.10536 20.5196 3.29289 20.7071C3.48043 20.8946 3.73478 21 4 21H10L10 19L6.41412 19L10.2073 15.2071L8.79317 13.7929L5 17.5857L5 14H3Z" fill="#282F35"/>
</svg>