<svg width="40" height="40" viewBox="0 0 40 40" fill="none" xmlns="http://www.w3.org/2000/svg">
  <path opacity="0.5" d="M20 37C29.3888 37 37 29.3888 37 20C37 10.6112 29.3888 3 20 3C10.6112 3 3 10.6112 3 20C3 29.3888 10.6112 37 20 37Z" fill="#282F35"/>
  <path d="M20 18C21.1046 18 22 18.8954 22 20V26.6667C22 27.7712 21.1046 28.6667 20 28.6667C18.8954 28.6667 18 27.7712 18 26.6667V20C18 18.8954 18.8954 18 20 18Z" fill="#282F35"/>
  <path d="M20 11.3333C18.8954 11.3333 18 12.2287 18 13.3333C18 14.4379 18.8954 15.3333 20 15.3333H20.0167C21.1212 15.3333 22.0167 14.4379 22.0167 13.3333C22.0167 12.2287 21.1212 11.3333 20.0167 11.3333H20Z" fill="#282F35"/>
  <path fill-rule="evenodd" clip-rule="evenodd" d="M2 20C2 10.0589 10.0589 2 20 2C29.9411 2 38 10.0589 38 20C38 29.9411 29.9411 38 20 38C10.0589 38 2 29.9411 2 20ZM20 4C11.1634 4 4 11.1634 4 20C4 28.8366 11.1634 36 20 36C28.8366 36 36 28.8366 36 20C36 11.1634 28.8366 4 20 4Z" fill="#282F35"/>
</svg>