<svg width="24" height="24" viewBox="0 0 24 24" fill="none" xmlns="http://www.w3.org/2000/svg">
  <path d="M16.2072 5.29292L12.7072 1.7929C12.5197 1.60536 12.2653 1.5 12.0001 1.5C11.7349 1.5 11.4805 1.60536 11.293 1.7929L7.79297 5.29292L9.20719 6.70713L11 4.91431L11 11H4.91431L6.70713 9.20719L5.29292 7.79297L1.7929 11.293C1.60536 11.4805 1.5 11.7349 1.5 12.0001C1.5 12.2653 1.60536 12.5197 1.7929 12.7072L5.29292 16.2072L6.70713 14.793L4.91415 13H11V19.0857L9.20719 17.2929L7.79297 18.7071L11.293 22.2071C11.4805 22.3946 11.7349 22.5 12.0001 22.5C12.2653 22.5 12.5197 22.3946 12.7072 22.2071L16.2072 18.7071L14.793 17.2929L13 19.0859V13L19.0859 13L17.2929 14.793L18.7071 16.2072L22.2071 12.7072C22.3947 12.5197 22.5 12.2653 22.5 12.0001C22.5 11.7349 22.3947 11.4805 22.2071 11.293L18.7071 7.793L17.2929 9.20722L19.0857 11L13 11L13 4.91415L14.793 6.70713L16.2072 5.29292Z" fill="#282F35"/>
</svg>