<svg width="80" height="80" viewBox="0 0 80 80" fill="none" xmlns="http://www.w3.org/2000/svg">
  <g opacity="0.55">
  <path opacity="0.75" fill-rule="evenodd" clip-rule="evenodd" d="M10 13V67H11V13H10ZM13 11H67V10H13V11ZM69 67V13H70V67H69ZM13 70H67V69H13V70Z" fill="#282F35"/>
  <rect x="67" y="67" width="5" height="5" rx="1" fill="#282F35"/>
  <rect x="8" y="67" width="5" height="5" rx="1" fill="#282F35"/>
  <rect x="67" y="8" width="5" height="5" rx="1" fill="#282F35"/>
  <rect x="8" y="8" width="5" height="5" rx="1" fill="#282F35"/>
  <circle opacity="0.75" cx="27" cy="48" r="10.5" stroke="#282F35"/>
  <path opacity="0.25" d="M37 48C37 53.5228 32.5228 58 27 58C21.4772 58 17 53.5228 17 48C17 42.4772 21.4772 38 27 38C32.5228 38 37 42.4772 37 48Z" fill="#282F35"/>
  <path opacity="0.25" d="M47 45H59C60.6569 45 62 46.3431 62 48V60C62 61.6569 60.6569 63 59 63H47C45.3431 63 44 61.6569 44 60V48C44 46.3431 45.3431 45 47 45Z" fill="#282F35"/>
  <rect opacity="0.75" x="43.5" y="44.5" width="19" height="19" rx="3.5" stroke="#282F35" stroke-linecap="round" stroke-linejoin="round"/>
  <path opacity="0.25" d="M48.8779 17.6979L57.5088 33.5213C57.8723 34.1876 57.39 35.0001 56.6309 35.0001H39.3691C38.61 35.0001 38.1277 34.1876 38.4912 33.5213L47.1221 17.6979C47.5011 17.003 48.4989 17.003 48.8779 17.6979Z" fill="#282F35"/>
  <path opacity="0.75" d="M46.6832 17.4584C47.2517 16.4161 48.7483 16.4161 49.3168 17.4584L57.9478 33.2817C58.493 34.2813 57.7695 35.5 56.6309 35.5H39.3691C38.2305 35.5 37.507 34.2813 38.0522 33.2817L46.6832 17.4584Z" stroke="#282F35"/>
  </g>
</svg>