<svg width="24" height="24" viewBox="0 0 24 24" fill="none" xmlns="http://www.w3.org/2000/svg">
  <path d="M7.41417 3H5.75C4.23122 3 3 4.23122 3 5.75V7.41417L7.41417 3Z" fill="black"/>
  <path d="M3 13.4145V10.5861L10.5861 3H13.4145L3 13.4145Z" fill="black"/>
  <path d="M3.18106 19.2334C3.06409 18.9281 3 18.5965 3 18.25V16.5861L16.5861 3H18.25C18.5965 3 18.9281 3.06409 19.2334 3.18106L3.18106 19.2334Z" fill="black"/>
  <path d="M7.41449 21H5.75C5.40364 21 5.07223 20.936 4.76697 20.8191L20.8191 4.76697C20.936 5.07223 21 5.40364 21 5.75V7.41449L7.41449 21Z" fill="black"/>
  <path d="M13.4145 21H10.5861L21 10.5861V13.4145L13.4145 21Z" fill="black"/>
  <path d="M21 16.5861V18.25C21 19.7688 19.7688 21 18.25 21H16.5861L21 16.5861Z" fill="black"/>
</svg>