<svg width="24" height="24" viewBox="0 0 24 24" fill="none" xmlns="http://www.w3.org/2000/svg">
  <path d="M6 6C3.79086 6 2 7.79086 2 10V14C2 16.2091 3.79088 18 5.99999 18L6.00001 16C4.89544 16 4 15.1045 4 14V10C4 8.89543 4.89543 8 6 8H18C19.1046 8 20 8.89543 20 10V14C20 15.1046 19.1046 16 18 16H12.9144L15.2071 13.7073L13.7929 12.293L9.79287 16.293C9.60533 16.4806 9.49997 16.7349 9.49997 17.0002C9.49997 17.2654 9.60533 17.5197 9.79287 17.7073L13.7929 21.7073L15.2071 20.293L12.914 18H18C20.2091 18 22 16.2091 22 14V10C22 7.79086 20.2091 6 18 6H6Z" fill="#282F35"/>
</svg>