<svg width="24" height="24" viewBox="0 0 24 24" fill="none" xmlns="http://www.w3.org/2000/svg">
  <path d="M3.29289 7.70719L7.79293 12.2072L9.20713 10.793L6.41424 8.00009H13C15.7614 8.00009 18 10.2387 18 13.0001C18 15.7615 15.7614 18.0001 13 18.0001C11.619 18.0001 10.3704 17.4415 9.46447 16.5356L8.05025 17.9498C9.31591 19.2155 11.0673 20.0001 13 20.0001C16.866 20.0001 20 16.8661 20 13.0001C20 9.1341 16.866 6.00009 13 6.00009H6.41421L9.20713 3.20719L7.79293 1.79297L3.29289 6.29297C3.10536 6.48051 3 6.73486 3 7.00008C3 7.2653 3.10536 7.51965 3.29289 7.70719Z" fill="#282F35"/>
</svg>