<svg width="24" height="24" viewBox="0 0 24 24" fill="none" xmlns="http://www.w3.org/2000/svg">
  <path d="M7 9V16C7 16.5523 7.44772 17 8 17H15V19H8C6.34315 19 5 17.6569 5 16V9H7Z" fill="#282F35"/>
  <path d="M4 15V19C4 19.5523 4.44772 20 5 20H9V22H5C3.34315 22 2 20.6569 2 19V15H4Z" fill="#282F35"/>
  <path fill-rule="evenodd" clip-rule="evenodd" d="M8 5C8 3.34315 9.34315 2 11 2H19C20.6569 2 22 3.34315 22 5V13C22 14.6569 20.6569 16 19 16H11C9.34315 16 8 14.6569 8 13V5ZM11 4C10.4477 4 10 4.44772 10 5V13C10 13.5523 10.4477 14 11 14H19C19.5523 14 20 13.5523 20 13V5C20 4.44772 19.5523 4 19 4H11Z" fill="#282F35"/>
</svg>