<svg width="24" height="24" viewBox="0 0 24 24" fill="none" xmlns="http://www.w3.org/2000/svg">
  <path d="M3.75 6.48973C3.66757 6.49653 3.58419 6.5 3.5 6.5C3.05389 6.5 2.63053 6.40263 2.25 6.22798V17.772C2.63053 17.5974 3.05389 17.5 3.5 17.5C3.58419 17.5 3.66757 17.5035 3.75 17.5103V6.48973Z" fill="#282F35"/>
  <path d="M6.48973 3.75H17.5103C17.5035 3.66757 17.5 3.58419 17.5 3.5C17.5 3.05389 17.5974 2.63053 17.772 2.25H6.22798C6.40263 2.63053 6.5 3.05389 6.5 3.5C6.5 3.58419 6.49653 3.66757 6.48973 3.75Z" fill="#282F35"/>
  <path d="M21.75 6.22798C21.3695 6.40263 20.9461 6.5 20.5 6.5C20.4158 6.5 20.3324 6.49653 20.25 6.48973V17.5103C20.3324 17.5035 20.4158 17.5 20.5 17.5C20.9461 17.5 21.3695 17.5974 21.75 17.772V6.22798Z" fill="#282F35"/>
  <path d="M17.772 21.75C17.5974 21.3695 17.5 20.9461 17.5 20.5C17.5 20.4158 17.5035 20.3324 17.5103 20.25H6.48973C6.49653 20.3324 6.5 20.4158 6.5 20.5C6.5 20.9461 6.40263 21.3695 6.22798 21.75H17.772Z" fill="#282F35"/>
  <path d="M3.5 5C4.32843 5 5 4.32843 5 3.5C5 2.67157 4.32843 2 3.5 2C2.67157 2 2 2.67157 2 3.5C2 4.32843 2.67157 5 3.5 5Z" fill="#282F35"/>
  <path d="M3.5 22C4.32843 22 5 21.3284 5 20.5C5 19.6716 4.32843 19 3.5 19C2.67157 19 2 19.6716 2 20.5C2 21.3284 2.67157 22 3.5 22Z" fill="#282F35"/>
  <path d="M22 3.5C22 4.32843 21.3284 5 20.5 5C19.6716 5 19 4.32843 19 3.5C19 2.67157 19.6716 2 20.5 2C21.3284 2 22 2.67157 22 3.5Z" fill="#282F35"/>
  <path d="M20.5 22C21.3284 22 22 21.3284 22 20.5C22 19.6716 21.3284 19 20.5 19C19.6716 19 19 19.6716 19 20.5C19 21.3284 19.6716 22 20.5 22Z" fill="#282F35"/>
</svg>