<svg width="24" height="24" viewBox="0 0 24 24" fill="none" xmlns="http://www.w3.org/2000/svg">
  <path d="M9 6H6C4.34315 6 3 7.34315 3 9V18C3 19.6569 4.34315 21 6 21H15C16.6569 21 18 19.6569 18 18V15H16V18C16 18.5523 15.5523 19 15 19H6C5.44772 19 5 18.5523 5 18V9C5 8.44772 5.44772 8 6 8H9V6Z" fill="#282F35"/>
  <path d="M21.2071 7.29297L17.207 3.29297L15.7928 4.7072L18.0858 7.00016L15 7.00017C12.2386 7.00017 10 9.23874 10 12.0002L10 15.0002H12L12 12.0002C12 10.3433 13.3431 9.00017 15 9.00017L18.0857 9.00016L15.7928 11.293L17.207 12.7072L21.2071 8.7072C21.3946 8.51966 21.5 8.2653 21.5 8.00008C21.5 7.73486 21.3946 7.48051 21.2071 7.29297Z" fill="#282F35"/>
</svg>