<svg width="24" height="24" viewBox="0 0 24 24" fill="none" xmlns="http://www.w3.org/2000/svg">
  <path fill-rule="evenodd" clip-rule="evenodd" d="M12 22H12.8284L22 12.8284V12C22 8.8892 21.5073 6.17891 19.6642 4.33579C17.8211 2.49266 15.1108 2 12 2C8.8892 2 6.17891 2.49266 4.33579 4.33579C2.49266 6.17891 2 8.8892 2 12C2 15.1108 2.49266 17.8211 4.33579 19.6642C6.17891 21.5073 8.8892 22 12 22ZM12 20C12 19.1476 12.0872 18.3533 12.2566 17.622C12.9116 14.7955 14.7955 12.9116 17.622 12.2566C18.3533 12.0872 19.1476 12 20 12C20 6 18 4 12 4C6 4 4 6 4 12C4 18 6 20 12 20Z" fill="#282F35"/>
  <path d="M14.5 10C13.6716 10 13 9.32843 13 8.5C13 7.67157 13.6716 7 14.5 7C15.3284 7 16 7.67157 16 8.5C16 9.32843 15.3284 10 14.5 10Z" fill="#282F35"/>
  <path d="M13.5983 14.7213C13.0915 15.3716 12.6987 16.1299 12.4294 16.9868C11.5194 17.0429 10.5907 16.9201 9.76847 16.6198C8.31834 16.0901 7.00021 14.9057 7 13.0002L9 12.9999C9.00009 13.7889 9.49722 14.3915 10.4546 14.7412C11.4201 15.0938 12.6491 15.085 13.5983 14.7213Z" fill="#282F35"/>
  <path d="M8 8.5C8 9.32843 8.67157 10 9.5 10C10.3284 10 11 9.32843 11 8.5C11 7.67157 10.3284 7 9.5 7C8.67157 7 8 7.67157 8 8.5Z" fill="#282F35"/>
</svg>