<svg width="24" height="24" viewBox="0 0 24 24" fill="none" xmlns="http://www.w3.org/2000/svg">
  <path d="M5 11H1V13H5V11Z" fill="#282F35"/>
  <path d="M11 11H7V13H11V11Z" fill="#282F35"/>
  <path d="M13 11H17V13H13V11Z" fill="#282F35"/>
  <path d="M23 11H19V13H23V11Z" fill="#282F35"/>
  <path d="M18.5458 5.49673C19.2305 5.64342 19.6611 6.32375 19.5007 7.00529L19.0314 9H21.086L21.4476 7.46337C21.8645 5.69138 20.7448 3.92252 18.9649 3.54112L9.12576 1.43289C7.52854 1.09065 5.95105 2.08918 5.57695 3.67925L4.32513 9H6.37974L7.5238 4.13728C7.6485 3.60726 8.17432 3.27442 8.70673 3.3885L18.5458 5.49673Z" fill="#282F35"/>
  <path d="M4.96811 15H2.9135L2.552 16.5365C2.13511 18.3085 3.25475 20.0773 5.0347 20.4587L14.6339 22.5155C16.3642 22.8863 18.0732 21.8046 18.4785 20.082L19.6742 15H17.6196L16.5316 19.624C16.3757 20.2865 15.7185 20.7025 15.053 20.5599L5.45373 18.5031C4.76913 18.3564 4.3385 17.6761 4.49885 16.9945L4.96811 15Z" fill="#282F35"/>
</svg>