<svg width="40" height="40" viewBox="0 0 40 40" fill="none" xmlns="http://www.w3.org/2000/svg">
  <path opacity="0.5" d="M20 37C29.3888 37 37 29.3888 37 20C37 10.6112 29.3888 3 20 3C10.6112 3 3 10.6112 3 20C3 29.3888 10.6112 37 20 37Z" fill="#009873"/>
  <path d="M28.5787 15.2279C29.2568 14.356 29.0998 13.0994 28.2279 12.4213C27.356 11.7432 26.0994 11.9002 25.4213 12.7721L17.311 23.1997L14.2216 20.8164C13.347 20.1418 12.0911 20.3038 11.4164 21.1784C10.7418 22.053 10.9038 23.3089 11.7784 23.9836L18.0224 28.8003L28.5787 15.2279Z" fill="#009873"/>
  <path fill-rule="evenodd" clip-rule="evenodd" d="M20 2C10.0589 2 2 10.0589 2 20C2 29.9411 10.0589 38 20 38C29.9411 38 38 29.9411 38 20C38 10.0589 29.9411 2 20 2ZM4 20C4 11.1634 11.1634 4 20 4C28.8366 4 36 11.1634 36 20C36 28.8366 28.8366 36 20 36C11.1634 36 4 28.8366 4 20Z" fill="#009873"/>
</svg>