<svg width="24" height="24" viewBox="0 0 24 24" fill="none" xmlns="http://www.w3.org/2000/svg">
  <path fill-rule="evenodd" clip-rule="evenodd" d="M4 2C2.89543 2 2 2.89543 2 4V6C2 7.10457 2.89543 8 4 8H6C7.10457 8 8 7.10457 8 6V4C8 2.89543 7.10457 2 6 2H4ZM4 4H6V6H4V4Z" fill="#282F35"/>
  <path fill-rule="evenodd" clip-rule="evenodd" d="M18 2C16.8954 2 16 2.89543 16 4V6C16 7.10457 16.8954 8 18 8H20C21.1046 8 22 7.10457 22 6V4C22 2.89543 21.1046 2 20 2H18ZM18 4H20V6H18V4Z" fill="#282F35"/>
  <path fill-rule="evenodd" clip-rule="evenodd" d="M16 18C16 16.8954 16.8954 16 18 16H20C21.1046 16 22 16.8954 22 18V20C22 21.1046 21.1046 22 20 22H18C16.8954 22 16 21.1046 16 20V18ZM20 18H18V20H20V18Z" fill="#282F35"/>
  <path fill-rule="evenodd" clip-rule="evenodd" d="M4 16C2.89543 16 2 16.8954 2 18V20C2 21.1046 2.89543 22 4 22H6C7.10457 22 8 21.1046 8 20V18C8 16.8954 7.10457 16 6 16H4ZM4 18H6V20H4V18Z" fill="#282F35"/>
  <path d="M16 4H8V6H16V4Z" fill="#282F35"/>
  <path d="M16 18H8V20H16V18Z" fill="#282F35"/>
  <path d="M4 8H6V16H4V8Z" fill="#282F35"/>
  <path d="M20 8H18V16H20V8Z" fill="#282F35"/>
</svg>