<svg width="24" height="24" viewBox="0 0 24 24" fill="none" xmlns="http://www.w3.org/2000/svg">
  <path d="M11 10H9V17H11V10Z" fill="#282F35"/>
  <path d="M15 10V17H13V10H15Z" fill="#282F35"/>
  <path fill-rule="evenodd" clip-rule="evenodd" d="M11 2C9.34315 2 8 3.34315 8 5V6H3V8H5V19C5 20.6569 6.34315 22 8 22H16C17.6569 22 19 20.6569 19 19V8H21V6H16V5C16 3.34315 14.6569 2 13 2H11ZM14 6V5C14 4.44772 13.5523 4 13 4H11C10.4477 4 10 4.44772 10 5V6H14ZM7 8V19C7 19.5523 7.44772 20 8 20H16C16.5523 20 17 19.5523 17 19V8H7Z" fill="#282F35"/>
</svg>