<svg width="24" height="24" viewBox="0 0 24 24" fill="none" xmlns="http://www.w3.org/2000/svg">
  <path d="M12.2324 21.2959C12.5488 21.5771 12.9824 21.7178 13.5332 21.7178C14.9395 21.7178 16.0352 20.7949 16.8203 18.9492C17.316 17.7805 17.9302 15.464 18.6628 12H21V10.5H18.9665L19.0615 9.92285L19.3955 8.64844C19.624 7.76953 19.8701 7.10156 20.1338 6.64453C20.4033 6.1875 20.7021 5.95898 21.0303 5.95898C21.1475 5.95898 21.2295 5.98828 21.2764 6.04688C21.3174 6.11133 21.3379 6.16406 21.3379 6.20508C21.3379 6.23438 21.2881 6.33398 21.1885 6.50391C21.0947 6.66797 21.0478 6.8291 21.0478 6.9873C21.0478 7.21582 21.1357 7.41504 21.3115 7.58496C21.4873 7.75488 21.6953 7.83984 21.9355 7.83984C22.1816 7.83984 22.3926 7.75488 22.5684 7.58496C22.75 7.40918 22.8408 7.17773 22.8408 6.89062C22.8408 6.4043 22.665 6.03809 22.3135 5.79199C21.9678 5.5459 21.5225 5.42285 20.9775 5.42285C20.2978 5.42285 19.6357 5.70117 18.9912 6.25781C18.458 6.72656 18.0186 7.34473 17.6728 8.1123C17.333 8.87402 17.1103 9.47754 17.0049 9.92285L16.8759 10.5H15V12H16.5232L16.0996 13.79C15.3613 17.2588 14.875 19.3506 14.6406 20.0654C14.4062 20.7861 14.0635 21.1465 13.6123 21.1465C13.5244 21.1465 13.4512 21.1289 13.3926 21.0938C13.3281 21.0586 13.2959 21.0088 13.2959 20.9443C13.2959 20.8916 13.3457 20.792 13.4453 20.6455C13.5391 20.5049 13.5859 20.3613 13.5859 20.2148C13.5859 19.9395 13.4951 19.7197 13.3135 19.5557C13.126 19.3975 12.915 19.3184 12.6807 19.3184C12.4404 19.3184 12.2266 19.4062 12.0391 19.582C11.8457 19.7578 11.749 19.9893 11.749 20.2764C11.749 20.6748 11.9102 21.0146 12.2324 21.2959Z" fill="#282F35"/>
  <path d="M15 5H2V8H7V18H10V8H15V5Z" fill="#282F35"/>
</svg>