<svg width="24" height="24" viewBox="0 0 24 24" fill="none" xmlns="http://www.w3.org/2000/svg">
  <path fill-rule="evenodd" clip-rule="evenodd" d="M6 6C4.34315 6 3 7.34315 3 9V15C3 16.6569 4.34315 18 6 18H12C13.6569 18 15 16.6569 15 15V9C15 7.34315 13.6569 6 12 6H6ZM5 9C5 8.44772 5.44772 8 6 8H12C12.5523 8 13 8.44772 13 9V15C13 15.5523 12.5523 16 12 16H6C5.44772 16 5 15.5523 5 15V9Z" fill="#282F35"/>
  <path d="M19.834 17.2227L16.9995 15.333V8.66698L19.834 6.77735C20.3324 6.44507 21 6.80237 21 7.40139V16.5986C21 17.1976 20.3324 17.5549 19.834 17.2227Z" fill="#282F35"/>
</svg>