<svg width="24" height="24" viewBox="0 0 24 24" fill="none" xmlns="http://www.w3.org/2000/svg">
  <path d="M17.6181 19.0323L20.293 21.7072L21.7072 20.293L3.70718 2.29297L2.29297 3.70718L7.54303 8.95724L7.50008 9.0002L4.50012 9.00012C3.67167 9.00009 3.00008 9.67167 3.00008 10.5001V13.5001C3.00008 14.3285 3.67165 15.0001 4.50008 15.0001H7.50008L12.1465 19.6466C12.4615 19.9616 13.0001 19.7385 13.0001 19.2931V14.4143L16.1926 17.6068C15.8218 17.8845 15.4226 18.1263 15.0001 18.327V20.4885C15.9575 20.1502 16.8405 19.6544 17.6181 19.0323Z" fill="#282F35"/>
  <path d="M20.3045 15.4762C20.7525 14.4068 21.0001 13.2326 21.0001 12.0007C21.0001 8.082 18.4957 4.74828 15.0001 3.51277V5.67428C17.365 6.79775 19.0001 9.20826 19.0001 12.0007C19.0001 12.6621 18.9083 13.3021 18.7369 13.9086L20.3045 15.4762Z" fill="#282F35"/>
  <path d="M13.0001 8.17177V4.70731C13.0001 4.26185 12.4615 4.03877 12.1465 4.35375L10.6643 5.83599L13.0001 8.17177Z" fill="#282F35"/>
</svg>