<svg width="40" height="40" viewBox="0 0 40 40" fill="none" xmlns="http://www.w3.org/2000/svg">
  <path opacity="0.5" d="M17.1498 6.43331L3.03312 30C2.74207 30.504 2.58807 31.0755 2.58644 31.6575C2.58481 32.2395 2.73561 32.8119 3.02383 33.3175C3.31206 33.8232 3.72767 34.2446 4.2293 34.5397C4.73094 34.8349 5.30112 34.9936 5.88312 35H34.1165C34.6985 34.9936 35.2686 34.8349 35.7703 34.5397C36.2719 34.2446 36.6875 33.8232 36.9758 33.3175C37.264 32.8119 37.4148 32.2395 37.4132 31.6575C37.4115 31.0755 37.2575 30.504 36.9665 30L22.8498 6.43331C22.5527 5.94349 22.1343 5.53851 21.6351 5.25745C21.1359 4.97639 20.5727 4.82874 19.9998 4.82874C19.4269 4.82874 18.8637 4.97639 18.3645 5.25745C17.8653 5.53851 17.4469 5.94349 17.1498 6.43331Z" fill="#AF7200"/>
  <path d="M20 13C21.1046 13 22 13.8954 22 15V21.6667C22 22.7712 21.1046 23.6667 20 23.6667C18.8954 23.6667 18 22.7712 18 21.6667V15C18 13.8954 18.8954 13 20 13Z" fill="#AF7200"/>
  <path d="M20 26.3333C18.8954 26.3333 18 27.2287 18 28.3333C18 29.4379 18.8954 30.3333 20 30.3333H20.015C21.1196 30.3333 22.015 29.4379 22.015 28.3333C22.015 27.2287 21.1196 26.3333 20.015 26.3333H20Z" fill="#AF7200"/>
  <path fill-rule="evenodd" clip-rule="evenodd" d="M17.8744 4.38606C18.5233 4.02068 19.2555 3.82874 20.0003 3.82874C20.745 3.82874 21.4772 4.02068 22.1262 4.38606C22.7752 4.75144 23.319 5.27791 23.7053 5.91468L23.7082 5.91943L37.8248 29.4861L37.8329 29.4999C38.2113 30.1552 38.4115 30.8981 38.4136 31.6547C38.4157 32.4114 38.2197 33.1554 37.845 33.8127C37.4703 34.4701 36.93 35.0179 36.2779 35.4016C35.6258 35.7853 34.8845 35.9916 34.1279 35.9999L34.1169 36L5.87262 36C5.11602 35.9917 4.37478 35.7853 3.72266 35.4016C3.07053 35.0179 2.53024 34.4701 2.15555 33.8127C1.78085 33.1554 1.58481 32.4114 1.58693 31.6547C1.58905 30.8981 1.78925 30.1552 2.16762 29.4999L2.17574 29.4861L16.2924 5.91944L17.1503 6.43331L16.2953 5.91468C16.6815 5.27791 17.2254 4.75144 17.8744 4.38606ZM18.0066 6.94974L18.0053 6.95194L3.89598 30.5063C3.69459 30.8576 3.58806 31.2553 3.58692 31.6603C3.58578 32.0677 3.69134 32.4684 3.8931 32.8223C4.09486 33.1763 4.38578 33.4712 4.73693 33.6779C5.08667 33.8837 5.484 33.9947 5.88969 34H34.1109C34.5166 33.9947 34.9139 33.8837 35.2636 33.6779C35.6148 33.4712 35.9057 33.1763 36.1075 32.8223C36.3092 32.4684 36.4148 32.0677 36.4136 31.6603C36.4125 31.2553 36.306 30.8577 36.1046 30.5064L21.9953 6.95194L21.9939 6.94964C21.786 6.60779 21.4937 6.32514 21.145 6.12883C20.7956 5.93209 20.4013 5.82874 20.0003 5.82874C19.5993 5.82874 19.205 5.93209 18.8556 6.12883C18.5068 6.32516 18.2145 6.60785 18.0066 6.94974Z" fill="#AF7200"/>
</svg>