<svg width="24" height="24" viewBox="0 0 24 24" fill="none" xmlns="http://www.w3.org/2000/svg">
<path d="M7.9473 13.199L6.28011 5.94858C6.03258 4.8721 6.70458 3.79878 7.78105 3.55125L11.083 2.79199C10.7475 3.21089 10.4913 3.70453 10.3435 4.25614L7.9473 13.199Z" fill="#282F35"/>
<path d="M4.33015 6.39644C4.14771 5.60306 4.21502 4.81053 4.48052 4.10119L1.95462 5.9453C1.06251 6.59661 0.867301 7.8478 1.51861 8.73992L6.40942 15.4389L4.33015 6.39644Z" fill="#282F35"/>
<path fill-rule="evenodd" clip-rule="evenodd" d="M17.0979 21.1392C18.1649 21.4251 19.2615 20.7919 19.5474 19.725L22.7982 7.59294C23.0841 6.52601 22.4509 5.42934 21.384 5.14345L14.725 3.35917C13.658 3.07329 12.5614 3.70645 12.2755 4.77338L9.0247 16.9054C8.73882 17.9723 9.37198 19.069 10.4389 19.3549L17.0979 21.1392ZM12.5952 14.9996C13.4236 14.9996 14.0952 15.6712 14.0952 16.4996C14.0952 17.3281 13.4236 17.9996 12.5952 17.9996C11.7668 17.9996 11.0952 17.3281 11.0952 16.4996C11.0952 15.6712 11.7668 14.9996 12.5952 14.9996Z" fill="#282F35"/>
</svg>
