<svg width="24" height="24" viewBox="0 0 24 24" fill="none" xmlns="http://www.w3.org/2000/svg">
<path fill-rule="evenodd" clip-rule="evenodd" d="M17.0004 14.1716L19.8288 17L17.0004 19.8284L14.1719 17L17.0004 14.1716ZM21.243 15.5858C22.0241 16.3668 22.0241 17.6332 21.243 18.4142L18.4146 21.2426C17.6335 22.0237 16.3672 22.0237 15.5862 21.2426L12.7577 18.4142C11.9767 17.6332 11.9767 16.3668 12.7577 15.5858L15.5862 12.7574C16.3672 11.9763 17.6335 11.9763 18.4146 12.7574L21.243 15.5858Z" fill="#282F35"/>
<path d="M21 5C21 3.89543 20.1046 3 19 3H15C13.8954 3 13 3.89543 13 5V9C13 10.1046 13.8954 11 15 11H19C20.1046 11 21 10.1046 21 9V5Z" fill="#282F35"/>
<path d="M11 15C11 13.8954 10.1046 13 9 13H5C3.89543 13 3 13.8954 3 15V19C3 20.1046 3.89543 21 5 21H9C10.1046 21 11 20.1046 11 19V15Z" fill="#282F35"/>
<path d="M9 3C10.1046 3 11 3.89543 11 5V9C11 10.1046 10.1046 11 9 11H5C3.89543 11 3 10.1046 3 9V5C3 3.89543 3.89543 3 5 3H9Z" fill="#282F35"/>
</svg>
