<svg width="24" height="24" viewBox="0 0 24 24" fill="none" xmlns="http://www.w3.org/2000/svg">
<path d="M7.13086 6.9082L3.30762 18H0.996094L5.8125 5.20312H7.28906L7.13086 6.9082ZM10.3301 18L6.49805 6.9082L6.33105 5.20312H7.81641L12.6504 18H10.3301ZM10.1455 13.2539V15.0029H3.18457V13.2539H10.1455Z" fill="#282F35"/>
<path d="M22.3359 12.6387V16.7168C22.166 16.9102 21.9082 17.1182 21.5625 17.3408C21.2168 17.5635 20.7656 17.7539 20.209 17.9121C19.6523 18.0645 18.9697 18.1406 18.1611 18.1406C17.458 18.1406 16.8164 18.0322 16.2363 17.8154C15.6621 17.5928 15.1641 17.2705 14.7422 16.8486C14.3203 16.4268 13.9951 15.9111 13.7666 15.3018C13.5439 14.6865 13.4326 13.9863 13.4326 13.2012V12.5596C13.4326 11.7744 13.541 11.0771 13.7578 10.4678C13.9746 9.85254 14.2822 9.33398 14.6807 8.91211C15.085 8.49023 15.5684 8.1709 16.1309 7.9541C16.6934 7.73145 17.3203 7.62012 18.0117 7.62012C18.9492 7.62012 19.7197 7.7666 20.3232 8.05957C20.9326 8.34668 21.3984 8.74512 21.7207 9.25488C22.043 9.76465 22.2451 10.3506 22.3271 11.0127H20.2617C20.2031 10.6611 20.0918 10.3594 19.9277 10.1074C19.7637 9.84961 19.5293 9.65039 19.2246 9.50977C18.9258 9.36914 18.5391 9.29883 18.0645 9.29883C17.666 9.29883 17.3086 9.36914 16.9922 9.50977C16.6816 9.64453 16.418 9.84961 16.2012 10.125C15.9902 10.4004 15.8291 10.7402 15.7178 11.1445C15.6123 11.543 15.5596 12.0088 15.5596 12.542V13.2012C15.5596 13.7344 15.6182 14.2061 15.7354 14.6162C15.8584 15.0205 16.0342 15.3604 16.2627 15.6357C16.4971 15.9111 16.7812 16.1191 17.1152 16.2598C17.4551 16.3945 17.8418 16.4619 18.2754 16.4619C18.8555 16.4619 19.292 16.4033 19.585 16.2861C19.8779 16.1631 20.0859 16.0488 20.209 15.9434V14.1592H17.9941V12.6387H22.3359Z" fill="#282F35"/>
</svg>
