<svg width="24" height="24" viewBox="0 0 24 24" fill="none" xmlns="http://www.w3.org/2000/svg">
<path d="M6.43164 6.9082L2.6084 18H0.296875L5.11328 5.20312H6.58984L6.43164 6.9082ZM9.63086 18L5.79883 6.9082L5.63184 5.20312H7.11719L11.9512 18H9.63086ZM9.44629 13.2539V15.0029H2.48535V13.2539H9.44629Z" fill="#282F35"/>
<path d="M22.7093 11.4609V16.3477C22.5277 16.5879 22.2435 16.8516 21.8568 17.1387C21.4759 17.4199 20.9691 17.6631 20.3363 17.8682C19.7035 18.0732 18.9154 18.1758 17.972 18.1758C17.1693 18.1758 16.4339 18.041 15.766 17.7715C15.098 17.4961 14.5209 17.0947 14.0345 16.5674C13.5541 16.04 13.182 15.3984 12.9183 14.6426C12.6546 13.8809 12.5228 13.0137 12.5228 12.041V11.1533C12.5228 10.1865 12.6429 9.3252 12.8832 8.56934C13.1293 7.80762 13.4808 7.16309 13.9379 6.63574C14.3949 6.1084 14.9457 5.70996 15.5902 5.44043C16.2406 5.16504 16.9759 5.02734 17.7962 5.02734C18.8451 5.02734 19.7123 5.20312 20.3978 5.55469C21.0892 5.90039 21.6224 6.38086 21.9974 6.99609C22.3724 7.61133 22.6097 8.31445 22.7093 9.10547H20.5472C20.4769 8.66016 20.3392 8.26172 20.1341 7.91016C19.9349 7.55859 19.6478 7.2832 19.2728 7.08398C18.9037 6.87891 18.4232 6.77637 17.8314 6.77637C17.3216 6.77637 16.8734 6.87305 16.4867 7.06641C16.1 7.25977 15.7777 7.54395 15.5199 7.91895C15.2679 8.29395 15.0775 8.75098 14.9486 9.29004C14.8197 9.8291 14.7552 10.4443 14.7552 11.1357V12.041C14.7552 12.7441 14.8285 13.3682 14.975 13.9131C15.1273 14.458 15.3441 14.918 15.6254 15.293C15.9125 15.668 16.2611 15.9521 16.6712 16.1455C17.0814 16.333 17.5443 16.4268 18.0599 16.4268C18.5638 16.4268 18.9769 16.3857 19.2992 16.3037C19.6214 16.2158 19.8763 16.1133 20.0638 15.9961C20.2572 15.873 20.4066 15.7559 20.5121 15.6445V13.1045H17.849V11.4609H22.7093Z" fill="#282F35"/>
</svg>
