<svg width="24" height="24" viewBox="0 0 24 24" fill="none" xmlns="http://www.w3.org/2000/svg">
<path d="M7.20996 6.9082L3.38672 18H1.0752L5.8916 5.20312H7.36816L7.20996 6.9082ZM10.4092 18L6.57715 6.9082L6.41016 5.20312H7.89551L12.7295 18H10.4092ZM10.2246 13.2539V15.0029H3.26367V13.2539H10.2246Z" fill="#282F35"/>
<path d="M20.042 8.49023H21.9668V17.7363C21.9668 18.5918 21.7852 19.3184 21.4219 19.916C21.0586 20.5137 20.5518 20.9678 19.9014 21.2783C19.251 21.5947 18.498 21.7529 17.6426 21.7529C17.2793 21.7529 16.875 21.7002 16.4297 21.5947C15.9902 21.4893 15.5625 21.3193 15.1465 21.085C14.7363 20.8564 14.3936 20.5547 14.1182 20.1797L15.1113 18.9316C15.4512 19.3359 15.8262 19.6318 16.2363 19.8193C16.6465 20.0068 17.0771 20.1006 17.5283 20.1006C18.0146 20.1006 18.4277 20.0098 18.7676 19.8281C19.1133 19.6523 19.3799 19.3916 19.5674 19.0459C19.7549 18.7002 19.8486 18.2783 19.8486 17.7803V10.6436L20.042 8.49023ZM13.582 13.3506V13.166C13.582 12.4453 13.6699 11.7891 13.8457 11.1973C14.0215 10.5996 14.2734 10.0869 14.6016 9.65918C14.9297 9.22559 15.3281 8.89453 15.7969 8.66602C16.2656 8.43164 16.7959 8.31445 17.3877 8.31445C18.0029 8.31445 18.5273 8.42578 18.9609 8.64844C19.4004 8.87109 19.7666 9.19043 20.0596 9.60645C20.3525 10.0166 20.5811 10.5088 20.7451 11.083C20.915 11.6514 21.041 12.2842 21.123 12.9814V13.5703C21.0469 14.25 20.918 14.8711 20.7363 15.4336C20.5547 15.9961 20.3145 16.4824 20.0156 16.8926C19.7168 17.3027 19.3477 17.6191 18.9082 17.8418C18.4746 18.0645 17.9619 18.1758 17.3701 18.1758C16.79 18.1758 16.2656 18.0557 15.7969 17.8154C15.334 17.5752 14.9355 17.2383 14.6016 16.8047C14.2734 16.3711 14.0215 15.8613 13.8457 15.2754C13.6699 14.6836 13.582 14.042 13.582 13.3506ZM15.7002 13.166V13.3506C15.7002 13.7842 15.7412 14.1885 15.8232 14.5635C15.9111 14.9385 16.043 15.2695 16.2188 15.5566C16.4004 15.8379 16.6289 16.0605 16.9043 16.2246C17.1855 16.3828 17.5166 16.4619 17.8975 16.4619C18.3955 16.4619 18.8027 16.3564 19.1191 16.1455C19.4414 15.9346 19.6875 15.6504 19.8574 15.293C20.0332 14.9297 20.1562 14.5254 20.2266 14.0801V12.4893C20.1914 12.1436 20.1182 11.8213 20.0068 11.5225C19.9014 11.2236 19.7578 10.9629 19.5762 10.7402C19.3945 10.5117 19.166 10.3359 18.8906 10.2129C18.6152 10.084 18.29 10.0195 17.915 10.0195C17.5342 10.0195 17.2031 10.1016 16.9219 10.2656C16.6406 10.4297 16.4092 10.6553 16.2275 10.9424C16.0518 11.2295 15.9199 11.5635 15.832 11.9443C15.7441 12.3252 15.7002 12.7324 15.7002 13.166Z" fill="#282F35"/>
</svg>
