<svg fill="none" height="397" viewBox="0 0 768 397" width="768" xmlns="http://www.w3.org/2000/svg"><path d="m0 0h768v397h-768z" fill="#faf9ff"/><path clip-rule="evenodd" d="m541 169.005v-1.005h1v1 .005zm5-1.005h-2v1h2zm2 0v1h2v-1zm4 0v1h2v-1zm4 0v1h2v-1zm4 0v1h2v-1zm4 0v1h2v-1zm4 0v1h2v-1zm4 0v1h2v-1zm4 0v1h2v-1zm4 0v1h2v-1zm4 0v1h2v-1zm4 0v1h2v-1zm4 0v1h2v-1zm4 0v1h2v-1zm4 0v1h2v-1zm4 0v1h2v-1zm4 0v1h2v-1zm4 0v1h2v-1zm4 0v1h2v-1zm4 0v1h2v-1zm4 0v1h2v-1zm4 0v1h2v-1zm4 0v1h2v-1zm4 0v1h2v-1zm4 0v1h2v-1zm4 0v1h2v-1zm4 0v1h2v-1zm4 0v1h2v-1zm4 0v1h2v-1zm4 0v1h2v-1zm4 0v1h2v-1zm4 0v1h2v-1zm4 0v1h2v-1zm4 0v1h2v-1zm4 0v1h2v-1zm4 0v1h2v-1zm4 0v1h2v-1zm4 0v1h2v-1zm4 0v1h2v-1zm4 0v1h2v-1zm4 0v1h2v-1zm4 0v1h2v-1zm4 0v1h2v-1zm4 0v1h2v-1zm4 0v1h2v-1zm4 0v1h2v-1zm4 0v1.005h1v-1.005zm1 3.014h-1v2.01h1zm0 4.02h-1v2.01h1zm0 4.02h-1v2.009h1zm0 4.019h-1v2.01h1zm0 4.02h-1v2.01h1zm0 4.02h-1v2.009h1zm0 4.019h-1v2.01h1zm0 4.02h-1v2.01h1zm0 4.019h-1v2.01h1zm0 4.02h-1v2.01h1zm0 4.02h-1v2.009h1zm0 4.019h-1v2.01h1zm0 4.02h-1v2.01h1zm0 4.02h-1v2.009h1zm0 4.019h-1v2.01h1zm0 4.02h-1v2.01h1zm0 4.019h-1v2.01h1zm0 4.02h-1v2.01h1zm0 4.02h-1v2.009h1zm0 4.019h-1v2.01h1zm0 4.02h-1v2.01h1zm0 4.019h-1v2.01h1zm0 4.02h-1v2.01h1zm0 4.02h-1v2.009h1zm0 4.019h-1v2.01h1zm0 4.02h-1v2.01h1zm0 4.02h-1v2.009h1zm0 4.019h-1v2.01h1zm0 4.02h-1v2.01h1zm0 4.019h-1v2.01h1zm0 4.02h-1v2.01h1zm0 4.02h-1v2.009h1zm0 4.019h-1v2.01h1zm0 4.02h-1v2.01h1zm0 4.019h-1v2.01h1zm0 4.02h-1v2.01h1zm0 4.02h-1v2.009h1zm0 4.019h-1v2.01h1zm0 4.02h-1v2.01h1zm0 4.019h-1v2.01h1zm0 4.02h-1v2.01h1zm0 4.02h-1v2.009h1zm0 4.019h-1v2.01h1zm0 4.02h-1v2.01h1zm0 4.019h-1v2.01h1zm0 4.02h-1v2.01h1zm0 4.02h-1v2.009h1zm0 4.019h-1v2.01h1zm0 4.02h-1v2.01h1zm0 4.019h-1v2.01h1zm0 4.02h-1v1.005h1zm-3 1.005v-1h-2v1zm-4 0v-1h-2v1zm-4 0v-1h-2v1zm-4 0v-1h-2v1zm-4 0v-1h-2v1zm-4 0v-1h-2v1zm-4 0v-1h-2v1zm-4 0v-1h-2v1zm-4 0v-1h-2v1zm-4 0v-1h-2v1zm-4 0v-1h-2v1zm-4 0v-1h-2v1zm-4 0v-1h-2v1zm-4 0v-1h-2v1zm-4 0v-1h-2v1zm-4 0v-1h-2v1zm-4 0v-1h-2v1zm-4 0v-1h-2v1zm-4 0v-1h-2v1zm-4 0v-1h-2v1zm-4 0v-1h-2v1zm-4 0v-1h-2v1zm-4 0v-1h-2v1zm-4 0v-1h-2v1zm-4 0v-1h-2v1zm-4 0v-1h-2v1zm-4 0v-1h-2v1zm-4 0v-1h-2v1zm-4 0v-1h-2v1zm-4 0v-1h-2v1zm-4 0v-1h-2v1zm-4 0v-1h-2v1zm-4 0v-1h-2v1zm-4 0v-1h-2v1zm-4 0v-1h-2v1zm-4 0v-1h-2v1zm-4 0v-1h-2v1zm-4 0v-1h-2v1zm-4 0v-1h-2v1zm-4 0v-1h-2v1zm-4 0v-1h-2v1zm-4 0v-1h-2v1zm-4 0v-1h-2v1zm-4 0v-1h-2v1zm-4 0v-1h-2v1zm-4 0v-1h-2v1zm-4 0v-1.005h-1v1.005zm-1-3.014h1v-2.01h-1zm0-4.02h1v-2.01h-1zm0-4.02h1v-2.009h-1zm0-4.019h1v-2.01h-1zm0-4.02h1v-2.01h-1zm0-4.02h1v-2.009h-1zm0-4.019h1v-2.01h-1zm0-4.02h1v-2.01h-1zm0-4.019h1v-2.01h-1zm0-4.02h1v-2.01h-1zm0-4.02h1v-2.009h-1zm0-4.019h1v-2.01h-1zm0-4.02h1v-2.01h-1zm0-4.02h1v-2.009h-1zm0-4.019h1v-2.01h-1zm0-4.02h1v-2.01h-1zm0-4.019h1v-2.01h-1zm0-4.02h1v-2.01h-1zm0-4.02h1v-2.009h-1zm0-4.019h1v-2.01h-1zm0-4.02h1v-2.01h-1zm0-4.019h1v-2.01h-1zm0-4.02h1v-2.01h-1zm0-4.02h1v-2.009h-1zm0-4.019h1v-2.01h-1zm0-4.02h1v-2.01h-1zm0-4.02h1v-2.009h-1zm0-4.019h1v-2.01h-1zm0-4.02h1v-2.01h-1zm0-4.019h1v-2.01h-1zm0-4.02h1v-2.01h-1zm0-4.02h1v-2.009h-1zm0-4.019h1v-2.01h-1zm0-4.02h1v-2.01h-1zm0-4.019h1v-2.01h-1zm0-4.02h1v-2.01h-1zm0-4.02h1v-2.009h-1zm0-4.019h1v-2.01h-1zm0-4.02h1v-2.01h-1zm0-4.019h1v-2.01h-1zm0-4.02h1v-2.01h-1zm0-4.02h1v-2.009h-1zm0-4.019h1v-2.01h-1zm0-4.02h1v-2.01h-1zm0-4.019h1v-2.01h-1zm0-4.02h1v-2.01h-1zm0-4.02h1v-2.009h-1zm0-4.019h1v-2.01h-1zm0-4.02h1v-2.01h-1zm0-4.019h1v-2.01h-1z" fill="#d752f2" fill-rule="evenodd"/><path d="m257 49h139v66h-139z" fill="#542bff" fill-opacity=".06"/><path clip-rule="evenodd" d="m395 50h-137v64h137zm-138-1v66h139v-66z" fill="#542bff" fill-rule="evenodd"/><path clip-rule="evenodd" d="m590.152 313h-13.152v28h19.515v-21.636h-6.363z" fill="#fff" fill-rule="evenodd"/><path clip-rule="evenodd" d="m589.152 320.364v-6.364h-11.152v26h17.515v-19.636zm1-7.364v6.364h6.363v21.636h-19.515v-28z" fill="#471aff" fill-rule="evenodd"/><path clip-rule="evenodd" d="m589.152 320.364v-6.364h-11.152v26h17.515v-19.636zm1-7.364v6.364h6.363v21.636h-19.515v-28z" fill="#000" fill-opacity=".2" fill-rule="evenodd"/><path d="m48 195h139v66h-139z" fill="#f4f4f5"/><path clip-rule="evenodd" d="m48 195h1v.971h-.0073v.029h-.9927zm0 65v1h1v-.971h-.0071v-.029zm138 1h1v-1h-.993v.029h-.007zm1-65v-1h-1v.971h.007v.029zm-136.0215-1v1h1.9857v-1zm3.9714 0v1h1.9857v-1zm3.9714 0v1h1.9857v-1zm3.9715 0v1h1.9857v-1zm3.9714 0v1h1.9857v-1zm3.9714 0v1h1.9858v-1zm3.9715 0v1h1.9857v-1zm3.9714 0v1h1.9857v-1zm3.9714 0v1h1.9858v-1zm3.9715 0v1h1.9857v-1zm3.9714 0v1h1.9857v-1zm3.9714 0v1h1.9858v-1zm3.9715 0v1h1.9853v-1zm3.9713 0v1h1.986v-1zm3.972 0v1h1.985v-1zm3.971 0v1h1.986v-1zm3.971 0v1h1.986v-1zm3.972 0v1h1.986v-1zm3.971 0v1h1.986v-1zm3.972 0v1h1.985v-1zm3.971 0v1h1.986v-1zm3.972 0v1h1.985v-1zm3.971 0v1h1.986v-1zm3.971 0v1h1.986v-1zm3.972 0v1h1.986v-1zm3.971 0v1h1.986v-1zm3.972 0v1h1.985v-1zm3.971 0v1h1.986v-1zm3.972 0v1h1.985v-1zm3.971 0v1h1.986v-1zm3.971 0v1h1.986v-1zm3.972 0v1h1.986v-1zm3.971 0v1h1.986v-1zm3.972 0v1h1.985v-1zm4.964 2.912h-1v1.941h1zm0 3.882h-1v1.941h1zm0 3.882h-1v1.942h1zm0 3.883h-1v1.941h1zm0 3.882h-1v1.941h1zm0 3.883h-1v1.941h1zm0 3.882h-1v1.941h1zm0 3.882h-1v1.941h1zm0 3.883h-1v1.941h1zm0 3.882h-1v1.941h1zm0 3.882h-1v1.941h1zm0 3.883h-1v1.941h1zm0 3.882h-1v1.941h1zm0 3.882h-1v1.942h1zm0 3.883h-1v1.941h1zm0 3.882h-1v1.941h1zm-2.978 4.853v-1h-1.986v1zm-3.972 0v-1h-1.986v1zm-3.971 0v-1h-1.986v1zm-3.972 0v-1h-1.985v1zm-3.971 0v-1h-1.986v1zm-3.972 0v-1h-1.985v1zm-3.971 0v-1h-1.986v1zm-3.972 0v-1h-1.985v1zm-3.971 0v-1h-1.986v1zm-3.971 0v-1h-1.986v1zm-3.972 0v-1h-1.986v1zm-3.971 0v-1h-1.986v1zm-3.972 0v-1h-1.985v1zm-3.971 0v-1h-1.986v1zm-3.972 0v-1h-1.985v1zm-3.971 0v-1h-1.986v1zm-3.971 0v-1h-1.986v1zm-3.972 0v-1h-1.986v1zm-3.971 0v-1h-1.986v1zm-3.972 0v-1h-1.985v1zm-3.971 0v-1h-1.986v1zm-3.972 0v-1h-1.9853v1zm-3.971 0v-1h-1.9857v1zm-3.9714 0v-1h-1.9857v1zm-3.9715 0v-1h-1.9857v1zm-3.9714 0v-1h-1.9857v1zm-3.9714 0v-1h-1.9857v1zm-3.9714 0v-1h-1.9858v1zm-3.9715 0v-1h-1.9857v1zm-3.9714 0v-1h-1.9857v1zm-3.9714 0v-1h-1.9857v1zm-3.9715 0v-1h-1.9857v1zm-3.9714 0v-1h-1.9857v1zm-3.9714 0v-1h-1.9857v1zm-4.9643-2.912h1v-1.941h-1zm0-3.882h1v-1.941h-1zm0-3.882h1v-1.942h-1zm0-3.883h1v-1.941h-1zm0-3.882h1v-1.941h-1zm0-3.883h1v-1.941h-1zm0-3.882h1v-1.941h-1zm0-3.882h1v-1.941h-1zm0-3.883h1v-1.941h-1zm0-3.882h1v-1.941h-1zm0-3.882h1v-1.941h-1zm0-3.883h1v-1.941h-1zm0-3.882h1v-1.941h-1zm0-3.882h1v-1.942h-1zm0-3.883h1v-1.941h-1zm0-3.882h1v-1.941h-1z" fill="#949494" fill-rule="evenodd"/><path d="m257 195h139v66h-139z" fill="#542bff" fill-opacity=".06"/><path clip-rule="evenodd" d="m395 196h-137v64h137zm-138-1v66h139v-66z" fill="#542bff" fill-rule="evenodd"/><path d="m257 282h139v66h-139z" fill="#61ffbe" fill-opacity=".22"/><path clip-rule="evenodd" d="m395 283h-137v64h137zm-138-1v66h139v-66z" fill="#009658" fill-rule="evenodd"/><path d="m267 293h139v66h-139z" fill="#61ffbe" fill-opacity=".22"/><path clip-rule="evenodd" d="m405 294h-137v64h137zm-138-1v66h139v-66z" fill="#009658" fill-rule="evenodd"/><path d="m565 195h139v66h-139z" fill="#d2ffff"/><path clip-rule="evenodd" d="m703 196h-137v64h137zm-138-1v66h139v-66z" fill="#00b0b0" fill-rule="evenodd"/><path d="m49 282h139v66h-139z" fill="#fdf3ff"/><path clip-rule="evenodd" d="m187 283h-137v64h137zm-138-1v66h139v-66z" fill="#d752f2" fill-rule="evenodd"/><path clip-rule="evenodd" d="m189.015 84h-1.015v-2h1.015zm4.059 0h-2.03v-2h2.03zm4.058 0h-2.029v-2h2.029zm4.059 0h-2.029v-2h2.029zm4.059 0h-2.029v-2h2.029zm4.059 0h-2.03v-2h2.03zm4.059 0h-2.03v-2h2.03zm4.058 0h-2.029v-2h2.029zm4.059 0h-2.029v-2h2.029zm4.059 0h-2.029v-2h2.029zm4.059 0h-2.029v-2h2.029zm4.059 0h-2.03v-2h2.03zm4.059 0h-2.03v-2h2.03zm4.058 0h-2.029v-2h2.029zm4.059 0h-2.029v-2h2.029zm4.059 0h-2.029v-2h2.029zm4.059 0h-2.03v-2h2.03zm3.044 0h-1.015v-2h1.015z" fill="#542bff" fill-rule="evenodd"/><path clip-rule="evenodd" d="m332.774 185-5.774 10-5.773-10h4.773v-70h2v70z" fill="#542bff" fill-rule="evenodd"/><path clip-rule="evenodd" d="m555 222.226 10 5.774-10 5.773v-4.773h-159v-2h159z" fill="#00b0b0" fill-rule="evenodd"/><path d="m48 49h139v66h-139z" fill="#542bff" fill-opacity=".06"/><path clip-rule="evenodd" d="m186 50h-137v64h137zm-138-1v66h139v-66z" fill="#542bff" fill-rule="evenodd"/><g fill="#471aff"><path d="m138.504 87.1913c-.597 0-1.13-.1013-1.6-.304-.469-.2027-.869-.4907-1.2-.864-.33-.384-.586-.8427-.768-1.376-.17-.544-.256-1.1467-.256-1.808s.086-1.2587.256-1.792c.182-.544.438-1.0027.768-1.376.331-.384.731-.6773 1.2-.88.47-.2027 1.003-.304 1.6-.304.608 0 1.142.1067 1.6.32.47.2133.859.512 1.168.896.31.3733.539.8107.688 1.312.16.5013.24 1.04.24 1.616v.656h-5.712v.272c0 .64.187 1.168.56 1.584.384.4053.928.608 1.632.608.512 0 .944-.112 1.296-.336s.651-.528.896-.912l1.024 1.008c-.309.512-.757.9227-1.344 1.232-.586.2987-1.269.448-2.048.448zm0-7.344c-.298 0-.576.0533-.832.16-.245.1067-.458.256-.64.448-.17.192-.304.4213-.4.688s-.144.56-.144.88v.112h3.872v-.16c0-.64-.165-1.152-.496-1.536-.33-.3947-.784-.592-1.36-.592z"/><path d="m125.959 86.9993v-8.32h1.744v1.376h.08c.181-.448.453-.8213.816-1.12.373-.2987.88-.448 1.52-.448.853 0 1.515.2827 1.984.848.48.5547.72 1.3493.72 2.384v5.28h-1.744v-5.056c0-1.3013-.523-1.952-1.568-1.952-.224 0-.448.032-.672.096-.213.0533-.405.1387-.576.256s-.309.2667-.416.448c-.096.1813-.144.3947-.144.64v5.568z"/><path d="m122.604 77.1917c-.362 0-.629-.0853-.8-.256-.16-.1707-.24-.3893-.24-.656v-.272c0-.2667.08-.4853.24-.656.171-.1707.438-.256.8-.256.363 0 .624.0853.784.256s.24.3893.24.656v.272c0 .2667-.08.4853-.24.656s-.421.256-.784.256zm-.88 1.488h1.744v8.32h-1.744z"/><path d="m120.427 87.7839c0 .864-.331 1.5147-.992 1.952-.662.4374-1.739.656-3.232.656-.683 0-1.264-.048-1.744-.144-.47-.0853-.859-.2133-1.168-.384-.299-.1706-.518-.3786-.656-.624-.139-.2453-.208-.528-.208-.848 0-.4586.122-.816.368-1.072.256-.256.608-.432 1.056-.528v-.176c-.63-.2026-.944-.6293-.944-1.28 0-.4266.144-.752.432-.976.288-.2346.634-.4 1.04-.496v-.064c-.491-.2346-.87-.56-1.136-.976-.256-.4266-.384-.9226-.384-1.488 0-.8533.282-1.5413.848-2.064.576-.5226 1.397-.784 2.464-.784.586 0 1.088.0854 1.504.256v-.224c0-.3733.085-.6613.256-.864.181-.2133.458-.32.832-.32h1.28v1.408h-1.696v.336c.373.2454.661.5654.864.96.202.384.304.816.304 1.296 0 .8427-.288 1.5254-.864 2.048-.576.512-1.398.768-2.464.768-.406 0-.768-.0426-1.088-.128-.214.0747-.4.1814-.56.32-.16.128-.24.2987-.24.512 0 .224.101.384.304.48.202.096.49.144.864.144h2.048c1.024 0 1.765.208 2.224.624.458.4054.688.9654.688 1.68zm-1.632.192c0-.288-.112-.5173-.336-.688-.214-.1706-.608-.256-1.184-.256h-2.816c-.384.224-.576.544-.576.96 0 .3414.133.6134.4.816.277.2134.741.32 1.392.32h1.088c1.354 0 2.032-.384 2.032-1.152zm-2.608-5.088c.512 0 .906-.112 1.184-.336.288-.2346.432-.592.432-1.072v-.32c0-.48-.144-.832-.432-1.056-.278-.2346-.672-.352-1.184-.352s-.912.1174-1.2.352c-.278.224-.416.576-.416 1.056v.32c0 .48.138.8374.416 1.072.288.224.688.336 1.2.336z"/><path d="m103.85 86.9993v-8.32h1.744v1.376h.08c.181-.448.453-.8213.816-1.12.373-.2987.88-.448 1.52-.448.853 0 1.514.2827 1.984.848.48.5547.72 1.3493.72 2.384v5.28h-1.744v-5.056c0-1.3013-.523-1.952-1.568-1.952-.224 0-.448.032-.672.096-.214.0533-.406.1387-.576.256-.171.1173-.31.2667-.416.448-.096.1813-.144.3947-.144.64v5.568z"/><path d="m94.4932 87v-11.168h7.1518v1.6h-5.3438v3.104h4.8478v1.6h-4.8478v3.264h5.3438v1.6z"/><path d="m355.021 87v-1.472h1.52v-8.224h-1.52v-1.472h4.864v1.472h-1.536v8.224h1.536v1.472z"/><path d="m345.47 87v-11.168h4.8c1.034 0 1.834.304 2.4.912.565.608.848 1.424.848 2.448s-.283 1.84-.848 2.448c-.566.608-1.366.912-2.4.912h-2.992v4.448zm1.808-6.032h2.88c.458 0 .816-.1173 1.072-.352.256-.2453.384-.592.384-1.04v-.768c0-.448-.128-.7893-.384-1.024-.256-.2453-.614-.368-1.072-.368h-2.88z"/><path d="m341.852 87-1.008-3.024h-4.176l-.976 3.024h-1.84l3.808-11.168h2.272l3.808 11.168zm-3.056-9.504h-.08l-1.616 4.928h3.296z"/><path d="m325.764 75.1602h1.744v7.264h.08l1.152-1.488 2-2.256h2.032l-2.912 3.216 3.264 5.104h-2.08l-2.384-3.968-1.152 1.248v2.72h-1.744z"/><path d="m320.823 87.1923c-.597 0-1.131-.1014-1.6-.304-.469-.2027-.864-.4907-1.184-.864-.32-.384-.565-.8427-.736-1.376-.171-.544-.256-1.1467-.256-1.808 0-.6614.085-1.2587.256-1.792.171-.544.416-1.0027.736-1.376.32-.384.715-.6774 1.184-.88.469-.2027 1.003-.304 1.6-.304.832 0 1.515.1866 2.048.56.533.3733.923.8693 1.168 1.488l-1.44.672c-.117-.384-.325-.688-.624-.912-.288-.2347-.672-.352-1.152-.352-.64 0-1.125.2026-1.456.608-.32.3946-.48.912-.48 1.552v1.488c0 .64.16 1.1626.48 1.568.331.3946.816.592 1.456.592.512 0 .917-.1227 1.216-.368.309-.256.555-.592.736-1.008l1.328.704c-.277.6826-.693 1.2053-1.248 1.568-.555.3626-1.232.544-2.032.544z"/><path d="m311.84 87.1923c-.576 0-1.104-.1014-1.584-.304-.47-.2027-.87-.4907-1.2-.864-.331-.384-.587-.8427-.768-1.376-.182-.544-.272-1.1467-.272-1.808 0-.6614.09-1.2587.272-1.792.181-.544.437-1.0027.768-1.376.33-.384.73-.6774 1.2-.88.48-.2027 1.008-.304 1.584-.304s1.098.1013 1.568.304c.48.2026.885.496 1.216.88.33.3733.586.832.768 1.376.181.5333.272 1.1306.272 1.792 0 .6613-.091 1.264-.272 1.808-.182.5333-.438.992-.768 1.376-.331.3733-.736.6613-1.216.864-.47.2026-.992.304-1.568.304zm0-1.44c.597 0 1.077-.1814 1.44-.544.362-.3734.544-.928.544-1.664v-1.408c0-.736-.182-1.2854-.544-1.648-.363-.3734-.843-.56-1.44-.56-.598 0-1.078.1866-1.44.56-.363.3626-.544.912-.544 1.648v1.408c0 .736.181 1.2906.544 1.664.362.3626.842.544 1.44.544z"/><path d="m305.79 87.0002c-.598 0-1.046-.1494-1.344-.448-.288-.3094-.432-.736-.432-1.28v-10.112h1.744v10.416h1.152v1.424z"/><path d="m293.595 75.832h4.944c.928 0 1.653.2614 2.176.784.533.5227.8 1.2214.8 2.096 0 .416-.059.7734-.176 1.072-.118.288-.267.528-.448.72-.182.1814-.39.32-.624.416-.235.0854-.464.1387-.688.16v.096c.224.0107.469.064.736.16.277.096.533.2507.768.464.234.2027.432.4694.592.8.16.32.24.7147.24 1.184 0 .448-.075.8694-.224 1.264-.139.3947-.336.736-.592 1.024s-.56.5174-.912.688c-.352.16-.736.24-1.152.24h-5.44zm1.808 9.616h3.104c.469 0 .837-.1226 1.104-.368.266-.2453.4-.5973.4-1.056v-.544c0-.4586-.134-.8106-.4-1.056-.267-.2453-.635-.368-1.104-.368h-3.104zm0-4.896h2.8c.448 0 .794-.112 1.04-.336.245-.2346.368-.5653.368-.992v-.512c0-.4266-.123-.752-.368-.976-.246-.2346-.592-.352-1.04-.352h-2.8z"/><path d="m336.021 222.16h1.744v7.264h.08l1.152-1.488 2-2.256h2.032l-2.912 3.216 3.264 5.104h-2.08l-2.384-3.968-1.152 1.248v2.72h-1.744z"/><path d="m331.081 234.192c-.598 0-1.131-.101-1.6-.304-.47-.202-.864-.49-1.184-.864-.32-.384-.566-.842-.736-1.376-.171-.544-.256-1.146-.256-1.808 0-.661.085-1.258.256-1.792.17-.544.416-1.002.736-1.376.32-.384.714-.677 1.184-.88.469-.202 1.002-.304 1.6-.304.832 0 1.514.187 2.048.56.533.374.922.87 1.168 1.488l-1.44.672c-.118-.384-.326-.688-.624-.912-.288-.234-.672-.352-1.152-.352-.64 0-1.126.203-1.456.608-.32.395-.48.912-.48 1.552v1.488c0 .64.16 1.163.48 1.568.33.395.816.592 1.456.592.512 0 .917-.122 1.216-.368.309-.256.554-.592.736-1.008l1.328.704c-.278.683-.694 1.206-1.248 1.568-.555.363-1.232.544-2.032.544z"/><path d="m322.097 234.192c-.576 0-1.104-.101-1.584-.304-.469-.202-.869-.49-1.2-.864-.33-.384-.586-.842-.768-1.376-.181-.544-.272-1.146-.272-1.808 0-.661.091-1.258.272-1.792.182-.544.438-1.002.768-1.376.331-.384.731-.677 1.2-.88.48-.202 1.008-.304 1.584-.304s1.099.102 1.568.304c.48.203.886.496 1.216.88.331.374.587.832.768 1.376.182.534.272 1.131.272 1.792 0 .662-.09 1.264-.272 1.808-.181.534-.437.992-.768 1.376-.33.374-.736.662-1.216.864-.469.203-.992.304-1.568.304zm0-1.44c.598 0 1.078-.181 1.44-.544.363-.373.544-.928.544-1.664v-1.408c0-.736-.181-1.285-.544-1.648-.362-.373-.842-.56-1.44-.56-.597 0-1.077.187-1.44.56-.362.363-.544.912-.544 1.648v1.408c0 .736.182 1.291.544 1.664.363.363.843.544 1.44.544z"/><path d="m316.047 234c-.597 0-1.045-.149-1.344-.448-.288-.309-.432-.736-.432-1.28v-10.112h1.744v10.416h1.152v1.424z"/><path d="m303.853 222.832h4.944c.928 0 1.653.261 2.176.784.533.523.8 1.221.8 2.096 0 .416-.059.773-.176 1.072-.118.288-.267.528-.448.72-.182.181-.39.32-.624.416-.235.085-.464.139-.688.16v.096c.224.011.469.064.736.16.277.096.533.251.768.464.234.203.432.469.592.8.16.32.24.715.24 1.184 0 .448-.075.869-.224 1.264-.139.395-.336.736-.592 1.024s-.56.517-.912.688c-.352.16-.736.24-1.152.24h-5.44zm1.808 9.616h3.104c.469 0 .837-.123 1.104-.368.266-.245.4-.597.4-1.056v-.544c0-.459-.134-.811-.4-1.056-.267-.245-.635-.368-1.104-.368h-3.104zm0-4.896h2.8c.448 0 .794-.112 1.04-.336.245-.235.368-.565.368-.992v-.512c0-.427-.123-.752-.368-.976-.246-.235-.592-.352-1.04-.352h-2.8z"/></g><path d="m653.465 234.191c-.598 0-1.131-.101-1.6-.304-.47-.202-.87-.49-1.2-.864-.331-.384-.587-.842-.768-1.376-.171-.544-.256-1.146-.256-1.808 0-.661.085-1.258.256-1.792.181-.544.437-1.002.768-1.376.33-.384.73-.677 1.2-.88.469-.202 1.002-.304 1.6-.304.608 0 1.141.107 1.6.32.469.214.858.512 1.168.896.309.374.538.811.688 1.312.16.502.24 1.04.24 1.616v.656h-5.712v.272c0 .64.186 1.168.56 1.584.384.406.928.608 1.632.608.512 0 .944-.112 1.296-.336s.65-.528.896-.912l1.024 1.008c-.31.512-.758.923-1.344 1.232-.587.299-1.27.448-2.048.448zm0-7.344c-.299 0-.576.054-.832.16-.246.107-.459.256-.64.448-.171.192-.304.422-.4.688-.096.267-.144.56-.144.88v.112h3.872v-.16c0-.64-.166-1.152-.496-1.536-.331-.394-.784-.592-1.36-.592z" fill="#00b0b0"/><path d="m640.92 233.999v-8.32h1.744v1.376h.08c.181-.448.453-.821.816-1.12.373-.298.88-.448 1.52-.448.853 0 1.515.283 1.984.848.48.555.72 1.35.72 2.384v5.28h-1.744v-5.056c0-1.301-.523-1.952-1.568-1.952-.224 0-.448.032-.672.096-.213.054-.405.139-.576.256-.171.118-.309.267-.416.448-.096.182-.144.395-.144.64v5.568z" fill="#00b0b0"/><path d="m635.293 234.191c-.598 0-1.131-.101-1.6-.304-.47-.202-.87-.49-1.2-.864-.331-.384-.587-.842-.768-1.376-.171-.544-.256-1.146-.256-1.808 0-.661.085-1.258.256-1.792.181-.544.437-1.002.768-1.376.33-.384.73-.677 1.2-.88.469-.202 1.002-.304 1.6-.304.608 0 1.141.107 1.6.32.469.214.858.512 1.168.896.309.374.538.811.688 1.312.16.502.24 1.04.24 1.616v.656h-5.712v.272c0 .64.186 1.168.56 1.584.384.406.928.608 1.632.608.512 0 .944-.112 1.296-.336s.65-.528.896-.912l1.024 1.008c-.31.512-.758.923-1.344 1.232-.587.299-1.27.448-2.048.448zm0-7.344c-.299 0-.576.054-.832.16-.246.107-.459.256-.64.448-.171.192-.304.422-.4.688-.096.267-.144.56-.144.88v.112h3.872v-.16c0-.64-.166-1.152-.496-1.536-.331-.394-.784-.592-1.36-.592z" fill="#00b0b0"/><path d="m627.182 234.191c-.597 0-1.13-.101-1.6-.304-.469-.202-.864-.49-1.184-.864-.32-.384-.565-.842-.736-1.376-.17-.544-.256-1.146-.256-1.808 0-.661.086-1.258.256-1.792.171-.544.416-1.002.736-1.376.32-.384.715-.677 1.184-.88.47-.202 1.003-.304 1.6-.304.832 0 1.515.187 2.048.56.534.374.923.87 1.168 1.488l-1.44.672c-.117-.384-.325-.688-.624-.912-.288-.234-.672-.352-1.152-.352-.64 0-1.125.203-1.456.608-.32.395-.48.912-.48 1.552v1.488c0 .64.16 1.163.48 1.568.331.395.816.592 1.456.592.512 0 .918-.122 1.216-.368.31-.256.555-.592.736-1.008l1.328.704c-.277.683-.693 1.206-1.248 1.568-.554.363-1.232.544-2.032.544z" fill="#00b0b0"/><path d="m617.876 234.192c-.939 0-1.739-.171-2.4-.512-.651-.342-1.211-.8-1.68-1.376l1.248-1.168c.395.48.827.842 1.296 1.088.48.245 1.024.368 1.632.368.715 0 1.253-.16 1.616-.48s.544-.752.544-1.296c0-.438-.128-.784-.384-1.04s-.709-.448-1.36-.576l-.992-.176c-1.088-.203-1.904-.56-2.448-1.072s-.816-1.216-.816-2.112c0-.491.091-.934.272-1.328.192-.406.453-.742.784-1.008.341-.278.752-.491 1.232-.64.48-.15 1.019-.224 1.616-.224.843 0 1.573.149 2.192.448.619.288 1.147.709 1.584 1.264l-1.264 1.12c-.288-.374-.64-.672-1.056-.896s-.933-.336-1.552-.336c-.64 0-1.136.128-1.488.384s-.528.629-.528 1.12c0 .469.144.821.432 1.056.288.224.736.394 1.344.512l.992.208c1.12.213 1.936.576 2.448 1.088.523.512.784 1.216.784 2.112 0 .522-.091.997-.272 1.424-.181.426-.448.794-.8 1.104-.341.298-.763.533-1.264.704-.501.16-1.072.24-1.712.24z" fill="#00b0b0"/><path d="m158.12 309.16h1.664l-1.44 7.216h.096l1.328-1.408 2.448-2.288h1.968l-3.568 3.36 1.456 3.568h1.008l-.272 1.392h-.912c-.373 0-.677-.08-.912-.24-.224-.171-.405-.437-.544-.8l-1.136-2.848-1.376 1.296-.512 2.592h-1.664z" fill="#d752f2"/><path d="m151.253 321.192c-.928 0-1.68-.293-2.256-.88-.576-.597-.864-1.466-.864-2.608 0-.725.101-1.402.304-2.032.202-.64.49-1.194.864-1.664.373-.469.816-.837 1.328-1.104.522-.277 1.098-.416 1.728-.416.768 0 1.397.187 1.888.56.501.374.821.864.96 1.472l-1.392.56c-.118-.373-.294-.661-.528-.864-.224-.213-.56-.32-1.008-.32-.576 0-1.046.182-1.408.544-.363.363-.608.88-.736 1.552l-.272 1.376c-.054.267-.08.502-.08.704 0 .512.133.928.4 1.248.266.31.677.464 1.232.464.405 0 .752-.117 1.04-.352.298-.234.592-.613.88-1.136l1.28.608c-.352.747-.811 1.318-1.376 1.712-.566.384-1.227.576-1.984.576z" fill="#d752f2"/><path d="m142.503 321.192c-.938 0-1.696-.293-2.272-.88-.576-.586-.864-1.44-.864-2.56 0-.714.107-1.392.32-2.032.214-.64.507-1.2.88-1.68.384-.48.838-.858 1.36-1.136.523-.277 1.099-.416 1.728-.416.939 0 1.696.294 2.272.88.576.587.864 1.44.864 2.56 0 .726-.106 1.408-.32 2.048-.213.63-.512 1.184-.896 1.664-.373.48-.821.859-1.344 1.136-.522.278-1.098.416-1.728.416zm.128-1.408c.523 0 .976-.192 1.36-.576.395-.384.667-.944.816-1.68l.272-1.328c.022-.085.038-.181.048-.288.011-.106.016-.218.016-.336 0-.512-.138-.917-.416-1.216-.266-.309-.666-.464-1.2-.464-.522 0-.981.192-1.376.576-.384.384-.65.944-.8 1.68l-.272 1.328c-.021.096-.037.198-.048.304-.01.096-.016.203-.016.32 0 .512.134.923.4 1.232.278.299.683.448 1.216.448z" fill="#d752f2"/><path d="m136.303 321c-.406 0-.715-.101-.928-.304-.214-.213-.32-.485-.32-.816 0-.107.016-.24.048-.4l2.064-10.32h1.664l-2.096 10.448h1.152l-.272 1.392z" fill="#d752f2"/><path d="m126.947 309.832h4.384c.843 0 1.504.203 1.984.608.491.405.736.981.736 1.728 0 .352-.048.688-.144 1.008s-.24.613-.432.88c-.181.267-.411.496-.688.688-.277.181-.597.32-.96.416l-.016.08c1.088.277 1.632.965 1.632 2.064 0 .523-.091 1.013-.272 1.472-.171.448-.421.837-.752 1.168-.32.331-.709.592-1.168.784-.459.181-.971.272-1.536.272h-5.008zm2.752 9.648c.48 0 .875-.117 1.184-.352s.517-.603.624-1.104c.053-.277.091-.48.112-.608.021-.139.032-.245.032-.32 0-.331-.112-.592-.336-.784-.213-.192-.539-.288-.976-.288h-2.912l-.688 3.456zm.528-4.896c.501 0 .912-.101 1.232-.304.32-.213.528-.56.624-1.04.053-.256.085-.448.096-.576.021-.128.032-.229.032-.304 0-.309-.101-.555-.304-.736-.192-.181-.485-.272-.88-.272h-2.656l-.656 3.232z" fill="#d752f2"/><path d="m116.194 321.192c-1.077 0-1.898-.304-2.464-.912-.554-.618-.832-1.488-.832-2.608 0-.682.102-1.333.304-1.952.214-.629.512-1.184.896-1.664s.848-.858 1.392-1.136c.544-.288 1.152-.432 1.824-.432.331 0 .662.043.992.128.342.086.646.219.912.4.267.182.48.416.64.704.171.288.256.635.256 1.04 0 .886-.448 1.563-1.344 2.032-.885.47-2.277.726-4.176.768-.032.214-.048.39-.048.528 0 .512.139.923.416 1.232.288.31.736.464 1.344.464.459 0 .875-.101 1.248-.304.374-.202.731-.517 1.072-.944l1.056.88c-.522.651-1.072 1.11-1.648 1.376-.576.267-1.189.4-1.84.4zm.992-7.376c-.576 0-1.077.198-1.504.592-.416.384-.688.907-.816 1.568l-.08.416c.758-.032 1.376-.085 1.856-.16.48-.074.854-.176 1.12-.304.278-.128.464-.282.56-.464.096-.181.144-.389.144-.624 0-.202-.037-.368-.112-.496-.074-.138-.176-.245-.304-.32-.117-.085-.25-.138-.4-.16-.149-.032-.304-.048-.464-.048z" fill="#d752f2"/><path d="m105.088 312.68h1.664l-.368 1.856h.064c.342-.682.715-1.194 1.12-1.536.416-.341.944-.512 1.584-.512.768 0 1.36.278 1.776.832.416.555.624 1.296.624 2.224 0 .726-.09 1.43-.272 2.112-.181.683-.448 1.286-.8 1.808-.341.523-.757.944-1.248 1.264-.49.31-1.045.464-1.664.464-.544 0-1.013-.138-1.408-.416-.394-.277-.634-.666-.72-1.168h-.08l-.912 4.592h-1.664zm2.176 7.088c.608 0 1.099-.186 1.472-.56.374-.384.635-.944.784-1.68l.24-1.168c.022-.128.038-.266.048-.416.022-.16.032-.309.032-.448 0-.469-.112-.848-.336-1.136-.224-.298-.565-.448-1.024-.448-.33 0-.629.075-.896.224-.256.15-.485.342-.688.576-.224.256-.416.534-.576.832-.149.299-.261.635-.336 1.008l-.304 1.52c-.096.48-.01.886.256 1.216.267.32.71.48 1.328.48z" fill="#d752f2"/><path d="m100.561 321c-.373 0-.6719-.096-.8959-.288-.2134-.192-.32-.458-.32-.8 0-.181.016-.336.048-.464l.064-.304h-.064c-.3414.683-.72 1.195-1.136 1.536-.4054.342-.928.512-1.568.512-.768 0-1.36-.277-1.776-.832-.416-.554-.624-1.296-.624-2.224 0-.725.0906-1.429.272-2.112.1813-.682.4426-1.285.784-1.808.352-.522.7733-.938 1.264-1.248.4906-.32 1.0453-.48 1.664-.48.544 0 1.0133.144 1.408.432.3949.278.6349.662.7199 1.152h.08l.272-1.392h1.664l-1.392 6.928h1.072l-.272 1.392zm-3.2319-1.232c.3413 0 .64-.074.896-.224.2666-.149.5066-.341.72-.576.4586-.49.7626-1.109.912-1.856l.3359-1.68c.032-.181.021-.362-.032-.544-.053-.181-.149-.341-.2879-.48-.1387-.149-.32-.266-.544-.352-.2134-.096-.4587-.144-.736-.144-.6187 0-1.1147.192-1.488.576-.3734.374-.6347.928-.784 1.664l-.24 1.168c-.0214.128-.0427.272-.064.432-.0107.16-.016.304-.016.432 0 .47.1066.854.32 1.152.224.288.56.432 1.008.432z" fill="#d752f2"/><path d="m87.2454 309.16h1.664l-1.056 5.296h.08c.3094-.64.672-1.125 1.088-1.456.416-.341.9334-.512 1.552-.512.6934 0 1.2107.197 1.552.592.352.395.528.944.528 1.648 0 .181-.0106.363-.032.544-.0213.171-.0533.363-.096.576l-.752 3.76h1.008l-.272 1.392h-1.264c-.352 0-.6346-.091-.848-.272-.2026-.181-.304-.443-.304-.784 0-.064 0-.128 0-.192.0107-.075.0214-.139.032-.192l.72-3.6c.064-.32.096-.613.096-.88 0-.373-.0853-.656-.256-.848-.1706-.203-.448-.304-.832-.304-.5546 0-1.04.235-1.456.704-.2346.256-.4373.555-.608.896-.1706.331-.288.661-.352.992l-.896 4.48h-1.664z" fill="#d752f2"/><path d="m79.18 321.193c-.864 0-1.648-.155-2.352-.464-.6933-.31-1.2266-.822-1.6-1.536l1.328-1.008c.3094.512.6774.885 1.104 1.12.4374.224.9494.336 1.536.336.832 0 1.4667-.198 1.904-.592.4374-.395.656-.88.656-1.456 0-.416-.128-.742-.384-.976-.256-.246-.6346-.422-1.136-.528l-.928-.176c-.8-.171-1.424-.486-1.872-.944-.448-.47-.672-1.104-.672-1.904 0-.48.0907-.928.272-1.344.192-.416.4587-.779.8-1.088.352-.31.7787-.55 1.28-.72.5014-.182 1.0667-.272 1.696-.272.8534 0 1.5894.149 2.208.448.6187.288 1.1147.688 1.488 1.2l-1.248 1.104c-.288-.395-.6293-.694-1.024-.896-.3946-.203-.896-.304-1.504-.304-.6826 0-1.2266.154-1.632.464-.3946.298-.592.72-.592 1.264 0 .416.1227.741.368.976.2454.224.6187.389 1.12.496l.912.176c.8214.17 1.4614.49 1.92.96.4694.469.704 1.109.704 1.92 0 .49-.096.965-.288 1.424-.192.448-.4746.842-.848 1.184-.3733.341-.832.618-1.376.832-.5333.202-1.1466.304-1.84.304z" fill="#d752f2"/><path d="m158.12 222.16h1.664l-1.44 7.216h.096l1.328-1.408 2.448-2.288h1.968l-3.568 3.36 1.456 3.568h1.008l-.272 1.392h-.912c-.373 0-.677-.08-.912-.24-.224-.171-.405-.437-.544-.8l-1.136-2.848-1.376 1.296-.512 2.592h-1.664z" fill="#8d8d8d"/><path d="m151.253 234.192c-.928 0-1.68-.293-2.256-.88-.576-.597-.864-1.466-.864-2.608 0-.725.101-1.402.304-2.032.202-.64.49-1.194.864-1.664.373-.469.816-.837 1.328-1.104.522-.277 1.098-.416 1.728-.416.768 0 1.397.187 1.888.56.501.374.821.864.96 1.472l-1.392.56c-.118-.373-.294-.661-.528-.864-.224-.213-.56-.32-1.008-.32-.576 0-1.046.182-1.408.544-.363.363-.608.88-.736 1.552l-.272 1.376c-.054.267-.08.502-.08.704 0 .512.133.928.4 1.248.266.31.677.464 1.232.464.405 0 .752-.117 1.04-.352.298-.234.592-.613.88-1.136l1.28.608c-.352.747-.811 1.318-1.376 1.712-.566.384-1.227.576-1.984.576z" fill="#8d8d8d"/><path d="m142.503 234.192c-.938 0-1.696-.293-2.272-.88-.576-.586-.864-1.44-.864-2.56 0-.714.107-1.392.32-2.032.214-.64.507-1.2.88-1.68.384-.48.838-.858 1.36-1.136.523-.277 1.099-.416 1.728-.416.939 0 1.696.294 2.272.88.576.587.864 1.44.864 2.56 0 .726-.106 1.408-.32 2.048-.213.63-.512 1.184-.896 1.664-.373.48-.821.859-1.344 1.136-.522.278-1.098.416-1.728.416zm.128-1.408c.523 0 .976-.192 1.36-.576.395-.384.667-.944.816-1.68l.272-1.328c.022-.085.038-.181.048-.288.011-.106.016-.218.016-.336 0-.512-.138-.917-.416-1.216-.266-.309-.666-.464-1.2-.464-.522 0-.981.192-1.376.576-.384.384-.65.944-.8 1.68l-.272 1.328c-.021.096-.037.198-.048.304-.01.096-.016.203-.016.32 0 .512.134.923.4 1.232.278.299.683.448 1.216.448z" fill="#8d8d8d"/><path d="m136.303 234c-.406 0-.715-.101-.928-.304-.214-.213-.32-.485-.32-.816 0-.107.016-.24.048-.4l2.064-10.32h1.664l-2.096 10.448h1.152l-.272 1.392z" fill="#8d8d8d"/><path d="m126.947 222.832h4.384c.843 0 1.504.203 1.984.608.491.405.736.981.736 1.728 0 .352-.048.688-.144 1.008s-.24.613-.432.88c-.181.267-.411.496-.688.688-.277.181-.597.32-.96.416l-.016.08c1.088.277 1.632.965 1.632 2.064 0 .523-.091 1.013-.272 1.472-.171.448-.421.837-.752 1.168-.32.331-.709.592-1.168.784-.459.181-.971.272-1.536.272h-5.008zm2.752 9.648c.48 0 .875-.117 1.184-.352s.517-.603.624-1.104c.053-.277.091-.48.112-.608.021-.139.032-.245.032-.32 0-.331-.112-.592-.336-.784-.213-.192-.539-.288-.976-.288h-2.912l-.688 3.456zm.528-4.896c.501 0 .912-.101 1.232-.304.32-.213.528-.56.624-1.04.053-.256.085-.448.096-.576.021-.128.032-.229.032-.304 0-.309-.101-.555-.304-.736-.192-.181-.485-.272-.88-.272h-2.656l-.656 3.232z" fill="#8d8d8d"/><path d="m116.194 234.192c-1.077 0-1.898-.304-2.464-.912-.554-.618-.832-1.488-.832-2.608 0-.682.102-1.333.304-1.952.214-.629.512-1.184.896-1.664s.848-.858 1.392-1.136c.544-.288 1.152-.432 1.824-.432.331 0 .662.043.992.128.342.086.646.219.912.4.267.182.48.416.64.704.171.288.256.635.256 1.04 0 .886-.448 1.563-1.344 2.032-.885.47-2.277.726-4.176.768-.032.214-.048.39-.048.528 0 .512.139.923.416 1.232.288.31.736.464 1.344.464.459 0 .875-.101 1.248-.304.374-.202.731-.517 1.072-.944l1.056.88c-.522.651-1.072 1.11-1.648 1.376-.576.267-1.189.4-1.84.4zm.992-7.376c-.576 0-1.077.198-1.504.592-.416.384-.688.907-.816 1.568l-.08.416c.758-.032 1.376-.085 1.856-.16.48-.074.854-.176 1.12-.304.278-.128.464-.282.56-.464.096-.181.144-.389.144-.624 0-.202-.037-.368-.112-.496-.074-.138-.176-.245-.304-.32-.117-.085-.25-.138-.4-.16-.149-.032-.304-.048-.464-.048z" fill="#8d8d8d"/><path d="m105.088 225.68h1.664l-.368 1.856h.064c.342-.682.715-1.194 1.12-1.536.416-.341.944-.512 1.584-.512.768 0 1.36.278 1.776.832.416.555.624 1.296.624 2.224 0 .726-.09 1.43-.272 2.112-.181.683-.448 1.286-.8 1.808-.341.523-.757.944-1.248 1.264-.49.31-1.045.464-1.664.464-.544 0-1.013-.138-1.408-.416-.394-.277-.634-.666-.72-1.168h-.08l-.912 4.592h-1.664zm2.176 7.088c.608 0 1.099-.186 1.472-.56.374-.384.635-.944.784-1.68l.24-1.168c.022-.128.038-.266.048-.416.022-.16.032-.309.032-.448 0-.469-.112-.848-.336-1.136-.224-.298-.565-.448-1.024-.448-.33 0-.629.075-.896.224-.256.15-.485.342-.688.576-.224.256-.416.534-.576.832-.149.299-.261.635-.336 1.008l-.304 1.52c-.096.48-.01.886.256 1.216.267.32.71.48 1.328.48z" fill="#8d8d8d"/><path d="m100.561 234c-.373 0-.6719-.096-.8959-.288-.2134-.192-.32-.458-.32-.8 0-.181.016-.336.048-.464l.064-.304h-.064c-.3414.683-.72 1.195-1.136 1.536-.4054.342-.928.512-1.568.512-.768 0-1.36-.277-1.776-.832-.416-.554-.624-1.296-.624-2.224 0-.725.0906-1.429.272-2.112.1813-.682.4426-1.285.784-1.808.352-.522.7733-.938 1.264-1.248.4906-.32 1.0453-.48 1.664-.48.544 0 1.0133.144 1.408.432.3949.278.6349.662.7199 1.152h.08l.272-1.392h1.664l-1.392 6.928h1.072l-.272 1.392zm-3.2319-1.232c.3413 0 .64-.074.896-.224.2666-.149.5066-.341.72-.576.4586-.49.7626-1.109.912-1.856l.3359-1.68c.032-.181.021-.362-.032-.544-.053-.181-.149-.341-.2879-.48-.1387-.149-.32-.266-.544-.352-.2134-.096-.4587-.144-.736-.144-.6187 0-1.1147.192-1.488.576-.3734.374-.6347.928-.784 1.664l-.24 1.168c-.0214.128-.0427.272-.064.432-.0107.16-.016.304-.016.432 0 .47.1066.854.32 1.152.224.288.56.432 1.008.432z" fill="#8d8d8d"/><path d="m87.2454 222.16h1.664l-1.056 5.296h.08c.3094-.64.672-1.125 1.088-1.456.416-.341.9334-.512 1.552-.512.6934 0 1.2107.197 1.552.592.352.395.528.944.528 1.648 0 .181-.0106.363-.032.544-.0213.171-.0533.363-.096.576l-.752 3.76h1.008l-.272 1.392h-1.264c-.352 0-.6346-.091-.848-.272-.2026-.181-.304-.443-.304-.784 0-.064 0-.128 0-.192.0107-.075.0214-.139.032-.192l.72-3.6c.064-.32.096-.613.096-.88 0-.373-.0853-.656-.256-.848-.1706-.203-.448-.304-.832-.304-.5546 0-1.04.235-1.456.704-.2346.256-.4373.555-.608.896-.1706.331-.288.661-.352.992l-.896 4.48h-1.664z" fill="#8d8d8d"/><path d="m79.18 234.193c-.864 0-1.648-.155-2.352-.464-.6933-.31-1.2266-.822-1.6-1.536l1.328-1.008c.3094.512.6774.885 1.104 1.12.4374.224.9494.336 1.536.336.832 0 1.4667-.198 1.904-.592.4374-.395.656-.88.656-1.456 0-.416-.128-.742-.384-.976-.256-.246-.6346-.422-1.136-.528l-.928-.176c-.8-.171-1.424-.486-1.872-.944-.448-.47-.672-1.104-.672-1.904 0-.48.0907-.928.272-1.344.192-.416.4587-.779.8-1.088.352-.31.7787-.55 1.28-.72.5014-.182 1.0667-.272 1.696-.272.8534 0 1.5894.149 2.208.448.6187.288 1.1147.688 1.488 1.2l-1.248 1.104c-.288-.395-.6293-.694-1.024-.896-.3946-.203-.896-.304-1.504-.304-.6826 0-1.2266.154-1.632.464-.3946.298-.592.72-.592 1.264 0 .416.1227.741.368.976.2454.224.6187.389 1.12.496l.912.176c.8214.17 1.4614.49 1.92.96.4694.469.704 1.109.704 1.92 0 .49-.096.965-.288 1.424-.192.448-.4746.842-.848 1.184-.3733.341-.832.618-1.376.832-.5333.202-1.1466.304-1.84.304z" fill="#8d8d8d"/><path d="m363.815 319.16h1.664l-1.44 7.216h.096l1.328-1.408 2.448-2.288h1.968l-3.568 3.36 1.456 3.568h1.008l-.272 1.392h-.912c-.373 0-.677-.08-.912-.24-.224-.171-.405-.437-.544-.8l-1.136-2.848-1.376 1.296-.512 2.592h-1.664z" fill="#009658"/><path d="m356.948 331.191c-.928 0-1.68-.293-2.256-.88-.576-.597-.864-1.466-.864-2.608 0-.725.101-1.402.304-2.032.203-.64.491-1.194.864-1.664.373-.469.816-.837 1.328-1.104.523-.277 1.099-.416 1.728-.416.768 0 1.397.187 1.888.56.501.374.821.864.96 1.472l-1.392.56c-.117-.373-.293-.661-.528-.864-.224-.213-.56-.32-1.008-.32-.576 0-1.045.182-1.408.544-.363.363-.608.88-.736 1.552l-.272 1.376c-.053.267-.08.502-.08.704 0 .512.133.928.4 1.248.267.31.677.464 1.232.464.405 0 .752-.117 1.04-.352.299-.234.592-.613.88-1.136l1.28.608c-.352.747-.811 1.318-1.376 1.712-.565.384-1.227.576-1.984.576z" fill="#009658"/><path d="m348.198 331.191c-.938 0-1.696-.293-2.272-.88-.576-.586-.864-1.44-.864-2.56 0-.714.107-1.392.32-2.032.214-.64.507-1.2.881-1.68.384-.48.837-.858 1.359-1.136.523-.277 1.099-.416 1.728-.416.939 0 1.697.294 2.273.88.576.587.863 1.44.863 2.56 0 .726-.106 1.408-.319 2.048-.214.63-.512 1.184-.896 1.664-.374.48-.822.859-1.345 1.136-.522.278-1.098.416-1.728.416zm.128-1.408c.523 0 .977-.192 1.361-.576.394-.384.666-.944.815-1.68l.272-1.328c.022-.085.038-.181.048-.288.011-.106.017-.218.017-.336 0-.512-.139-.917-.416-1.216-.267-.309-.667-.464-1.201-.464-.522 0-.981.192-1.375.576-.384.384-.651.944-.801 1.68l-.272 1.328c-.021.096-.037.198-.048.304-.01.096-.016.203-.016.32 0 .512.134.923.401 1.232.277.299.682.448 1.215.448z" fill="#009658"/><path d="m341.998 331c-.405 0-.715-.101-.928-.304-.213-.213-.32-.485-.32-.816 0-.107.016-.24.048-.4l2.064-10.32h1.664l-2.096 10.448h1.152l-.272 1.392z" fill="#009658"/><path d="m332.642 319.832h4.384c.843 0 1.504.203 1.984.608.491.405.736.981.736 1.728 0 .352-.048.688-.144 1.008s-.24.613-.432.88c-.181.267-.41.496-.688.688-.277.181-.597.32-.96.416l-.016.08c1.088.277 1.632.965 1.632 2.064 0 .523-.09 1.013-.272 1.472-.17.448-.421.837-.752 1.168-.32.331-.709.592-1.168.784-.458.181-.97.272-1.536.272h-5.008zm2.752 9.648c.48 0 .875-.117 1.184-.352.31-.235.518-.603.624-1.104.054-.277.091-.48.112-.608.022-.139.032-.245.032-.32 0-.331-.112-.592-.336-.784-.213-.192-.538-.288-.976-.288h-2.912l-.688 3.456zm.528-4.896c.502 0 .912-.101 1.232-.304.32-.213.528-.56.624-1.04.054-.256.086-.448.096-.576.022-.128.032-.229.032-.304 0-.309-.101-.555-.304-.736-.192-.181-.485-.272-.88-.272h-2.656l-.656 3.232z" fill="#009658"/><path d="m323.717 331c-.406 0-.715-.101-.928-.304-.214-.213-.32-.485-.32-.816 0-.107.016-.24.048-.4l2.064-10.32h1.664l-2.096 10.448h1.152l-.272 1.392z" fill="#009658"/><path d="m319.498 331c-.405 0-.715-.101-.928-.304-.213-.213-.32-.485-.32-.816 0-.107.016-.24.048-.4l2.064-10.32h1.664l-2.096 10.448h1.152l-.272 1.392z" fill="#009658"/><path d="m316.498 321.192c-.309 0-.533-.064-.672-.192s-.208-.288-.208-.48c0-.107.027-.294.08-.56.053-.246.165-.448.336-.608.171-.171.443-.256.816-.256.309 0 .533.064.672.192s.208.288.208.48c0 .106-.027.293-.08.56-.053.245-.165.453-.336.624-.171.16-.443.24-.816.24zm-1.328 9.808c-.405 0-.715-.102-.928-.304-.213-.214-.32-.486-.32-.816 0-.107.016-.24.048-.4l1.36-6.8h1.664l-1.392 6.928h1.072l-.272 1.392z" fill="#009658"/><path d="m304.98 331 2.24-11.168h6.656l-.32 1.536h-4.912l-.64 3.232h4.432l-.304 1.536h-4.432l-.992 4.864z" fill="#009658"/><path d="m676.418 332.191c-.598 0-1.131-.101-1.6-.304-.47-.202-.87-.49-1.2-.864-.331-.384-.587-.842-.768-1.376-.171-.544-.256-1.146-.256-1.808 0-.661.085-1.258.256-1.792.181-.544.437-1.002.768-1.376.33-.384.73-.677 1.2-.88.469-.202 1.002-.304 1.6-.304.608 0 1.141.107 1.6.32.469.214.858.512 1.168.896.309.374.538.811.688 1.312.16.502.24 1.04.24 1.616v.656h-5.712v.272c0 .64.186 1.168.56 1.584.384.406.928.608 1.632.608.512 0 .944-.112 1.296-.336s.65-.528.896-.912l1.024 1.008c-.31.512-.758.923-1.344 1.232-.587.299-1.27.448-2.048.448zm0-7.344c-.299 0-.576.054-.832.16-.246.107-.459.256-.64.448-.171.192-.304.422-.4.688-.096.267-.144.56-.144.88v.112h3.872v-.16c0-.64-.166-1.152-.496-1.536-.331-.394-.784-.592-1.36-.592z" fill="#471aff"/><path d="m670.368 332c-.598 0-1.046-.149-1.344-.448-.288-.309-.432-.736-.432-1.28v-10.112h1.744v10.416h1.152v1.424z" fill="#471aff"/><path d="m665.237 322.192c-.362 0-.629-.086-.8-.256-.16-.171-.24-.39-.24-.656v-.272c0-.267.08-.486.24-.656.171-.171.438-.256.8-.256.363 0 .624.085.784.256.16.17.24.389.24.656v.272c0 .266-.08.485-.24.656-.16.17-.421.256-.784.256zm-.88 1.488h1.744v8.32h-1.744z" fill="#471aff"/><path d="m655.36 332v-11.168h6.976v1.6h-5.168v3.104h4.592v1.6h-4.592v4.864z" fill="#471aff"/><path d="m645.824 332.191c-.597 0-1.131-.101-1.6-.304-.469-.202-.869-.49-1.2-.864-.331-.384-.587-.842-.768-1.376-.171-.544-.256-1.146-.256-1.808 0-.661.085-1.258.256-1.792.181-.544.437-1.002.768-1.376.331-.384.731-.677 1.2-.88.469-.202 1.003-.304 1.6-.304.608 0 1.141.107 1.6.32.469.214.859.512 1.168.896.309.374.539.811.688 1.312.16.502.24 1.04.24 1.616v.656h-5.712v.272c0 .64.187 1.168.56 1.584.384.406.928.608 1.632.608.512 0 .944-.112 1.296-.336s.651-.528.896-.912l1.024 1.008c-.309.512-.757.923-1.344 1.232-.587.299-1.269.448-2.048.448zm0-7.344c-.299 0-.576.054-.832.16-.245.107-.459.256-.64.448-.171.192-.304.422-.4.688-.096.267-.144.56-.144.88v.112h3.872v-.16c0-.64-.165-1.152-.496-1.536-.331-.394-.784-.592-1.36-.592z" fill="#471aff"/><path d="m633.279 331.999v-8.32h1.744v1.376h.08c.182-.448.454-.821.816-1.12.374-.298.88-.448 1.52-.448.854 0 1.515.283 1.984.848.48.555.72 1.35.72 2.384v5.28h-1.744v-5.056c0-1.301-.522-1.952-1.568-1.952-.224 0-.448.032-.672.096-.213.054-.405.139-.576.256-.17.118-.309.267-.416.448-.096.182-.144.395-.144.64v5.568z" fill="#471aff"/><path d="m627.652 332.191c-.597 0-1.131-.101-1.6-.304-.469-.202-.869-.49-1.2-.864-.331-.384-.587-.842-.768-1.376-.171-.544-.256-1.146-.256-1.808 0-.661.085-1.258.256-1.792.181-.544.437-1.002.768-1.376.331-.384.731-.677 1.2-.88.469-.202 1.003-.304 1.6-.304.608 0 1.141.107 1.6.32.469.214.859.512 1.168.896.309.374.539.811.688 1.312.16.502.24 1.04.24 1.616v.656h-5.712v.272c0 .64.187 1.168.56 1.584.384.406.928.608 1.632.608.512 0 .944-.112 1.296-.336s.651-.528.896-.912l1.024 1.008c-.309.512-.757.923-1.344 1.232-.587.299-1.269.448-2.048.448zm0-7.344c-.299 0-.576.054-.832.16-.245.107-.459.256-.64.448-.171.192-.304.422-.4.688-.096.267-.144.56-.144.88v.112h3.872v-.16c0-.64-.165-1.152-.496-1.536-.331-.394-.784-.592-1.36-.592z" fill="#471aff"/><path d="m619.542 332.191c-.598 0-1.131-.101-1.6-.304-.47-.202-.864-.49-1.184-.864-.32-.384-.566-.842-.736-1.376-.171-.544-.256-1.146-.256-1.808 0-.661.085-1.258.256-1.792.17-.544.416-1.002.736-1.376.32-.384.714-.677 1.184-.88.469-.202 1.002-.304 1.6-.304.832 0 1.514.187 2.048.56.533.374.922.87 1.168 1.488l-1.44.672c-.118-.384-.326-.688-.624-.912-.288-.234-.672-.352-1.152-.352-.64 0-1.126.203-1.456.608-.32.395-.48.912-.48 1.552v1.488c0 .64.16 1.163.48 1.568.33.395.816.592 1.456.592.512 0 .917-.122 1.216-.368.309-.256.554-.592.736-1.008l1.328.704c-.278.683-.694 1.206-1.248 1.568-.555.363-1.232.544-2.032.544z" fill="#471aff"/><path d="m610.235 332.192c-.938 0-1.738-.171-2.4-.512-.65-.342-1.21-.8-1.68-1.376l1.248-1.168c.395.48.827.842 1.296 1.088.48.245 1.024.368 1.632.368.715 0 1.254-.16 1.616-.48.363-.32.544-.752.544-1.296 0-.438-.128-.784-.384-1.04s-.709-.448-1.36-.576l-.992-.176c-1.088-.203-1.904-.56-2.448-1.072s-.816-1.216-.816-2.112c0-.491.091-.934.272-1.328.192-.406.454-.742.784-1.008.342-.278.752-.491 1.232-.64.48-.15 1.019-.224 1.616-.224.843 0 1.574.149 2.192.448.619.288 1.147.709 1.584 1.264l-1.264 1.12c-.288-.374-.64-.672-1.056-.896s-.933-.336-1.552-.336c-.64 0-1.136.128-1.488.384s-.528.629-.528 1.12c0 .469.144.821.432 1.056.288.224.736.394 1.344.512l.992.208c1.12.213 1.936.576 2.448 1.088.523.512.784 1.216.784 2.112 0 .522-.09.997-.272 1.424-.181.426-.448.794-.8 1.104-.341.298-.762.533-1.264.704-.501.16-1.072.24-1.712.24z" fill="#471aff"/><path clip-rule="evenodd" d="m228.119 229h29.881v2h-27.881v85h-42.119v-2h40.119z" fill="#542bff" fill-rule="evenodd"/></svg>