<svg width="24" height="24" viewBox="0 0 24 24" fill="none" xmlns="http://www.w3.org/2000/svg">
<path d="M19 3C20.1046 3 21 3.89543 21 5V10C21 11.1046 20.1046 12 19 12H15C13.8954 12 13 11.1046 13 10V5C13 3.89543 13.8954 3 15 3H19Z" fill="#282F35"/>
<path d="M9 11C10.1046 11 11 11.8954 11 13V19C11 20.1046 10.1046 21 9 21H5C3.89543 21 3 20.1046 3 19V13C3 11.8954 3.89543 11 5 11H9Z" fill="#282F35"/>
<path d="M9 3C10.1046 3 11 3.89543 11 5V7C11 8.10457 10.1046 9 9 9H5C3.89543 9 3 8.10457 3 7V5C3 3.89543 3.89543 3 5 3H9Z" fill="#282F35"/>
<path d="M19 14C20.1046 14 21 14.8954 21 16V19C21 20.1046 20.1046 21 19 21H15C13.8954 21 13 20.1046 13 19V16C13 14.8954 13.8954 14 15 14H19Z" fill="#282F35"/>
</svg>
