<svg width="24" height="24" viewBox="0 0 24 24" fill="none" xmlns="http://www.w3.org/2000/svg">
<path fill-rule="evenodd" clip-rule="evenodd" d="M12.7689 2.36057L12 3L11.2311 2.36057C11.4211 2.13213 11.7029 2 12 2C12.2971 2 12.5789 2.13213 12.7689 2.36057ZM12 4.56352C11.6124 5.02923 11.1118 5.63062 10.5781 6.27133C9.40318 7.68166 8.06546 9.28548 7.42142 10.0505C6.53464 11.1039 6 12.4657 6 13.9565C6 17.3001 8.69212 20 12 20C15.3079 20 18 17.3001 18 13.9565C18 12.4657 17.4654 11.1039 16.5786 10.0505C15.9345 9.28548 14.5968 7.68166 13.4219 6.27133C12.8882 5.63062 12.3876 5.02923 12 4.56352ZM12 3L11.2311 2.36057L10.577 3.14687C10.1764 3.62823 9.62894 4.28591 9.04139 4.99122C7.86547 6.40281 6.53141 8.00223 5.89142 8.76244C4.71161 10.1639 4 11.9783 4 13.9565C4 18.393 7.57589 22 12 22C16.4241 22 20 18.393 20 13.9565C20 11.9783 19.2884 10.1639 18.1086 8.76244C17.4686 8.00223 16.1345 6.40281 14.9586 4.99122C14.3711 4.28591 13.8236 3.62823 13.423 3.14687L12.7689 2.36057L12 3Z" fill="#282F35"/>
<path d="M12.0221 4.59033L12.7817 7.62846C13.2334 9.43521 12.8047 11.3491 11.6253 12.7905C10.0502 14.7157 9.85318 17.4226 11.133 19.5556L11.3804 19.9679C11.584 19.9889 11.7905 19.9997 11.9996 19.9997C15.3075 19.9997 17.9996 17.2998 17.9996 13.9562C17.9996 12.4654 17.4649 11.1036 16.5782 10.0502C15.9341 9.28519 14.5964 7.68137 13.4215 6.27104C12.8981 5.64269 12.4065 5.05216 12.0221 4.59033Z" fill="#282F35"/>
</svg>
