<svg width="24" height="24" viewBox="0 0 24 24" fill="none" xmlns="http://www.w3.org/2000/svg">
<path d="M16.8372 1.83691L13.8372 4.8369L12.0001 2.99974L9.91428 5.08557L18.9144 14.0857L21.0001 12L19.1629 10.1628L22.1629 7.16277L20.8371 5.83694L17.8371 8.83694L15.163 6.16275L18.163 3.16274L16.8372 1.83691Z" fill="#282F35"/>
<path d="M6.56532 15.3136C5.23847 13.1414 5.33271 10.3459 6.84806 8.26235L15.7376 17.1519C13.6541 18.6671 10.8588 18.7614 8.68671 17.4348L5.56077 20.5608L3.43945 18.4394L6.56532 15.3136Z" fill="#282F35"/>
<path fill-rule="evenodd" clip-rule="evenodd" d="M20.2914 21.7086L2.29135 3.70865L3.70557 2.29443L21.7056 20.2944L20.2914 21.7086Z" fill="#282F35"/>
</svg>
