<svg width="24" height="24" viewBox="0 0 24 24" fill="none" xmlns="http://www.w3.org/2000/svg">
<path d="M4.5 4H12.5C12.7761 4 13 4.22386 13 4.5V5H15V4.5C15 3.11929 13.8807 2 12.5 2H4.5C3.11929 2 2 3.11929 2 4.5V12.5C2 13.8807 3.11929 15 4.5 15H5V13H4.5C4.22386 13 4 12.7761 4 12.5V4.5C4 4.22386 4.22386 4 4.5 4Z" fill="#282F35"/>
<path fill-rule="evenodd" clip-rule="evenodd" d="M18.5 9H9.5C9.22386 9 9 9.22386 9 9.5V18.5C9 18.7761 9.22386 19 9.5 19H18.5C18.7761 19 19 18.7761 19 18.5V9.5C19 9.22386 18.7761 9 18.5 9ZM9.5 7C8.11929 7 7 8.11929 7 9.5V18.5C7 19.8807 8.11929 21 9.5 21H18.5C19.8807 21 21 19.8807 21 18.5V9.5C21 8.11929 19.8807 7 18.5 7H9.5Z" fill="#282F35"/>
</svg>
