<svg width="24" height="24" viewBox="0 0 24 24" fill="none" xmlns="http://www.w3.org/2000/svg">
<path d="M7 8C7 7.44772 7.44772 7 8 7H16C16.5523 7 17 7.44772 17 8V16C17 16.5523 16.5523 17 16 17H8C7.44772 17 7 16.5523 7 16V8Z" fill="#282F35"/>
<path fill-rule="evenodd" clip-rule="evenodd" d="M1.25 7C1.25 5.48122 2.48122 4.25 4 4.25H20C21.5188 4.25 22.75 5.48122 22.75 7V17C22.75 18.5188 21.5188 19.75 20 19.75H4C2.48122 19.75 1.25 18.5188 1.25 17V7ZM4 5.75C3.30964 5.75 2.75 6.30964 2.75 7V17C2.75 17.6904 3.30964 18.25 4 18.25H20C20.6904 18.25 21.25 17.6904 21.25 17V7C21.25 6.30964 20.6904 5.75 20 5.75H4Z" fill="#282F35"/>
</svg>
