<svg width="24" height="24" viewBox="0 0 24 24" fill="none" xmlns="http://www.w3.org/2000/svg">
<path opacity="0.15" d="M15.666 19.1125C17.133 17.1221 18 14.6623 18 12C18 9.33771 17.133 6.87792 15.666 4.88754C14.5678 4.32032 13.3213 4 12 4C7.58172 4 4 7.58172 4 12C4 16.4183 7.58172 20 12 20C13.3213 20 14.5678 19.6797 15.666 19.1125Z" fill="#282F35"/>
<path opacity="0.4" d="M12.3079 19.9942C14.5672 18.0683 16 15.2015 16 12C16 8.79854 14.5672 5.93173 12.3079 4.00582C12.2057 4.00195 12.1031 4 12 4C7.58172 4 4 7.58172 4 12C4 16.4183 7.58172 20 12 20C12.1031 20 12.2057 19.998 12.3079 19.9942Z" fill="#282F35"/>
<path opacity="0.6" d="M9.71337 19.6685C12.2854 18.0843 14 15.2423 14 11.9999C14 8.75764 12.2855 5.91579 9.71365 4.33154C6.40942 5.31523 4 8.37627 4 12.0001C4 15.6238 6.40928 18.6847 9.71337 19.6685Z" fill="#282F35"/>
<path fill-rule="evenodd" clip-rule="evenodd" d="M22 12C22 17.5228 17.5228 22 12 22C6.47715 22 2 17.5228 2 12C2 6.47715 6.47715 2 12 2C17.5228 2 22 6.47715 22 12ZM20 12C20 16.4183 16.4183 20 12 20C10.3314 20 8.7821 19.4891 7.49999 18.6153C9.61276 17.1753 11 14.7497 11 12C11 9.25032 9.61277 6.82465 7.5 5.38468C8.78211 4.51085 10.3314 4 12 4C16.4183 4 20 7.58172 20 12Z" fill="#282F35"/>
</svg>
