<svg width="24" height="24" viewBox="0 0 24 24" fill="none" xmlns="http://www.w3.org/2000/svg">
<path d="M6 3H9V5H6C5.44772 5 5 5.44772 5 6V18C5 18.5523 5.44772 19 6 19H18C18.5523 19 19 18.5523 19 18V15H21V18C21 19.6569 19.6569 21 18 21H6C4.34315 21 3 19.6569 3 18V6C3 4.34315 4.34315 3 6 3Z" fill="#282F35"/>
<path fill-rule="evenodd" clip-rule="evenodd" d="M21.707 2.29312C20.4881 1.07417 18.5118 1.07417 17.2928 2.29312L9.62591 9.96005L8.20937 14.2097C7.88364 15.1868 8.81331 16.1165 9.79051 15.7908L14.0401 14.3743L21.7071 6.70733C22.926 5.48838 22.926 3.51207 21.707 2.29312ZM18.7071 3.70733C19.145 3.26943 19.8549 3.26943 20.2928 3.70733C20.7307 4.14524 20.7307 4.85522 20.2928 5.29312L13.1678 12.4181L11.582 10.8323L18.7071 3.70733Z" fill="#282F35"/>
</svg>
