<svg width="24" height="24" viewBox="0 0 24 24" fill="none" xmlns="http://www.w3.org/2000/svg">
<path d="M9 4V6L6 6L6 9H4L4 4L9 4Z" fill="#282F35"/>
<path d="M4 15H6L6 18H9L9 20H4L4 15Z" fill="#282F35"/>
<path d="M15 20V18H18V16H20V20H15Z" fill="#282F35"/>
<path d="M17.2928 13.2069L12.7928 8.70691L14.207 7.29271L17 10.0857L17 5.60536C17 4.00797 15.2197 3.05519 13.8906 3.94126L12.5547 4.83186L11.4453 3.16776L12.7812 2.27716C15.4394 0.505011 19 2.41058 19 5.60536L19 10.0855L21.7928 7.29271L23.207 8.70692L18.707 13.2069C18.5195 13.3945 18.2652 13.4998 17.9999 13.4998C17.7347 13.4998 17.4804 13.3945 17.2928 13.2069Z" fill="#282F35"/>
</svg>
