<svg width="24" height="24" viewBox="0 0 24 24" fill="none" xmlns="http://www.w3.org/2000/svg">
<path fill-rule="evenodd" clip-rule="evenodd" d="M12.3536 2.76754C12.1583 2.57228 11.8417 2.57228 11.6464 2.76754L2.70711 11.7069C2.31658 12.0974 1.68342 12.0974 1.29289 11.7069C0.902369 11.3164 0.902369 10.6832 1.29289 10.2927L10.2322 1.35333C11.2085 0.377015 12.7915 0.377017 13.7678 1.35333L22.7071 10.2927C23.0976 10.6832 23.0976 11.3164 22.7071 11.7069C22.3166 12.0974 21.6834 12.0974 21.2929 11.7069L12.3536 2.76754Z" fill="#282F35"/>
<path d="M11.8232 5.17674C11.9209 5.07911 12.0791 5.07911 12.1768 5.17674L19.4268 12.4267C19.4737 12.4736 19.5 12.5371 19.5 12.6035V19.9995C19.5 20.5517 19.0524 20.9994 18.5002 20.9995L15 21.0001V14.9993C15 14.1709 14.3284 13.4993 13.5 13.4993H10.5C9.67157 13.4993 9 14.1709 9 14.9993V21.0001L5.49983 20.9995C4.94761 20.9994 4.5 20.5517 4.5 19.9995V12.6035C4.5 12.5371 4.52634 12.4736 4.57322 12.4267L11.8232 5.17674Z" fill="#282F35"/>
</svg>
