<svg width="24" height="24" viewBox="0 0 24 24" fill="none" xmlns="http://www.w3.org/2000/svg">
<path d="M5.69936 15.5002L3.58937 16.6724C3.33219 16.8153 3.33219 17.1851 3.58937 17.328L11.2708 21.5955C11.7239 21.8472 12.2747 21.8472 12.7278 21.5955L20.4093 17.328C20.6664 17.1851 20.6664 16.8153 20.4093 16.6724L18.299 15.5L12.7275 18.5953C12.2745 18.847 11.7236 18.847 11.2706 18.5953L5.69936 15.5002Z" fill="#282F35"/>
<path fill-rule="evenodd" clip-rule="evenodd" d="M3.59006 7.32769C3.33288 7.18481 3.33288 6.81495 3.59006 6.67207L11.2715 2.40458C11.7246 2.1529 12.2754 2.1529 12.7285 2.40458L20.4099 6.67207C20.6671 6.81495 20.6671 7.18481 20.4099 7.32769L12.7285 11.5952C12.2754 11.8469 11.7246 11.8469 11.2715 11.5952L3.59006 7.32769ZM12 9.71196L7.11825 6.99988L12 4.2878L16.8817 6.99988L12 9.71196Z" fill="#282F35"/>
<path d="M5.69831 10.5002L7.75743 11.6441L7.11756 11.9996L11.9993 14.7117L16.8811 11.9996L16.2409 11.644L18.3 10.5L20.4093 11.6718C20.6664 11.8147 20.6664 12.1845 20.4093 12.3274L12.7278 16.5949C12.2747 16.8466 11.7239 16.8466 11.2708 16.5949L3.58937 12.3274C3.33219 12.1845 3.33219 11.8147 3.58937 11.6718L5.69831 10.5002Z" fill="#282F35"/>
</svg>
