<svg width="24" height="24" viewBox="0 0 24 24" fill="none" xmlns="http://www.w3.org/2000/svg">
<path d="M13.2623 19.0108L12.0003 19.7119L7.11854 16.9998L9.55912 15.644L7.5 14.5L3.59035 16.672C3.33317 16.8149 3.33317 17.1848 3.59034 17.3276L11.2718 21.5951C11.7249 21.8468 12.2757 21.8468 12.7288 21.5951L14.6821 20.51C14.1383 20.0833 13.6593 19.5778 13.2623 19.0108Z" fill="#282F35"/>
<path d="M3.59035 6.67207L11.2718 2.40458C11.7249 2.1529 12.2757 2.1529 12.7288 2.40458L20.4102 6.67207C20.6674 6.81495 20.6674 7.18481 20.4102 7.32769L19.1953 8.00267C19.1304 8.00089 19.0653 8 19 8C16.4214 8 14.1684 9.3943 12.9539 11.4701L12.7288 11.5952C12.2757 11.8469 11.7249 11.8469 11.2718 11.5952L3.59034 7.32769C3.33317 7.18481 3.33317 6.81495 3.59035 6.67207Z" fill="#282F35"/>
<path d="M22.7072 14.7929L18.7072 10.7929C18.5197 10.6054 18.2653 10.5 18.0001 10.5C17.7349 10.5 17.4805 10.6054 17.293 10.7929L13.293 14.7929L14.7072 16.2071L17 13.9143V20H19V13.9141L21.293 16.2071L22.7072 14.7929Z" fill="#282F35"/>
</svg>
