<svg width="24" height="24" viewBox="0 0 24 24" fill="none" xmlns="http://www.w3.org/2000/svg">
<path d="M12.006 14.7078C12.002 14.8047 12 14.9021 12 15C12 15.6102 12.0781 16.2022 12.2248 16.7665C11.9013 16.8156 11.5654 16.7584 11.2708 16.5947L3.58937 12.3273C3.33219 12.1844 3.33219 11.8145 3.58937 11.6716L5.69831 10.5L7.75743 11.644L7.11756 11.9994L11.9993 14.7115L12.006 14.7078Z" fill="#282F35"/>
<path d="M13.2617 19.0101C13.6587 19.5771 14.1377 20.0826 14.6813 20.5094L12.7278 21.5947C12.2747 21.8463 11.7239 21.8463 11.2708 21.5947L3.58937 17.3272C3.33219 17.1843 3.33219 16.8144 3.58937 16.6715L5.69843 15.4998L7.75756 16.6438L7.11756 16.9994L11.9993 19.7114L13.2617 19.0101Z" fill="#282F35"/>
<path d="M3.59035 6.67207L11.2718 2.40458C11.7249 2.1529 12.2757 2.1529 12.7288 2.40458L20.4102 6.67207C20.6674 6.81495 20.6674 7.18481 20.4102 7.32769L19.1953 8.00267C19.1304 8.00089 19.0653 8 19 8C16.4214 8 14.1684 9.3943 12.9539 11.4701L12.7288 11.5952C12.2757 11.8469 11.7249 11.8469 11.2718 11.5952L3.59034 7.32769C3.33317 7.18481 3.33317 6.81495 3.59035 6.67207Z" fill="#282F35"/>
<path d="M18.7072 10.7929L22.7072 14.7929L21.293 16.2071L19.0001 13.9142V20H17.0001V13.9142L14.7072 16.2071L13.293 14.7929L17.293 10.7929C17.4805 10.6053 17.7349 10.5 18.0001 10.5C18.2653 10.5 18.5197 10.6053 18.7072 10.7929Z" fill="#282F35"/>
<path d="M17.0001 21V23H19.0001V21H17.0001Z" fill="#282F35"/>
</svg>
