<svg width="24" height="24" viewBox="0 0 24 24" fill="none" xmlns="http://www.w3.org/2000/svg">
<path d="M7.5 14.5001L3.59035 16.6721C3.33317 16.815 3.33317 17.1849 3.59034 17.3277L11.2718 21.5952C11.7249 21.8469 12.2757 21.8469 12.7288 21.5952L20.4102 17.3277C20.6674 17.1849 20.6674 16.815 20.4102 16.6721L16.5004 14.5L14.4413 15.644L16.882 16.9999L12.0003 19.712L7.11854 16.9999L9.55912 15.6441L7.5 14.5001Z" fill="#282F35"/>
<path d="M3.59006 6.67219L11.2715 2.4047C11.7246 2.15302 12.2754 2.15302 12.7285 2.4047L20.4099 6.67219C20.6671 6.81507 20.6671 7.18493 20.4099 7.32781L12.7285 11.5953C12.2754 11.847 11.7246 11.847 11.2715 11.5953L3.59006 7.32781C3.33288 7.18493 3.33288 6.81507 3.59006 6.67219Z" fill="#282F35"/>
</svg>
