<svg width="24" height="24" viewBox="0 0 24 24" fill="none" xmlns="http://www.w3.org/2000/svg">
<path d="M14 20H18C19.6569 20 21 18.6569 21 17L21 13C21 11.3431 19.6569 10 18 10H14V12L18 12C18.5523 12 19 12.4477 19 13L19 17C19 17.5523 18.5523 18 18 18H14V20Z" fill="#282F35"/>
<path fill-rule="evenodd" clip-rule="evenodd" d="M2 7C2 5.34315 3.34315 4 5 4H9C10.6569 4 12 5.34315 12 7V17C12 18.6569 10.6569 20 9 20H5C3.34315 20 2 18.6569 2 17V7ZM5 6C4.44772 6 4 6.44772 4 7V17C4 17.5523 4.44772 18 5 18H9C9.55228 18 10 17.5523 10 17V7C10 6.44772 9.55228 6 9 6H5Z" fill="#282F35"/>
<path fill-rule="evenodd" clip-rule="evenodd" d="M2 7C2 5.34315 3.34315 4 5 4H9C10.6569 4 12 5.34315 12 7V17C12 18.6569 10.6569 20 9 20H5C3.34315 20 2 18.6569 2 17V7Z" fill="#282F35"/>
</svg>
