<svg width="24" height="24" viewBox="0 0 24 24" fill="none" xmlns="http://www.w3.org/2000/svg">
<path d="M10 5C10 3.89543 10.8954 3 12 3C13.1046 3 14 3.89543 14 5V19C14 20.1046 13.1046 21 12 21C10.8954 21 10 20.1046 10 19V5Z" fill="#282F35"/>
<path d="M6.79292 17.7072L1.7929 12.7072C1.60536 12.5196 1.5 12.2653 1.5 12.0001C1.5 11.7349 1.60536 11.4805 1.7929 11.293L6.79292 6.29297L8.20713 7.70719L4.9143 11H9.0001V13H4.91415L8.20713 16.293L6.79292 17.7072Z" fill="#282F35"/>
<path d="M17.2073 17.7072L22.2073 12.7072C22.3948 12.5196 22.5002 12.2653 22.5002 12.0001C22.5002 11.7349 22.3948 11.4805 22.2073 11.293L17.2073 6.29297L15.7931 7.70719L19.0859 11H15.0001V13H19.0861L15.7931 16.293L17.2073 17.7072Z" fill="#282F35"/>
</svg>
