<svg width="24" height="24" viewBox="0 0 24 24" fill="none" xmlns="http://www.w3.org/2000/svg">
<path d="M12 4C7.58172 4 4 7.58172 4 12H2C2 6.47715 6.47715 2 12 2C15.7234 2 18.9697 4.03455 20.691 7.05063L21.5423 4.21288L23.458 4.78758L21.701 10.6441L15.3212 9.48386L15.6791 7.51614L18.9979 8.11971C17.632 5.66179 15.0091 4 12 4Z" fill="#282F35"/>
<path d="M11.9999 10C13.1045 10 13.9999 10.8954 13.9999 12C13.9999 13.1046 13.1045 14 11.9999 14C10.8953 14 9.99989 13.1046 9.99989 12C9.99989 10.8954 10.8953 10 11.9999 10Z" fill="#282F35"/>
<path fill-rule="evenodd" clip-rule="evenodd" d="M2.19032 13.9505C2.06536 13.3189 2 12.6666 2 12H4C4 12.5356 4.05249 13.0579 4.15229 13.5624L2.19032 13.9505ZM21.4307 15.3332C21.2585 15.8206 21.0496 16.2905 20.8074 16.7397L19.047 15.7905C19.2406 15.4314 19.4075 15.0559 19.545 14.6668L21.4307 15.3332ZM6.44314 20.3151C5.35306 19.5853 4.41474 18.6469 3.68494 17.5569L5.34688 16.4442C5.93123 17.3171 6.68294 18.0688 7.55578 18.6531L6.44314 20.3151ZM18.9572 19.1832C18.2234 19.894 17.3805 20.4937 16.4557 20.9547L15.5635 19.1647C16.3028 18.7962 16.9776 18.3163 17.5656 17.7467L18.9572 19.1832ZM12 22C11.3334 22 10.6811 21.9346 10.0495 21.8097L10.4376 19.8477C10.9421 19.9475 11.4644 20 12 20C12.4181 20 12.8282 19.968 13.2279 19.9065L13.532 21.8832C13.032 21.9602 12.5203 22 12 22Z" fill="#282F35"/>
</svg>
