<svg width="24" height="24" viewBox="0 0 24 24" fill="none" xmlns="http://www.w3.org/2000/svg">
<path d="M9.0976 4.28053L5.36113 7.14604C5.80599 7.40136 6.1792 7.76739 6.44316 8.20656L9.84812 5.59528C9.4951 5.23364 9.23269 4.78316 9.0976 4.28053Z" fill="#282F35"/>
<path d="M14.1463 5.59072C14.4987 5.22828 14.7602 4.77711 14.8942 4.27393L18.6348 7.14264C18.1892 7.39705 17.8151 7.76242 17.5501 8.20111L14.1463 5.59072Z" fill="#282F35"/>
<path d="M18.8771 12.481L17.4744 17.038C17.991 17.1209 18.4635 17.3358 18.8563 17.647L20.3669 12.7398C20.2855 12.7464 20.2031 12.7498 20.12 12.7498C19.6767 12.7498 19.2558 12.6536 18.8771 12.481Z" fill="#282F35"/>
<path d="M14.1437 20.9353C14.0472 20.641 13.995 20.3265 13.995 19.9999C13.995 19.8069 14.0132 19.6182 14.048 19.4353H9.94197C9.97679 19.6182 9.99501 19.8069 9.99501 19.9999C9.99501 20.3265 9.9428 20.641 9.84628 20.9353H14.1437Z" fill="#282F35"/>
<path d="M5.14202 17.6404C5.53567 17.3308 6.00871 17.1176 6.52555 17.0364L5.12204 12.4769C4.74099 12.6521 4.31691 12.7498 3.87001 12.7498C3.79051 12.7498 3.71173 12.7467 3.63379 12.7406L5.14202 17.6404Z" fill="#282F35"/>
<path d="M10.5 3.5C10.5 4.32843 11.1716 5 12 5C12.8284 5 13.5 4.32843 13.5 3.5C13.5 2.67157 12.8284 2 12 2C11.1716 2 10.5 2.67157 10.5 3.5Z" fill="#282F35"/>
<path d="M3.875 11.25C3.04657 11.25 2.375 10.5784 2.375 9.74997C2.375 8.92155 3.04657 8.24997 3.875 8.24997C4.70343 8.24997 5.375 8.92155 5.375 9.74997C5.375 10.5784 4.70343 11.25 3.875 11.25Z" fill="#282F35"/>
<path d="M20.125 11.25C19.2966 11.25 18.625 10.5784 18.625 9.74997C18.625 8.92155 19.2966 8.24997 20.125 8.24997C20.9534 8.24997 21.625 8.92155 21.625 9.74997C21.625 10.5784 20.9534 11.25 20.125 11.25Z" fill="#282F35"/>
<path d="M7 21.5C6.17157 21.5 5.5 20.8285 5.5 20C5.5 19.1716 6.17157 18.5 7 18.5C7.82843 18.5 8.5 19.1716 8.5 20C8.5 20.8285 7.82843 21.5 7 21.5Z" fill="#282F35"/>
<path d="M15.5 20C15.5 20.8285 16.1716 21.5 17 21.5C17.8284 21.5 18.5 20.8285 18.5 20C18.5 19.1716 17.8284 18.5 17 18.5C16.1716 18.5 15.5 19.1716 15.5 20Z" fill="#282F35"/>
</svg>
