<svg width="24" height="24" viewBox="0 0 24 24" fill="none" xmlns="http://www.w3.org/2000/svg">
<path fill-rule="evenodd" clip-rule="evenodd" d="M3.5 7.625C3.5 5.34683 5.34683 3.5 7.625 3.5C9.90317 3.5 11.75 5.34683 11.75 7.625C11.75 9.90317 9.90317 11.75 7.625 11.75C5.34683 11.75 3.5 9.90317 3.5 7.625ZM7.625 10.25C6.17525 10.25 5 9.07475 5 7.625C5 6.17525 6.17525 5 7.625 5C9.07475 5 10.25 6.17525 10.25 7.625C10.25 9.07475 9.07475 10.25 7.625 10.25Z" fill="#282F35"/>
<path fill-rule="evenodd" clip-rule="evenodd" d="M15.9256 11.3101C16.07 11.0608 16.4301 11.0608 16.5745 11.3102L20.7022 18.4371C20.847 18.6871 20.6666 19 20.3777 19H12.1207C11.8317 19 11.6514 18.687 11.7962 18.437L15.9256 11.3101ZM14.0727 17.5L16.2498 13.7425L18.426 17.5H14.0727Z" fill="#282F35"/>
<path d="M1.5 3C1.5 3.82843 2.17157 4.5 3 4.5C3.82843 4.5 4.5 3.82843 4.5 3C4.5 2.17157 3.82843 1.5 3 1.5C2.17157 1.5 1.5 2.17157 1.5 3Z" fill="#282F35"/>
<path d="M10 21C10 21.8284 10.6716 22.5 11.5 22.5C12.3284 22.5 13 21.8284 13 21C13 20.1716 12.3284 19.5 11.5 19.5C10.6716 19.5 10 20.1716 10 21Z" fill="#282F35"/>
<path d="M12.5 4.5C11.6716 4.5 11 3.82843 11 3C11 2.17157 11.6716 1.5 12.5 1.5C13.3284 1.5 14 2.17157 14 3C14 3.82843 13.3284 4.5 12.5 4.5Z" fill="#282F35"/>
<path d="M1.5 12.5C1.5 13.3284 2.17157 14 3 14C3.82843 14 4.5 13.3284 4.5 12.5C4.5 11.6716 3.82843 11 3 11C2.17157 11 1.5 11.6716 1.5 12.5Z" fill="#282F35"/>
<path d="M21 22.5C20.1716 22.5 19.5 21.8284 19.5 21C19.5 20.1716 20.1716 19.5 21 19.5C21.8284 19.5 22.5 20.1716 22.5 21C22.5 21.8284 21.8284 22.5 21 22.5Z" fill="#282F35"/>
<path d="M19.5 11.5C19.5 12.3284 20.1716 13 21 13C21.8284 13 22.5 12.3284 22.5 11.5C22.5 10.6716 21.8284 10 21 10C20.1716 10 19.5 10.6716 19.5 11.5Z" fill="#282F35"/>
</svg>
