<svg width="24" height="24" viewBox="0 0 24 24" fill="none" xmlns="http://www.w3.org/2000/svg">
<path d="M3 13.4999V10.4999C3 9.67147 3.6716 8.9999 4.50004 8.99992L7.5 9L12.1464 4.35355C12.4614 4.03857 13 4.26165 13 4.70711V19.2929C13 19.7383 12.4614 19.9614 12.1464 19.6464L7.5 14.9999H4.5C3.67157 14.9999 3 14.3283 3 13.4999Z" fill="#282F35"/>
<path d="M21 12.0006C21 15.9192 18.4956 19.253 15 20.4885V18.3269C17.3649 17.2035 19 14.793 19 12.0006C19 9.20818 17.3649 6.79767 15 5.67421V3.5127C18.4956 4.7482 21 8.08192 21 12.0006Z" fill="#282F35"/>
<path d="M15 15.3547V8.64642C15.9206 9.4704 16.5 10.6678 16.5 12.0006C16.5 13.3333 15.9206 14.5308 15 15.3547Z" fill="#282F35"/>
</svg>
