<svg width="24" height="24" viewBox="0 0 24 24" fill="none" xmlns="http://www.w3.org/2000/svg">
  <path d="M4.5 4H13.5C13.7761 4 14 4.22386 14 4.5V5H16V4.5C16 3.11929 14.8807 2 13.5 2H4.5C3.11929 2 2 3.11929 2 4.5V13.5C2 14.8807 3.11929 16 4.5 16H5V14H4.5C4.22386 14 4 13.7761 4 13.5V4.5C4 4.22386 4.22386 4 4.5 4Z" fill="#282F35"/>
  <path fill-rule="evenodd" clip-rule="evenodd" d="M9.5 7C8.11929 7 7 8.11929 7 9.5V18.5C7 19.8807 8.11929 21 9.5 21H18.5C19.8807 21 21 19.8807 21 18.5V9.5C21 8.11929 19.8807 7 18.5 7H9.5ZM13 10V13H10V15H13V18H15V15H18V13H15V10H13Z" fill="#282F35"/>
</svg>