<svg width="24" height="24" viewBox="0 0 24 24" fill="none" xmlns="http://www.w3.org/2000/svg">
  <path d="M4 9.99998V7.99998H6.99999C7.55227 7.99998 7.99999 7.55227 7.99999 6.99999L8.00001 4L10 4.00001L9.99999 7C9.99998 8.65685 8.65684 9.99998 6.99999 9.99998H4Z" fill="#282F35"/>
  <path d="M14 20H16V17C16 16.4477 16.4477 16 17 16H20L20 14L17 14C15.3431 14 14 15.3431 14 17V20Z" fill="#282F35"/>
  <path d="M13.0002 4.00011V10.0001C13.0002 10.2653 13.1056 10.5197 13.2931 10.7072C13.4806 10.8947 13.735 11.0001 14.0002 11.0001H20.0002V9.0001L16.4143 9.00011L20.2075 5.20724L18.7934 3.79297L15.0002 7.5858L15.0002 4.00011H13.0002Z" fill="#282F35"/>
  <path d="M10.9998 20.0001V14.0001C10.9998 13.7349 10.8944 13.4805 10.7069 13.293C10.5194 13.1055 10.265 13.0001 9.9998 13.0001H3.9998L3.9998 15.0001L7.58568 15.0001L3.79248 18.793L5.20663 20.2072L8.9998 16.4144L8.9998 20.0001H10.9998Z" fill="#282F35"/>
</svg>