<svg width="24" height="24" viewBox="0 0 24 24" fill="none" xmlns="http://www.w3.org/2000/svg">
  <path d="M5.69831 10.5002L7.75743 11.6441L7.11756 11.9996L11.9993 14.7117L16.8811 11.9996L16.2409 11.644L18.3 10.5L20.4093 11.6718C20.6664 11.8147 20.6664 12.1845 20.4093 12.3274L12.7278 16.5949C12.2747 16.8466 11.7239 16.8466 11.2708 16.5949L3.58937 12.3274C3.33219 12.1845 3.33219 11.8147 3.58937 11.6718L5.69831 10.5002Z" fill="#282F35"/>
  <path d="M5.69843 15.5L7.75756 16.644L7.11756 16.9995L11.9993 19.7116L16.8811 16.9995L16.2411 16.644L18.3002 15.5L20.4093 16.6717C20.6664 16.8146 20.6664 17.1844 20.4093 17.3273L12.7278 21.5948C12.2747 21.8465 11.7239 21.8465 11.2708 21.5948L3.58937 17.3273C3.33219 17.1844 3.33219 16.8146 3.58937 16.6717L5.69843 15.5Z" fill="#282F35"/>
  <path d="M3.59006 6.67219L11.2715 2.4047C11.7246 2.15302 12.2754 2.15302 12.7285 2.4047L20.4099 6.67219C20.6671 6.81507 20.6671 7.18493 20.4099 7.32781L12.7285 11.5953C12.2754 11.847 11.7246 11.847 11.2715 11.5953L3.59006 7.32781C3.33288 7.18493 3.33288 6.81507 3.59006 6.67219Z" fill="#282F35"/>
</svg>