<svg width="24" height="24" viewBox="0 0 24 24" fill="none" xmlns="http://www.w3.org/2000/svg">
  <path fill-rule="evenodd" clip-rule="evenodd" d="M5 3C3.34315 3 2 4.34315 2 6V18C2 19.6569 3.34315 21 5 21H19C20.6569 21 22 19.6569 22 18V6C22 4.34315 20.6569 3 19 3H5ZM18.125 12C18.125 13.8036 15.9443 14.7069 14.669 13.4315L14 12.7626L12.7626 14L13.4315 14.669C15.8093 17.0468 19.875 15.3627 19.875 12C19.875 8.63729 15.8093 6.95323 13.4315 9.33103L9.33103 13.4315C8.05567 14.7069 5.875 13.8036 5.875 12C5.875 10.1964 8.05567 9.2931 9.33103 10.5685L10 11.2374L11.2374 10L10.5685 9.33103C8.19066 6.95323 4.125 8.63729 4.125 12C4.125 15.3627 8.19067 17.0468 10.5685 14.669L14.669 10.5685C15.9443 9.29311 18.125 10.1964 18.125 12Z" fill="#282F35"/>
</svg>