<svg width="24" height="24" viewBox="0 0 24 24" fill="none" xmlns="http://www.w3.org/2000/svg">
  <path d="M17 5V3H18C19.6569 3 21 4.34315 21 6V7H19V6C19 5.44772 18.5523 5 18 5H17Z" fill="#282F35"/>
  <path d="M14 5V3H10L10 5H14Z" fill="#282F35"/>
  <path d="M7 5V3H6C4.34315 3 3 4.34315 3 6V7H5V6C5 5.44772 5.44772 5 6 5H7Z" fill="#282F35"/>
  <path d="M3 14V10H5V14H3Z" fill="#282F35"/>
  <path d="M3 17H5V18C5 18.5523 5.44772 19 6 19H7V21H6C4.34315 21 3 19.6569 3 18V17Z" fill="#282F35"/>
  <path d="M10 21V19H14V21H10Z" fill="#282F35"/>
  <path d="M17 21V19H18C18.5523 19 19 18.5523 19 18V17H21V18C21 19.6569 19.6569 21 18 21H17Z" fill="#282F35"/>
  <path d="M21 14H19V10H21V14Z" fill="#282F35"/>
  <path d="M12 10C10.8954 10 10 10.8954 10 12C10 13.1046 10.8954 14 12 14C13.1046 14 14 13.1046 14 12C14 10.8954 13.1046 10 12 10Z" fill="#282F35"/>
</svg>