<svg width="24" height="24" viewBox="0 0 24 24" fill="none" xmlns="http://www.w3.org/2000/svg">
  <path fill-rule="evenodd" clip-rule="evenodd" d="M12 5C12 6.01666 11.4943 6.9152 10.7207 7.4578L13.4996 19.5L13.5 21H10.5V19.6365C10.4069 19.3987 10.3436 19.1472 10.3136 18.8874L9.61572 12.8393L6.9736 13.3997C6.77817 14.8676 5.52133 16 4 16C2.34315 16 1 14.6569 1 13C1 11.3431 2.34315 10 4 10C5.21963 10 6.26927 10.7278 6.73832 11.7728L9.39822 10.9544L9.05725 7.99946C9.03821 7.99982 9.01913 8 9 8C7.34315 8 6 6.65685 6 5C6 3.34315 7.34315 2 9 2C10.6569 2 12 3.34315 12 5ZM10 5C10 5.55228 9.55228 6 9 6C8.44772 6 8 5.55228 8 5C8 4.44772 8.44772 4 9 4C9.55228 4 10 4.44772 10 5ZM5 13C5 13.5523 4.55228 14 4 14C3.44772 14 3 13.5523 3 13C3 12.4477 3.44772 12 4 12C4.55228 12 5 12.4477 5 13Z" fill="#282F35"/>
  <path d="M13.7598 11.9602L22.9997 10.0003L20.0746 8.53777C19.3846 8.19276 18.5882 8.12685 17.8508 8.35372L13.2539 9.76807L13.7598 11.9602Z" fill="#282F35"/>
  <path d="M4.5 21V19.5H1.5V21H4.5Z" fill="#282F35"/>
  <path d="M9 19.5H6V21H9V19.5Z" fill="#282F35"/>
  <path d="M18 19.5H15V21H18V19.5Z" fill="#282F35"/>
  <path d="M19.5 19.5H22.5V21H19.5V19.5Z" fill="#282F35"/>
</svg>