<svg width="24" height="24" viewBox="0 0 24 24" fill="none" xmlns="http://www.w3.org/2000/svg">
  <path d="M8 19C9.65685 19 11 20.3431 11 22L9 22C9 21.4477 8.55228 21 8 21L5 21C4.44772 21 4 21.4477 4 22H2C2 20.3431 3.34315 19 5 19H8Z" fill="#282F35"/>
  <path d="M22 22C22 20.3431 20.6569 19 19 19H16C14.3431 19 13 20.3431 13 22H15C15 21.4477 15.4477 21 16 21L19 21C19.5523 21 20 21.4477 20 22L22 22Z" fill="#282F35"/>
  <path d="M18 2C19.6569 2 21 3.34315 21 5V13C21 14.6569 19.6569 16 18 16H15V14H18C18.5523 14 19 13.5523 19 13V5C19 4.44771 18.5523 4 18 4L6 4C5.44772 4 5 4.44771 5 5L5 13C5 13.5523 5.44772 14 6 14H9V16H6C4.34315 16 3 14.6569 3 13V5C3 3.34315 4.34315 2 6 2H18Z" fill="#282F35"/>
  <path d="M16.2071 11.2929L12.7071 7.79287C12.5196 7.60533 12.2652 7.49997 12 7.49997C11.7348 7.49997 11.4804 7.60533 11.2929 7.79287L7.79289 11.2929L9.20711 12.7071L11 10.9142V19H13V10.9142L14.7929 12.7071L16.2071 11.2929Z" fill="#282F35"/>
</svg>