<svg width="24" height="24" viewBox="0 0 24 24" fill="none" xmlns="http://www.w3.org/2000/svg">
  <path fill-rule="evenodd" clip-rule="evenodd" d="M8.5 12C6.567 12 5 13.567 5 15.5C5 17.433 6.567 19 8.5 19C10.433 19 12 17.433 12 15.5V12H8.5ZM8.5 10C5.46243 10 3 12.4624 3 15.5C3 18.5376 5.46243 21 8.5 21C11.5376 21 14 18.5376 14 15.5V10H8.5Z" fill="#282F35"/>
  <path d="M16.0001 13.9775C18.8033 13.7248 21.0001 11.3687 21.0001 8.49962C21.0001 5.46205 18.5376 2.99951 15.5001 2.99951C12.6309 2.99951 10.2748 5.19652 10.0225 8H16.0001V13.9775Z" fill="#282F35"/>
</svg>