<svg width="24" height="24" viewBox="0 0 24 24" fill="none" xmlns="http://www.w3.org/2000/svg">
  <path d="M10 8H14V14H8V10C8 8.89543 8.89543 8 10 8Z" fill="#282F35"/>
  <path d="M8 18V19C8 20.1046 8.89543 21 10 21H19C20.1046 21 21 20.1046 21 19V10C21 8.89543 20.1046 8 19 8H18V10H19V19H10V18H8Z" fill="#282F35"/>
  <path fill-rule="evenodd" clip-rule="evenodd" d="M14 5H5L5 14H14V5ZM5 3C3.89543 3 3 3.89543 3 5V14C3 15.1046 3.89543 16 5 16H14C15.1046 16 16 15.1046 16 14V5C16 3.89543 15.1046 3 14 3H5Z" fill="#282F35"/>
</svg>