<svg width="24" height="24" viewBox="0 0 24 24" fill="none" xmlns="http://www.w3.org/2000/svg">
  <path fill-rule="evenodd" clip-rule="evenodd" d="M2 6C2 4.34315 3.34315 3 5 3H19C20.6569 3 22 4.34315 22 6V18C22 19.6569 20.6569 21 19 21H5C3.34315 21 2 19.6569 2 18V6ZM5 5C4.44772 5 4 5.44772 4 6V18C4 18.5523 4.44772 19 5 19H19C19.5523 19 20 18.5523 20 18V6C20 5.44772 19.5523 5 19 5H5Z" fill="#282F35"/>
  <path d="M18 11H12V13H18V11Z" fill="#282F35"/>
  <path d="M13 15H6V17H13V15Z" fill="#282F35"/>
  <path d="M6 11H10V13H6V11Z" fill="#282F35"/>
  <path d="M18 15H15V17H18V15Z" fill="#282F35"/>
</svg>