<svg width="80" height="80" viewBox="0 0 80 80" fill="none" xmlns="http://www.w3.org/2000/svg">
  <g opacity="0.55">
  <mask id="mask0_9969_495841" style="mask-type:alpha" maskUnits="userSpaceOnUse" x="12" y="19" width="56" height="36">
  <path opacity="0.25" d="M32.892 20.9777C37.3211 20.9777 41.1586 23.518 43.0237 27.2257C43.1623 27.5011 43.4202 27.6973 43.7226 27.7572C44.0251 27.8172 44.3383 27.7343 44.5714 27.5325C46.0296 26.2707 47.9287 25.5083 50.0084 25.5083C54.5997 25.5083 58.3217 29.2303 58.3217 33.8216V35.1324C58.3217 35.6444 58.7084 36.0737 59.2177 36.127C63.5231 36.5774 66.8799 40.2199 66.8799 44.6451C66.8799 49.3754 63.0452 53.2101 58.3148 53.2101H21.565C16.8347 53.2101 13 49.3754 13 44.6451C13 40.2199 16.3567 36.5774 20.6622 36.127C21.1715 36.0737 21.5582 35.6444 21.5582 35.1324V32.3115C21.5582 26.052 26.6325 20.9777 32.892 20.9777Z" fill="#282F35"/>
  <path opacity="0.75" fill-rule="evenodd" clip-rule="evenodd" d="M43.4216 25.8855C43.5986 26.1748 43.7639 26.472 43.9171 26.7764C44.1734 26.5546 44.4419 26.3466 44.7215 26.1535C46.2234 25.116 48.0449 24.5084 50.0084 24.5084C55.152 24.5084 59.3217 28.6781 59.3217 33.8217V35.1326C64.1311 35.6357 67.8799 39.7027 67.8799 44.6452C67.8799 49.9278 63.5975 54.2102 58.3148 54.2102H21.565C16.2824 54.2102 12 49.9278 12 44.6452C12 39.7026 15.7488 35.6357 20.5582 35.1325V32.3116C20.5582 25.4998 26.0802 19.9778 32.892 19.9778C37.3495 19.9778 41.2546 22.3423 43.4216 25.8855ZM43.7226 27.7573C43.4202 27.6974 43.1623 27.5013 43.0237 27.2258C41.1586 23.5181 37.3211 20.9778 32.892 20.9778C26.6325 20.9778 21.5582 26.0521 21.5582 32.3116V35.1325C21.5582 35.6446 21.1715 36.0738 20.6622 36.1271C16.3567 36.5775 13 40.22 13 44.6452C13 49.3755 16.8347 53.2102 21.565 53.2102H58.3148C63.0452 53.2102 66.8799 49.3755 66.8799 44.6452C66.8799 40.22 63.5231 36.5775 59.2177 36.1271C58.7084 36.0739 58.3217 35.6446 58.3217 35.1326V33.8217C58.3217 29.2304 54.5997 25.5084 50.0084 25.5084C47.9287 25.5084 46.0296 26.2708 44.5714 27.5326C44.3383 27.7344 44.0251 27.8173 43.7226 27.7573Z" fill="#282F35"/>
  </mask>
  <g mask="url(#mask0_9969_495841)">
  <path d="M65.1182 60.8838L13.51 19.9778L-1.69539 39.1614L49.9127 80.0674L65.1182 60.8838Z" fill="#282F35"/>
  </g>
  <mask id="mask1_9969_495841" style="mask-type:alpha" maskUnits="userSpaceOnUse" x="13" y="18" width="56" height="36">
  <path opacity="0.25" fill-rule="evenodd" clip-rule="evenodd" d="M33.892 19.9778C38.3211 19.9778 42.1586 22.5181 44.0237 26.2258C44.1623 26.5013 44.4202 26.6974 44.7226 26.7573C45.0251 26.8173 45.3383 26.7344 45.5714 26.5326C47.0296 25.2708 48.9287 24.5084 51.0084 24.5084C55.5997 24.5084 59.3217 28.2304 59.3217 32.8217V34.1326C59.3217 34.6446 59.7084 35.0739 60.2177 35.1271C64.5231 35.5775 67.8799 39.22 67.8799 43.6452C67.8799 48.3755 64.0452 52.2102 59.3148 52.2102H22.565C17.8347 52.2102 14 48.3755 14 43.6452C14 39.22 17.3567 35.5775 21.6622 35.1271C22.1715 35.0738 22.5582 34.6446 22.5582 34.1325V31.3116C22.5582 25.0521 27.6325 19.9778 33.892 19.9778Z" fill="#282F35"/>
  <path opacity="0.75" fill-rule="evenodd" clip-rule="evenodd" d="M44.4216 24.8855C44.5986 25.1748 44.7639 25.472 44.9171 25.7764C45.1734 25.5546 45.4419 25.3466 45.7215 25.1535C47.2234 24.116 49.0449 23.5084 51.0084 23.5084C56.152 23.5084 60.3217 27.6781 60.3217 32.8217V34.1326C65.1311 34.6357 68.8799 38.7027 68.8799 43.6452C68.8799 48.9278 64.5975 53.2102 59.3148 53.2102H22.565C17.2824 53.2102 13 48.9278 13 43.6452C13 38.7026 16.7488 34.6357 21.5582 34.1325V31.3116C21.5582 24.4998 27.0802 18.9778 33.892 18.9778C38.3495 18.9778 42.2546 21.3423 44.4216 24.8855ZM44.7226 26.7573C44.4202 26.6974 44.1623 26.5013 44.0237 26.2258C42.1586 22.5181 38.3211 19.9778 33.892 19.9778C27.6325 19.9778 22.5582 25.0521 22.5582 31.3116V34.1325C22.5582 34.6446 22.1715 35.0738 21.6622 35.1271C17.3567 35.5775 14 39.22 14 43.6452C14 48.3755 17.8347 52.2102 22.565 52.2102H59.3148C64.0452 52.2102 67.8799 48.3755 67.8799 43.6452C67.8799 39.22 64.5231 35.5775 60.2177 35.1271C59.7084 35.0739 59.3217 34.6446 59.3217 34.1326V32.8217C59.3217 28.2304 55.5997 24.5084 51.0084 24.5084C48.9287 24.5084 47.0296 25.2708 45.5714 26.5326C45.3383 26.7344 45.0251 26.8173 44.7226 26.7573Z" fill="#282F35"/>
  </mask>
  <g mask="url(#mask1_9969_495841)">
  <rect width="65.8536" height="20.0625" transform="matrix(-0.783679 -0.621165 -0.621165 0.783679 82.0703 41.3281)" fill="#282F35"/>
  </g>
  <rect width="65.8536" height="3.00361" transform="matrix(-0.783679 -0.621165 -0.621165 0.783679 67.4541 58.9061)" fill="#282F35"/>
  </g>
</svg>