<svg width="24" height="24" viewBox="0 0 24 24" fill="none" xmlns="http://www.w3.org/2000/svg">
  <path fill-rule="evenodd" clip-rule="evenodd" d="M21 14.5C21 13.1193 19.8807 12 18.5 12H15.5C14.1193 12 13 13.1193 13 14.5V16.5C13 17.8807 14.1193 19 15.5 19H18.5C19.8807 19 21 17.8807 21 16.5V14.5ZM18.5 14C18.7761 14 19 14.2239 19 14.5V16.5C19 16.7761 18.7761 17 18.5 17H15.5C15.2239 17 15 16.7761 15 16.5V14.5C15 14.2239 15.2239 14 15.5 14H18.5Z" fill="#282F35"/>
  <path fill-rule="evenodd" clip-rule="evenodd" d="M15.5 3C16.8807 3 18 4.11929 18 5.5V8.5C18 9.88071 16.8807 11 15.5 11H5.5C4.11929 11 3 9.88071 3 8.5V5.5C3 4.11929 4.11929 3 5.5 3H15.5ZM16 5.5C16 5.22386 15.7761 5 15.5 5H5.5C5.22386 5 5 5.22386 5 5.5V8.5C5 8.77614 5.22386 9 5.5 9H15.5C15.7761 9 16 8.77614 16 8.5V5.5Z" fill="#282F35"/>
  <path fill-rule="evenodd" clip-rule="evenodd" d="M9.5 12C10.8807 12 12 13.1193 12 14.5V18.5C12 19.8807 10.8807 21 9.5 21H5.5C4.11929 21 3 19.8807 3 18.5V14.5C3 13.1193 4.11929 12 5.5 12H9.5ZM10 14.5C10 14.2239 9.77614 14 9.5 14H5.5C5.22386 14 5 14.2239 5 14.5V18.5C5 18.7761 5.22386 19 5.5 19H9.5C9.77614 19 10 18.7761 10 18.5V14.5Z" fill="#282F35"/>
</svg>