<svg width="24" height="24" viewBox="0 0 24 24" fill="none" xmlns="http://www.w3.org/2000/svg">
  <path d="M4 4C3.44772 4 3 4.44772 3 5V17C3 17.5523 3.44772 18 4 18H8.12602C8.04375 17.6804 8 17.3453 8 17V12C8 9.79086 9.79086 8 12 8H20C20.3453 8 20.6804 8.04375 21 8.12602V5C21 4.44772 20.5523 4 20 4H4Z" fill="#282F35"/>
  <path d="M12 12H20V17H12V12Z" fill="#282F35"/>
  <path fill-rule="evenodd" clip-rule="evenodd" d="M9.25 12C9.25 10.4812 10.4812 9.25 12 9.25H20C21.5188 9.25 22.75 10.4812 22.75 12V17C22.75 18.5188 21.5188 19.75 20 19.75H12C10.4812 19.75 9.25 18.5188 9.25 17V12ZM12 10.75C11.3096 10.75 10.75 11.3096 10.75 12V17C10.75 17.6904 11.3096 18.25 12 18.25H20C20.6904 18.25 21.25 17.6904 21.25 17V12C21.25 11.3096 20.6904 10.75 20 10.75H12Z" fill="#282F35"/>
</svg>