<svg width="24" height="24" viewBox="0 0 24 24" fill="none" xmlns="http://www.w3.org/2000/svg">
  <path fill-rule="evenodd" clip-rule="evenodd" d="M11 2C9.34315 2 8 3.34315 8 5V13C8 14.6569 9.34315 16 11 16H19C20.6569 16 22 14.6569 22 13V5C22 3.34315 20.6569 2 19 2H11ZM10 5C10 4.44772 10.4477 4 11 4H13.5V10.5L15.75 8.25L18 10.5V4H19C19.5523 4 20 4.44772 20 5V13C20 13.5523 19.5523 14 19 14H11C10.4477 14 10 13.5523 10 13V5Z" fill="#282F35"/>
  <path d="M7.00001 8L5.00001 8.00013L5.00051 16.0002C5.00062 17.6569 6.34371 19 8.00047 19L16.0001 19.0001L16.0001 17.0001L8.0005 17C7.44824 17 7.00055 16.5523 7.00051 16L7.00001 8Z" fill="#282F35"/>
  <path d="M4 13L2 13.0001L2.00045 19.0002C2.00057 20.657 3.34365 22 5.0004 22L11.0001 22.0001L11.0001 20.0001L5.00043 20C4.44818 20 4.00049 19.5523 4.00045 19.0001L4 13Z" fill="#282F35"/>
</svg>