<svg width="24" height="24" viewBox="0 0 24 24" fill="none" xmlns="http://www.w3.org/2000/svg">
  <path d="M7.49999 14.5001L3.59035 16.6721C3.33317 16.815 3.33317 17.1849 3.59034 17.3278L11.2718 21.5952C11.7249 21.8469 12.2757 21.8469 12.7288 21.5952L20.4102 17.3278C20.6674 17.1849 20.6674 16.815 20.4102 16.6721L16.5004 14.5L12.7286 16.5955C12.2755 16.8472 11.7247 16.8472 11.2716 16.5955L7.49999 14.5001Z" fill="#282F35"/>
  <path d="M11.7575 10.721L5.05941 6.99988L11.7575 3.27874L11.2718 2.40458L11.7575 3.27874C11.9085 3.19485 12.0921 3.19485 12.2431 3.27874L18.9412 6.99988L12.2431 10.721C12.0921 10.8049 11.9085 10.8049 11.7575 10.721Z" stroke="#282F35" stroke-width="2"/>
</svg>