<svg width="24" height="24" viewBox="0 0 24 24" fill="none" xmlns="http://www.w3.org/2000/svg">
  <path d="M21 8L22 8V6L21 6C19.3431 6 18 7.34315 18 9V15C18 16.6569 19.3431 18 21 18H22V16H21C20.4477 16 20 15.5523 20 15V9C20 8.44772 20.4477 8 21 8Z" fill="#282F35"/>
  <path d="M3 8H2L2 6L3 6C4.65686 6 6 7.34315 6 9L6 15C6 16.6569 4.65685 18 3 18H2L2 16H3C3.55228 16 4 15.5523 4 15L4 9C4 8.44772 3.55229 8 3 8Z" fill="#282F35"/>
  <path fill-rule="evenodd" clip-rule="evenodd" d="M14 4C15.6569 4 17 5.34315 17 7L17 17C17 18.6569 15.6569 20 14 20L10 20C8.34314 20 7 18.6569 7 17L7 7C7 5.34315 8.34315 4 10 4L14 4ZM15 7C15 6.44772 14.5523 6 14 6L10 6C9.44772 6 9 6.44771 9 7L9 17C9 17.5523 9.44771 18 10 18L14 18C14.5523 18 15 17.5523 15 17L15 7Z" fill="#282F35"/>
</svg>