<svg width="24" height="24" viewBox="0 0 24 24" fill="none" xmlns="http://www.w3.org/2000/svg">
  <path fill-rule="evenodd" clip-rule="evenodd" d="M9 10V17H15V10H17V17.25C17 18.2165 16.2165 19 15.25 19H8.75C7.7835 19 7 18.2165 7 17.25V10H9Z" fill="#282F35"/>
  <path fill-rule="evenodd" clip-rule="evenodd" d="M10 1C8.89543 1 8 1.89543 8 3H7C5.34315 3 4 4.34315 4 6V19C4 20.6569 5.34315 22 7 22H17C18.6569 22 20 20.6569 20 19V6C20 4.34315 18.6569 3 17 3H16C16 1.89543 15.1046 1 14 1H10ZM16 5C16 6.10457 15.1046 7 14 7H10C8.89543 7 8 6.10457 8 5H7C6.44772 5 6 5.44772 6 6V19C6 19.5523 6.44772 20 7 20H17C17.5523 20 18 19.5523 18 19V6C18 5.44772 17.5523 5 17 5H16ZM10 3H14V5H10V3Z" fill="#282F35"/>
</svg>