<svg width="24" height="24" viewBox="0 0 24 24" fill="none" xmlns="http://www.w3.org/2000/svg">
  <path fill-rule="evenodd" clip-rule="evenodd" d="M5 3C3.89543 3 3 3.89543 3 5V19C3 20.1046 3.89543 21 5 21H19C20.1046 21 21 20.1046 21 19V8.82843C21 8.29799 20.7893 7.78929 20.4142 7.41421L16.5858 3.58579C16.2107 3.21071 15.702 3 15.1716 3H5ZM15.1716 5H10V7H14.25V9H9C8.44772 9 8 8.55228 8 8V5H5L5 19H7V13C7 12.4477 7.44772 12 8 12H16C16.5523 12 17 12.4477 17 13V19H19V8.82843L15.1716 5ZM15 19V14H9V19H15Z" fill="#282F35"/>
</svg>