<svg width="24" height="24" viewBox="0 0 24 24" fill="none" xmlns="http://www.w3.org/2000/svg">
  <path d="M14.7428 4.21726C17.0926 5.04535 18.9548 6.90746 19.7829 9.25723C20.1549 9.09194 20.5667 9.0001 21 9.0001C21.0957 9.0001 21.1904 9.00458 21.2839 9.01335C20.3251 6.03098 17.9691 3.67506 14.9867 2.71633C14.9955 2.80974 15 2.9044 15 3.0001C15 3.43341 14.9081 3.84527 14.7428 4.21726Z" fill="#282F35"/>
  <path d="M21.284 14.9868C21.1905 14.9956 21.0958 15.0001 21 15.0001C20.5667 15.0001 20.155 14.9083 19.7831 14.743C18.955 17.0929 17.0928 18.9552 14.743 19.7834C14.9082 20.1552 15 20.5669 15 21.0001C15 21.096 14.9955 21.1908 14.9867 21.2844C17.9693 20.3256 20.3253 17.9694 21.284 14.9868Z" fill="#282F35"/>
  <path d="M9.01326 21.2844C9.00446 21.1908 8.99996 21.096 8.99996 21.0001C8.99996 20.567 9.09176 20.1552 9.25695 19.7834C6.90707 18.9552 5.04488 17.093 4.2168 14.7431C3.8449 14.9083 3.43315 15.0001 2.99996 15.0001C2.90413 15.0001 2.80935 14.9956 2.71582 14.9868C3.67451 17.9695 6.03063 20.3256 9.01326 21.2844Z" fill="#282F35"/>
  <path d="M2.71598 9.01336C2.80946 9.00458 2.90419 9.0001 2.99996 9.0001C3.43321 9.0001 3.845 9.09193 4.21695 9.25721C5.04512 6.90743 6.90731 5.04531 9.25714 4.21724C9.09183 3.84525 8.99996 3.4334 8.99996 3.0001C8.99996 2.90439 9.00444 2.80973 9.01321 2.71631C6.03078 3.67502 3.67477 6.03097 2.71598 9.01336Z" fill="#282F35"/>
  <path d="M12 4.5C12.8284 4.5 13.5 3.82843 13.5 3C13.5 2.17157 12.8284 1.5 12 1.5C11.1716 1.5 10.5 2.17157 10.5 3C10.5 3.82843 11.1716 4.5 12 4.5Z" fill="#282F35"/>
  <path d="M3 13.5C3.82843 13.5 4.5 12.8284 4.5 12C4.5 11.1716 3.82843 10.5 3 10.5C2.17157 10.5 1.5 11.1716 1.5 12C1.5 12.8284 2.17157 13.5 3 13.5Z" fill="#282F35"/>
  <path d="M22.5 12C22.5 12.8284 21.8284 13.5 21 13.5C20.1716 13.5 19.5 12.8284 19.5 12C19.5 11.1716 20.1716 10.5 21 10.5C21.8284 10.5 22.5 11.1716 22.5 12Z" fill="#282F35"/>
  <path d="M12 22.5C12.8284 22.5 13.5 21.8284 13.5 21C13.5 20.1716 12.8284 19.5 12 19.5C11.1716 19.5 10.5 20.1716 10.5 21C10.5 21.8284 11.1716 22.5 12 22.5Z" fill="#282F35"/>
</svg>