<svg width="24" height="24" viewBox="0 0 24 24" fill="none" xmlns="http://www.w3.org/2000/svg">
  <path d="M9.70721 18.2069L5.70721 22.2071C5.51967 22.3947 5.26532 22.5001 5.00009 22.5001C4.73487 22.5001 4.48051 22.3947 4.29297 22.2072L0.292969 18.2071L1.70719 16.7929L4 19.0858V4.9143L1.70719 7.20713L0.292969 5.79292L4.29297 1.7929C4.48051 1.60536 4.73486 1.5 5.00008 1.5C5.2653 1.5 5.51965 1.60536 5.70719 1.7929L9.70719 5.79292L8.29297 7.20713L6 4.91415V19.0858L8.29295 16.7927L9.70721 18.2069Z" fill="#282F35"/>
  <path d="M21 9H10V11H21V9Z" fill="#282F35"/>
  <path d="M17 13H10V15H17V13Z" fill="#282F35"/>
</svg>