<svg width="24" height="24" viewBox="0 0 24 24" fill="none" xmlns="http://www.w3.org/2000/svg">
  <path d="M16.7071 9.20719L20.2071 5.70719C20.3947 5.51965 20.5 5.2653 20.5 5.00008C20.5 4.73486 20.3947 4.48051 20.2071 4.29297L16.7071 0.792969L15.2929 2.20719L17.0857 4H4V17.0857L2.20719 15.2929L0.792969 16.7071L4.29297 20.2071C4.48051 20.3947 4.73486 20.5 5.00008 20.5C5.2653 20.5 5.51965 20.3947 5.70719 20.2071L9.20719 16.7071L7.79297 15.2929L6 17.0859V6H17.0859L15.2929 7.79297L16.7071 9.20719Z" fill="#282F35"/>
  <path d="M21 11H11V13H21V11Z" fill="#282F35"/>
  <path d="M18 15H11V17H18V15Z" fill="#282F35"/>
</svg>